<?xml version="1.0" encoding="UTF-8" standalone="no"?>
<!-- Created with Inkscape (http://www.inkscape.org/) -->

<svg
   xmlns:dc="http://purl.org/dc/elements/1.1/"
   xmlns:cc="http://creativecommons.org/ns#"
   xmlns:rdf="http://www.w3.org/1999/02/22-rdf-syntax-ns#"
   xmlns:svg="http://www.w3.org/2000/svg"
   xmlns="http://www.w3.org/2000/svg"
   xmlns:sodipodi="http://sodipodi.sourceforge.net/DTD/sodipodi-0.dtd"
   xmlns:inkscape="http://www.inkscape.org/namespaces/inkscape"
   width="150.85782mm"
   height="52.194748mm"
   viewBox="0 0 150.85782 52.194748"
   id="svg6900"
   version="1.1"
   inkscape:version="0.91+devel+osxmenu r12922"
   sodipodi:docname="resibots_logo_black.svg"
   inkscape:export-filename="/Users/jbm/Documents/git/resibots/logos/resibots/resibots_logo_black_200px.png"
   inkscape:export-xdpi="33.669998"
   inkscape:export-ydpi="33.669998">
  <defs
     id="defs6902">
    <clipPath
       id="clip1-86-9-3">
      <path
         inkscape:connector-curvature="0"
         d="m 69,37 37.55469,0 0,7 L 69,44 Z m 0,0"
         id="path4919-2-5-3" />
    </clipPath>
    <clipPath
       id="clip2-70-1-7">
      <path
         inkscape:connector-curvature="0"
         d="m 47,55 9,0 0,11.625 -9,0 z m 0,0"
         id="path4922-3-3-7" />
    </clipPath>
    <clipPath
       id="clip3-3-2-6">
      <path
         inkscape:connector-curvature="0"
         d="m 41,49 20,0 0,17.625 -20,0 z m 0,0"
         id="path4925-3-4-1" />
    </clipPath>
    <clipPath
       id="clip4-50-8-3">
      <path
         inkscape:connector-curvature="0"
         d="m 88,8 18.55469,0 0,26 L 88,34 Z m 0,0"
         id="path4928-9-9-4" />
    </clipPath>
    <clipPath
       id="clip5-2-2-2">
      <path
         inkscape:connector-curvature="0"
         d="m 77,3 29.55469,0 0,24 L 77,27 Z m 0,0"
         id="path4931-7-7-8" />
    </clipPath>
    <clipPath
       id="clip6-9-9-1">
      <path
         inkscape:connector-curvature="0"
         d="m 98,27 8.55469,0 0,16 L 98,43 Z m 0,0"
         id="path4934-8-3-2" />
    </clipPath>
    <clipPath
       id="clip7-91-2-6">
      <path
         inkscape:connector-curvature="0"
         d="m 93,22 13.55469,0 0,26 L 93,48 Z m 0,0"
         id="path4937-5-7-2" />
    </clipPath>
    <clipPath
       id="clip8-9-2-2">
      <path
         inkscape:connector-curvature="0"
         d="m 84,17 22.55469,0 0,22 L 84,39 Z m 0,0"
         id="path4940-04-3-9" />
    </clipPath>
  </defs>
  <sodipodi:namedview
     id="base"
     pagecolor="#ffffff"
     bordercolor="#666666"
     borderopacity="1.0"
     inkscape:pageopacity="0.0"
     inkscape:pageshadow="2"
     inkscape:zoom="0.7"
     inkscape:cx="600.19801"
     inkscape:cy="-120.98704"
     inkscape:document-units="mm"
     inkscape:current-layer="layer1"
     showgrid="false"
     fit-margin-top="0.1"
     fit-margin-left="0.1"
     fit-margin-right="0.1"
     fit-margin-bottom="0.1"
     inkscape:window-width="1676"
     inkscape:window-height="1006"
     inkscape:window-x="0"
     inkscape:window-y="22"
     inkscape:window-maximized="0" />
  <metadata
     id="metadata6905">
    <rdf:RDF>
      <cc:Work
         rdf:about="">
        <dc:format>image/svg+xml</dc:format>
        <dc:type
           rdf:resource="http://purl.org/dc/dcmitype/StillImage" />
        <dc:title></dc:title>
      </cc:Work>
    </rdf:RDF>
  </metadata>
  <g
     inkscape:label="Layer 1"
     inkscape:groupmode="layer"
     id="layer1"
     transform="translate(538.82772,125.97237)">
    <text
       transform="scale(0.99989932,1.0001007)"
       sodipodi:linespacing="125%"
       id="text6585"
       y="-74.664818"
       x="-523.48456"
       style="font-style:normal;font-weight:normal;font-size:36.95533371px;line-height:125%;font-family:sans-serif;letter-spacing:0px;word-spacing:0px;fill:#000000;fill-opacity:1;stroke:none;stroke-width:0.26458338px;stroke-linecap:butt;stroke-linejoin:miter;stroke-opacity:1"
       xml:space="preserve"
       inkscape:export-xdpi="95.929977"
       inkscape:export-ydpi="95.929977"><tspan
         style="font-style:normal;font-variant:normal;font-weight:500;font-stretch:normal;font-size:36.84758377px;font-family:'Bauhaus Std';-inkscape-font-specification:'Bauhaus Std Medium';fill:#000000;fill-opacity:1;stroke-width:0.26458338px"
         y="-74.664818"
         x="-523.48456"
         id="tspan6587"
         sodipodi:role="line">resi</tspan></text>
    <g
       id="g4329"
       style="fill:#000000">
      <path
         inkscape:connector-curvature="0"
         style="opacity:1;fill:#000000;fill-opacity:1;fill-rule:nonzero;stroke:#ffffff;stroke-width:0.46346018;stroke-linecap:round;stroke-linejoin:round;stroke-miterlimit:4;stroke-opacity:0.35882401"
         d="m -397.65455,-103.43951 c 0,2.93129 -5.74961,5.306582 -12.84453,5.306582 -7.09296,0 -12.84453,-2.375292 -12.84453,-5.306582 0,-2.93129 5.75157,-5.30657 12.84453,-5.30657 7.09492,0 12.84453,2.37528 12.84453,5.30657 z m 0,0"
         id="path4945-8-3-0" />
      <g
         transform="matrix(0.50424781,0,0,0.50295596,-441.79987,-123.79547)"
         style="clip-rule:nonzero;stroke-width:1.2370317;fill:#000000"
         clip-path="url(#clip1-86-9-3)"
         id="g4947-2-8-5">
        <path
           inkscape:connector-curvature="0"
           style="opacity:1;fill:#000000;fill-opacity:1;fill-rule:nonzero;stroke:none;stroke-width:1.2370317"
           d="m 71.5,37.671875 32.91406,-0.617187 c 1.13282,-0.02344 2.0625,0.875 2.08594,2.007812 l 0.0234,1.277344 c 0.0195,1.132812 -0.875,2.0625 -2.01172,2.085937 l -32.910158,0.617188 c -1.132812,0.01953 -2.0625,-0.875 -2.085937,-2.011719 l -0.02344,-1.273438 c -0.02344,-1.136718 0.875,-2.066406 2.007812,-2.085937 z m 0,0"
           id="path4949-8-6-9" />
      </g>
      <path
         inkscape:connector-curvature="0"
         style="opacity:1;fill:#000000;fill-opacity:1;fill-rule:nonzero;stroke:none;stroke-width:0.622971"
         d="m -415.88823,-92.627918 4.67611,-15.884372 c 0.16152,-0.54814 0.73274,-0.85856 1.28229,-0.69746 l 0.61652,0.18075 c 0.54955,0.16111 0.86077,0.73086 0.69925,1.279 l -4.67611,15.884375 c -0.15955,0.548143 -0.73274,0.858561 -1.28032,0.697458 l -0.61849,-0.180749 c -0.54955,-0.159139 -0.86077,-0.730858 -0.69925,-1.279002 z m 0,0"
         id="path4951-9-6-0" />
      <path
         inkscape:connector-curvature="0"
         style="opacity:1;fill:#000000;fill-opacity:1;fill-rule:nonzero;stroke:none;stroke-width:0.622971"
         d="m -407.20571,-105.89338 15.51744,-5.87633 c 0.53379,-0.20433 1.12865,0.0629 1.33152,0.59726 l 0.22849,0.59922 c 0.20288,0.53439 -0.065,1.12576 -0.59879,1.32812 l -15.51744,5.8783 c -0.53576,0.20236 -1.12865,-0.0648 -1.33153,-0.59726 l -0.22849,-0.60119 c -0.20485,-0.53243 0.063,-1.12576 0.5988,-1.32812 z m 0,0"
         id="path4961-5-3-8" />
      <path
         inkscape:connector-curvature="0"
         style="opacity:1;fill:#000000;fill-opacity:1;fill-rule:nonzero;stroke:none;stroke-width:0.622971"
         d="m -432.74705,-97.91485 15.7026,-5.36945 c 0.54167,-0.18468 1.12667,0.10217 1.31183,0.64049 l 0.20879,0.60708 c 0.18515,0.54028 -0.10046,1.12379 -0.64213,1.30847 l -15.70259,5.369448 c -0.5397,0.18468 -1.12471,-0.100198 -1.31183,-0.640483 l -0.20879,-0.607083 c -0.18516,-0.540285 0.10242,-1.123792 0.64212,-1.308472 z m 0,0"
         id="path4973-6-9-4" />
      <path
         inkscape:connector-curvature="0"
         style="opacity:1;fill:#000000;fill-opacity:1;fill-rule:nonzero;stroke:none;stroke-width:0.622971"
         d="m -439.34166,-106.32561 19.3249,-0.30059 c 0.57122,-0.01 1.04198,0.44401 1.0538,1.01377 l 0.0138,0.64244 c 0.0118,0.56976 -0.43925,1.03735 -1.01244,1.04521 l -19.32293,0.30059 c -0.57319,0.008 -1.04395,-0.44401 -1.0538,-1.01377 l -0.0138,-0.64244 c -0.0118,-0.56976 0.43925,-1.03735 1.01047,-1.04521 z m 0,0"
         id="path4979-1-4-9" />
    </g>
    <text
       transform="scale(0.99989932,1.0001007)"
       sodipodi:linespacing="125%"
       id="text6589"
       y="-74.238663"
       x="-467.44095"
       style="font-style:normal;font-weight:normal;font-size:13.83719349px;line-height:125%;font-family:sans-serif;letter-spacing:0px;word-spacing:0px;fill:#e95d0f;fill-opacity:1;stroke:none;stroke-width:0.26458338px;stroke-linecap:butt;stroke-linejoin:miter;stroke-opacity:1"
       xml:space="preserve"
       inkscape:export-xdpi="95.929977"
       inkscape:export-ydpi="95.929977"><tspan
         style="font-style:normal;font-variant:normal;font-weight:500;font-stretch:normal;font-size:36.84758377px;font-family:'Bauhaus Std';-inkscape-font-specification:'Bauhaus Std Medium';fill:#e95d0f;fill-opacity:1;stroke-width:0.26458338px"
         y="-74.238663"
         x="-467.44095"
         id="tspan6591"
         sodipodi:role="line">bots</tspan></text>
    <path
       id="path4943-0-8-5"
       d="m -408.74997,-120.60091 0,2.18078 c 0,0.92929 -0.75046,1.67783 -1.68214,1.67783 l -0.50425,0 c -0.93168,0 -1.68214,-0.74854 -1.68214,-1.67783 l 0,-2.18078 c 0,-0.92929 0.75046,-1.67587 1.68214,-1.67587 l 0.50425,0 c 0.93168,0 1.68214,0.74658 1.68214,1.67587 z m 0,0"
       style="fill:#000000;fill-opacity:1;fill-rule:nonzero;stroke:#ffffff;stroke-width:0.6296804;stroke-linecap:butt;stroke-linejoin:miter;stroke-miterlimit:4;stroke-opacity:1"
       inkscape:connector-curvature="0" />
    <g
       id="g4953-0-2-6"
       clip-path="url(#clip2-70-1-7)"
       style="clip-rule:nonzero;stroke-width:1.2370317"
       transform="matrix(0.50424781,0,0,0.50295596,-441.79987,-123.79547)">
      <path
         id="path4955-3-3-7"
         d="m 55.191406,58.453125 0,4.335937 c 0,1.847657 -1.488281,3.332032 -3.335937,3.332032 l -1.382813,0 c -1.847656,0 -3.335937,-1.484375 -3.335937,-3.332032 l 0,-4.335937 c 0,-1.847656 1.488281,-3.335937 3.335937,-3.335937 l 1.382813,0 c 1.847656,0 3.335937,1.488281 3.335937,3.335937 z m 0,0"
         style="fill:#233547;fill-opacity:1;fill-rule:nonzero;stroke:none;stroke-width:1.2370317"
         inkscape:connector-curvature="0" />
    </g>
    <g
       id="g4957-539-5-7"
       clip-path="url(#clip3-3-2-6)"
       style="clip-rule:nonzero;stroke-width:1.2370317"
       transform="matrix(0.50424781,0,0,0.50295596,-441.79987,-123.79547)">
      <path
         id="path4959-43-6-6"
         transform="rotate(90)"
         d="m 58.453125,-55.191406 4.335937,0 c 1.847657,0 3.332032,1.488281 3.332032,3.335937 l 0,1.382813 c 0,1.847656 -1.484375,3.335937 -3.332032,3.335937 l -4.335937,0 c -1.847656,0 -3.335937,-1.488281 -3.335937,-3.335937 l 0,-1.382813 c 0,-1.847656 1.488281,-3.335937 3.335937,-3.335937 z m 0,0"
         style="fill:#000000;fill-opacity:1;stroke:#ffffff;stroke-width:1.25035453;stroke-linecap:butt;stroke-linejoin:miter;stroke-miterlimit:4;stroke-opacity:1"
         inkscape:connector-curvature="0" />
    </g>
    <path
       id="path4963-7-6-3"
       d="m -389.94704,-114.52811 0,2.81734 c 0,0.95679 -0.77016,1.72694 -1.72942,1.72694 l -0.455,0 c -0.95925,0 -1.72941,-0.77015 -1.72941,-1.72694 l 0,-2.81734 c 0,-0.95483 0.77016,-1.72499 1.72941,-1.72499 l 0.455,0 c 0.95926,0 1.72942,0.77016 1.72942,1.72499 z m 0,0"
       style="fill:#233547;fill-opacity:1;fill-rule:nonzero;stroke:none;stroke-width:0.622971"
       inkscape:connector-curvature="0" />
    <g
       id="g4965-7-4-8"
       clip-path="url(#clip4-50-8-3)"
       style="clip-rule:nonzero;stroke-width:1.2370317"
       transform="matrix(0.50424781,0,0,0.50295596,-441.79987,-123.79547)">
      <path
         id="path4967-1-5-1"
         transform="rotate(90)"
         d="m 18.425781,-102.83203 5.601563,0 c 1.902344,0 3.433594,1.52734 3.433594,3.429686 l 0,0.902344 c 0,1.902344 -1.53125,3.429688 -3.433594,3.429688 l -5.601563,0 c -1.898437,0 -3.429687,-1.527344 -3.429687,-3.429688 l 0,-0.902344 c 0,-1.902346 1.53125,-3.429686 3.429687,-3.429686 z m 0,0"
         style="fill:#000000;fill-opacity:1;stroke:#ffffff;stroke-width:1.40060449;stroke-linecap:butt;stroke-linejoin:miter;stroke-miterlimit:4;stroke-opacity:1"
         inkscape:connector-curvature="0" />
    </g>
    <path
       id="path4969-4-7-3"
       d="m -411.60212,-119.74432 -1.29017,-0.2613 c -0.91395,-0.18271 -1.50092,-1.06485 -1.31577,-1.97646 l 0.0473,-0.22594 c 0.18316,-0.91161 1.06759,-1.49511 1.97957,-1.3124 l 1.29213,0.26132 c 0.91395,0.18468 1.49895,1.06485 1.31577,1.97646 l -0.0473,0.22594 c -0.18515,0.9116 -1.06759,1.49708 -1.98154,1.3124 z m 0,0"
       style="fill:#000000;fill-opacity:1;fill-rule:nonzero;stroke:#ffffff;stroke-width:0.58757746;stroke-linecap:butt;stroke-linejoin:miter;stroke-miterlimit:4;stroke-opacity:1"
       inkscape:connector-curvature="0" />
    <path
       id="path4971-6-0-0"
       d="m -412.68153,-120.32193 -2.6926,2.77019 c -0.64804,0.66602 -1.70775,0.68174 -2.37745,0.0354 l -0.36243,-0.34971 c -0.66774,-0.64638 -0.68546,-1.70534 -0.0355,-2.37136 l 2.69063,-2.77019 c 0.65002,-0.66602 1.70972,-0.68371 2.37942,-0.0354 l 0.36046,0.34971 c 0.66971,0.64637 0.68547,1.70534 0.0374,2.37136 z m 0,0"
       style="fill:#000000;fill-opacity:1;fill-rule:nonzero;stroke:#ffffff;stroke-width:0.58757681;stroke-linecap:butt;stroke-linejoin:miter;stroke-miterlimit:4;stroke-opacity:1"
       inkscape:connector-curvature="0" />
    <path
       id="path4975-2-7-9"
       d="m -417.89931,-97.804828 1.81017,-6.640592 c 0.31518,-1.15325 1.49896,-1.82911 2.65518,-1.51476 1.15426,0.31238 1.83184,1.49315 1.51865,2.64641 l -1.81214,6.642559 c -0.31518,1.153255 -1.49895,1.827144 -2.65321,1.514761 -1.15622,-0.314371 -1.83381,-1.495115 -1.51865,-2.648377 z m 0,0"
       style="fill:#000000;fill-opacity:1;fill-rule:nonzero;stroke:#ffffff;stroke-width:0.62968087;stroke-linecap:butt;stroke-linejoin:miter;stroke-miterlimit:4;stroke-opacity:1"
       inkscape:connector-curvature="0" />
    <path
       id="path4977-99-9-2"
       d="m -426.23319,-113.82673 -4.21913,0.81143 c -0.92183,0.17878 -1.86926,-0.40472 -2.12532,-1.30454 l -0.1379,-0.4892 c -0.25606,-0.89982 0.2797,-1.7682 1.20153,-1.94502 l 4.21717,-0.81141 c 0.92183,-0.17878 1.87123,0.40472 2.12729,1.30454 l 0.1379,0.4892 c 0.25606,0.89982 -0.2797,1.7682 -1.20153,1.94503 z m 0,0"
       style="fill:#000000;fill-opacity:1;fill-rule:nonzero;stroke:#ffffff;stroke-width:0.58757722;stroke-linecap:butt;stroke-linejoin:miter;stroke-miterlimit:4;stroke-opacity:1"
       inkscape:connector-curvature="0" />
    <path
       id="path4981-7-1-7"
       d="m -437.77968,-107.8443 0,3.20831 c 0,0.92929 -0.75046,1.67783 -1.68213,1.67783 l -0.31122,0 c -0.93168,0 -1.68017,-0.74854 -1.68017,-1.67783 l 0,-3.20831 c 0,-0.92929 0.74849,-1.67587 1.68017,-1.67587 l 0.31122,0 c 0.93167,0 1.68213,0.74658 1.68213,1.67587 z m 0,0"
       style="fill:#000000;fill-opacity:1;fill-rule:nonzero;stroke:#ffffff;stroke-width:0.6296804;stroke-linecap:butt;stroke-linejoin:miter;stroke-miterlimit:4;stroke-opacity:1"
       inkscape:connector-curvature="0" />
    <path
       id="path4983-3-5-5"
       d="m -440.26152,-111.29623 5.07793,-3.75449 c 1.14046,-0.84482 2.50548,-0.92143 3.06094,-0.17682 l 0.35258,0.47742 c 0.55546,0.74657 0.0847,2.02557 -1.05773,2.87038 l -5.07597,3.75448 c -1.14244,0.84285 -2.50745,0.92144 -3.06095,0.17486 l -0.35455,-0.47544 c -0.55546,-0.74658 -0.0827,-2.02754 1.05773,-2.87039 z m 0,0"
       style="fill:#000000;fill-opacity:1;fill-rule:nonzero;stroke:#ffffff;stroke-width:0.62968051;stroke-linecap:butt;stroke-linejoin:miter;stroke-miterlimit:4;stroke-opacity:1"
       inkscape:connector-curvature="0" />
    <path
       id="path4985-2-4-0"
       d="m -431.77401,-99.402106 0,2.758399 c 0,0.92929 -0.75046,1.675865 -1.68213,1.675865 l -0.50425,0 c -0.93168,0 -1.68214,-0.746575 -1.68214,-1.675865 l 0,-2.758399 c 0,-0.929294 0.75046,-1.677834 1.68214,-1.677834 l 0.50425,0 c 0.93167,0 1.68213,0.74854 1.68213,1.677834 z m 0,0"
       style="fill:#000000;fill-opacity:1;fill-rule:nonzero;stroke:#ffffff;stroke-width:0.6296804;stroke-linecap:butt;stroke-linejoin:miter;stroke-miterlimit:4;stroke-opacity:1"
       inkscape:connector-curvature="0" />
    <path
       id="path4987-1-8-5"
       d="m -404.1881,-111.87384 c -0.0355,2.76429 -4.77657,4.97258 -10.59315,4.93132 -5.81658,-0.0412 -10.5045,-2.31831 -10.47102,-5.08457 0.0335,-2.76429 4.77657,-4.97258 10.59314,-4.93132 5.81658,0.0432 10.50451,2.31831 10.47103,5.08457 z m 0,0"
       style="fill:#e95d0f;fill-opacity:1;fill-rule:nonzero;stroke:#ffffff;stroke-width:0.44486016;stroke-linecap:butt;stroke-linejoin:miter;stroke-miterlimit:4;stroke-opacity:1"
       inkscape:connector-curvature="0" />
    <path
       id="path4989-2-9-9"
       d="m -410.77681,-106.45528 -0.0591,0.15718 c -0.32696,0.87035 -1.29214,1.30847 -2.16472,0.9843 l -0.47076,-0.17684 c -0.87456,-0.32416 -1.3138,-1.28686 -0.9888,-2.15721 l 0.0591,-0.15718 c 0.32695,-0.87035 1.29213,-1.30847 2.16472,-0.9843 l 0.47273,0.17682 c 0.87258,0.32418 1.31183,1.28686 0.98683,2.15721 z m 0,0"
       style="fill:#000000;fill-opacity:1;fill-rule:nonzero;stroke:#ffffff;stroke-width:0.58757722;stroke-linecap:butt;stroke-linejoin:miter;stroke-miterlimit:4;stroke-opacity:1"
       inkscape:connector-curvature="0" />
    <path
       id="path4991-1-5-1"
       d="m -397.08136,-118.96434 5.0602,1.98432 c 1.05774,0.41454 1.6329,1.44403 1.29214,2.30849 l -0.20682,0.52456 c -0.34076,0.86446 -1.46547,1.22792 -2.52124,0.81338 l -5.06218,-1.98432 c -1.05577,-0.41455 -1.63289,-1.44404 -1.29213,-2.30849 l 0.20682,-0.52653 c 0.34273,-0.86446 1.46744,-1.22596 2.52321,-0.81141 z m 0,0"
       style="fill:#233547;fill-opacity:1;fill-rule:nonzero;stroke:none;stroke-width:0.622971"
       inkscape:connector-curvature="0" />
    <g
       id="g4993-10-3-0"
       clip-path="url(#clip5-2-2-2)"
       style="clip-rule:nonzero;stroke-width:1.2370317"
       transform="matrix(0.50424781,0,0,0.50295596,-441.79987,-123.79547)">
      <path
         id="path4995-8-0-8"
         transform="matrix(1,0.393155,-0.393155,1,0,0)"
         d="m 80.08173,-21.879064 10.035136,-5.1e-5 c 2.097491,-4.21e-4 3.782415,1.384018 3.782375,3.102784 l -9.3e-5,1.043005 c -4e-5,1.718766 -1.68582,3.104195 -3.779928,3.103285 l -10.038519,0.0014 c -2.094108,-9.1e-4 -3.782415,-1.384019 -3.782375,-3.102784 l -0.0012,-1.046389 c 0.0034,-1.720096 1.690534,-3.102142 3.784641,-3.101232 z m 0,0"
         style="fill:#000000;fill-opacity:1;stroke:#ffffff;stroke-width:1.08584547;stroke-linecap:butt;stroke-linejoin:miter;stroke-miterlimit:4;stroke-opacity:1"
         inkscape:connector-curvature="0" />
    </g>
    <path
       id="path4997-86-0-4"
       d="m -403.61689,-118.60088 3.21064,-0.73086 c 1.19168,-0.27112 2.31639,0.23969 2.52518,1.14541 l 0.16546,0.723 c 0.20682,0.90571 -0.58501,1.85465 -1.77669,2.12577 l -3.21064,0.73086 c -1.19168,0.27112 -2.31639,-0.23969 -2.52321,-1.1454 l -0.16545,-0.723 c -0.20879,-0.90768 0.58303,-1.85465 1.77471,-2.12578 z m 0,0"
       style="fill:#000000;fill-opacity:1;fill-rule:nonzero;stroke:#ffffff;stroke-width:0.62968063;stroke-linecap:butt;stroke-linejoin:miter;stroke-miterlimit:4;stroke-opacity:1"
       inkscape:connector-curvature="0" />
    <path
       id="path4999-75-8-9"
       d="m -404.40477,-114.18037 c -0.0335,2.7643 -4.77657,4.97259 -10.59315,4.93133 -5.81657,-0.0413 -10.5045,-2.31831 -10.47102,-5.08261 0.0354,-2.76625 4.77657,-4.97454 10.59315,-4.93329 5.81657,0.0432 10.5045,2.31832 10.47102,5.08457 z m 0,0"
       style="fill:#e95d0f;fill-opacity:1;fill-rule:nonzero;stroke:#ffffff;stroke-width:0.44486016;stroke-linecap:butt;stroke-linejoin:miter;stroke-miterlimit:4;stroke-opacity:1"
       inkscape:connector-curvature="0" />
    <g
       id="g5001-4-1-9"
       clip-path="url(#clip6-9-9-1)"
       style="clip-rule:nonzero;stroke-width:1.2370317"
       transform="matrix(0.50424781,0,0,0.50295596,-441.79987,-123.79547)">
      <path
         id="path5003-7-8-4"
         d="m 106.08203,31.039062 0,7.957032 c 0,1.847656 -1.48437,3.335937 -3.33203,3.335937 l -0.61719,0 c -1.84765,0 -3.335935,-1.488281 -3.335935,-3.335937 l 0,-7.957032 c 0,-1.847656 1.488285,-3.335937 3.335935,-3.335937 l 0.61719,0 c 1.84766,0 3.33203,1.488281 3.33203,3.335937 z m 0,0"
         style="fill:#233547;fill-opacity:1;fill-rule:nonzero;stroke:none;stroke-width:1.2370317"
         inkscape:connector-curvature="0" />
    </g>
    <g
       id="g5005-43-5-0"
       clip-path="url(#clip7-91-2-6)"
       style="clip-rule:nonzero;stroke-width:1.2370317"
       transform="matrix(0.50424781,0,0,0.50295596,-441.79987,-123.79547)">
      <path
         id="path5007-7-5-0"
         transform="rotate(90)"
         d="m 31.039062,-106.08203 7.957032,0 c 1.847656,0 3.335937,1.48437 3.335937,3.33203 l 0,0.61719 c 0,1.84765 -1.488281,3.335935 -3.335937,3.335935 l -7.957032,0 c -1.847656,0 -3.335937,-1.488285 -3.335937,-3.335935 l 0,-0.61719 c 0,-1.84766 1.488281,-3.33203 3.335937,-3.33203 z m 0,0"
         style="fill:#000000;fill-opacity:1;stroke:#ffffff;stroke-width:1.16675091;stroke-linecap:butt;stroke-linejoin:miter;stroke-miterlimit:4;stroke-opacity:1"
         inkscape:connector-curvature="0" />
    </g>
    <path
       id="path5009-9-7-2"
       d="m -394.18588,-112.20194 4.25459,1.59728 c 0.84501,0.31827 1.29805,1.1788 1.01638,1.92734 l -0.24031,0.63459 c -0.28364,0.7505 -1.19168,1.09825 -2.03865,0.77997 l -4.2546,-1.59728 c -0.845,-0.31827 -1.29804,-1.17683 -1.01637,-1.92734 l 0.24031,-0.63459 c 0.28363,-0.7505 1.19167,-1.09825 2.03865,-0.77997 z m 0,0"
       style="fill:#233547;fill-opacity:1;fill-rule:nonzero;stroke:none;stroke-width:0.622971"
       inkscape:connector-curvature="0" />
    <g
       id="g5011-19-4-7"
       clip-path="url(#clip8-9-2-2)"
       style="clip-rule:nonzero;stroke-width:1.2370317"
       transform="matrix(0.50424781,0,0,0.50295596,-441.79987,-123.79547)">
      <path
         id="path5013-8-5-4"
         transform="matrix(1,0.376556,-0.376556,1,0,0)"
         d="m 90.301449,-10.952771 8.437035,-0.0012 c 1.676376,0.0016 3.027486,1.20373 3.029096,2.691409 l -10e-4,1.262198 c -5.3e-4,1.492388 -1.34966,2.691817 -3.029452,2.69154 l -8.437035,0.00124 c -1.67637,-0.00157 -3.026202,-1.200309 -3.029091,-2.691409 l 0.0013,-1.262198 c 5.33e-4,-1.492388 1.349662,-2.691817 3.029453,-2.69154 z m 0,0"
         style="fill:#000000;fill-opacity:1;stroke:#ffffff;stroke-width:1.09190309;stroke-linecap:butt;stroke-linejoin:miter;stroke-miterlimit:4;stroke-opacity:1"
         inkscape:connector-curvature="0" />
    </g>
    <path
       id="path5015-2-7-6"
       d="m -397.01045,-109.34138 -5.10945,0.3497 c -0.93365,0.0648 -1.79442,-0.62869 -1.92836,-1.55405 l -0.0827,-0.57958 c -0.13393,-0.92536 0.51212,-1.72302 1.44774,-1.78785 l 5.10945,-0.3497 c 0.93562,-0.0648 1.79638,0.62869 1.92835,1.55405 l 0.0847,0.58154 c 0.132,0.92536 -0.51409,1.72106 -1.44971,1.78589 z m 0,0"
       style="fill:#000000;fill-opacity:1;fill-rule:nonzero;stroke:#ffffff;stroke-width:0.58677691;stroke-linecap:butt;stroke-linejoin:miter;stroke-miterlimit:4;stroke-opacity:1"
       inkscape:connector-curvature="0" />
    <path
       id="path5017-38-2-1"
       d="m -411.00333,-112.45538 c 0,1.19255 -0.78001,2.1572 -1.74123,2.1572 -0.96122,0 -1.74123,-0.96465 -1.74123,-2.1572 0,-1.1906 0.78001,-2.15721 1.74123,-2.15721 0.96122,0 1.74123,0.96661 1.74123,2.15721 z m 0,0"
       style="fill:#000000;fill-opacity:1;fill-rule:nonzero;stroke:#ffffff;stroke-width:0.53283846;stroke-linecap:round;stroke-linejoin:round;stroke-miterlimit:4;stroke-opacity:1"
       inkscape:connector-curvature="0" />
    <path
       id="path5019-3-4-9"
       d="m -406.77237,-114.30218 c 0,1.1906 -0.78001,2.15525 -1.74321,2.15525 -0.96122,0 -1.74123,-0.96465 -1.74123,-2.15525 0,-1.19255 0.78001,-2.15721 1.74123,-2.15721 0.9632,0 1.74321,0.96466 1.74321,2.15721 z m 0,0"
       style="fill:#000000;fill-opacity:1;fill-rule:nonzero;stroke:#ffffff;stroke-width:0.53283846;stroke-linecap:round;stroke-linejoin:round;stroke-miterlimit:4;stroke-opacity:1"
       inkscape:connector-curvature="0" />
    <path
       id="path5021-8-3-3"
       d="m -434.69707,-102.99353 4.21323,-5.24567 c 0.81349,-1.01181 2.05245,-1.35955 2.78124,-0.77801 l 0.39197,0.31435 c 0.72683,0.58154 0.65789,1.86447 -0.1556,2.87628 l -4.21323,5.24567 c -0.81349,1.011809 -2.05245,1.359556 -2.77927,0.778013 l -0.39395,-0.314343 c -0.72682,-0.58155 -0.65788,-1.86251 0.15561,-2.87628 z m 0,0"
       style="fill:#000000;fill-opacity:1;fill-rule:nonzero;stroke:#ffffff;stroke-width:0.62968117;stroke-linecap:butt;stroke-linejoin:miter;stroke-miterlimit:4;stroke-opacity:1"
       inkscape:connector-curvature="0" />
    <path
       id="path5023-6-3-6"
       d="m -424.74999,-108.10167 -0.52394,0.3674 c -0.76228,0.53636 -1.80623,0.35561 -2.34396,-0.40472 l -0.28955,-0.41062 c -0.53576,-0.76032 -0.35455,-1.8016 0.40576,-2.33795 l 0.52394,-0.36741 c 0.76228,-0.53636 1.8082,-0.35561 2.34396,0.40472 l 0.28955,0.41062 c 0.53773,0.76033 0.35652,1.8016 -0.40576,2.33796 z m 0,0"
       style="fill:#000000;fill-opacity:1;fill-rule:nonzero;stroke:#ffffff;stroke-width:0.6296804;stroke-linecap:butt;stroke-linejoin:miter;stroke-miterlimit:4;stroke-opacity:1"
       inkscape:connector-curvature="0" />
    <path
       d="m -526.19693,-84.854237 c 1.38494,0.829881 1.8358,2.62347 1.00502,4.011996 -0.83078,1.383138 -2.62527,1.833107 -4.01021,1.000535 -1.38403,-0.82809 -1.8331,-2.62527 -1.00591,-4.009308 0.83078,-1.383141 2.62707,-1.831308 4.0111,-1.003223"
       style="fill:#e95d0f;fill-opacity:1;fill-rule:nonzero;stroke:none;stroke-width:0.31423119"
       id="path2881-6"
       inkscape:connector-curvature="0"
       inkscape:export-xdpi="95.929977"
       inkscape:export-ydpi="95.929977" />
    <path
       d="m -532.56926,-97.687852 c 0.94215,1.310389 0.64038,3.13721 -0.67271,4.078465 -1.31398,0.940353 -3.13721,0.640371 -4.07756,-0.675405 -0.94215,-1.308595 -0.64038,-3.135415 0.67181,-4.074869 1.30769,-0.942152 3.13721,-0.641276 4.07846,0.671809"
       style="fill:#e95d0f;fill-opacity:1;fill-rule:nonzero;stroke:none;stroke-width:0.31423119"
       id="path2883-4"
       inkscape:connector-curvature="0"
       inkscape:export-xdpi="95.929977"
       inkscape:export-ydpi="95.929977" />
    <path
       d="m -525.53689,-105.35953 c 0.94215,1.31039 0.64038,3.13721 -0.67271,4.07847 -1.31398,0.94035 -3.13721,0.64037 -4.07756,-0.6754 -0.94215,-1.3086 -0.64038,-3.13542 0.67181,-4.07488 1.30769,-0.94215 3.13721,-0.64127 4.07846,0.67181"
       style="fill:#e95d0f;fill-opacity:1;fill-rule:nonzero;stroke:none;stroke-width:0.31423119"
       id="path2883-8"
       inkscape:connector-curvature="0"
       inkscape:export-xdpi="95.929977"
       inkscape:export-ydpi="95.929977" />
    <path
       d="m -518.82158,-110.95355 c 0.66283,1.00772 0.3889,2.36391 -0.62061,3.02854 -1.00682,0.66462 -2.36122,0.38709 -3.02585,-0.61973 -0.66372,-1.00771 -0.38979,-2.36121 0.61882,-3.02763 1.00502,-0.66373 2.35942,-0.3871 3.02764,0.61882"
       style="fill:#e95d0f;fill-opacity:1;fill-rule:nonzero;stroke:none;stroke-width:0.31423119"
       id="path2929-4"
       inkscape:connector-curvature="0"
       inkscape:export-xdpi="95.929977"
       inkscape:export-ydpi="95.929977" />
    <path
       d="m -502.2576,-117.78796 c 0.66284,1.00772 0.3889,2.36391 -0.62061,3.02854 -1.00682,0.66462 -2.36121,0.38709 -3.02584,-0.61973 -0.66372,-1.00771 -0.38979,-2.36121 0.61882,-3.02763 1.00502,-0.66373 2.35942,-0.3871 3.02763,0.61882"
       style="fill:#e95d0f;fill-opacity:1;fill-rule:nonzero;stroke:none;stroke-width:0.31423119"
       id="path2929-2"
       inkscape:connector-curvature="0"
       inkscape:export-xdpi="95.929977"
       inkscape:export-ydpi="95.929977" />
    <path
       d="m -491.99213,-120.63142 c 0.66283,1.00772 0.3889,2.36391 -0.62061,3.02854 -1.00682,0.66462 -2.36123,0.3871 -3.02585,-0.61972 -0.66372,-1.00771 -0.38979,-2.36122 0.61882,-3.02764 1.00502,-0.66372 2.35942,-0.38709 3.02764,0.61882"
       style="fill:#e95d0f;fill-opacity:1;fill-rule:nonzero;stroke:none;stroke-width:0.31423119"
       id="path2929-3"
       inkscape:connector-curvature="0"
       inkscape:export-xdpi="95.929977"
       inkscape:export-ydpi="95.929977" />
    <path
       d="m -482.53877,-122.74831 c 0.53708,0.81731 0.31794,1.90945 -0.49488,2.45103 -0.81552,0.53978 -1.91484,0.31794 -2.45283,-0.49667 -0.53888,-0.81552 -0.31794,-1.91035 0.49488,-2.45103 0.8191,-0.53799 1.91125,-0.31615 2.45283,0.49667"
       style="fill:#e95d0f;fill-opacity:1;fill-rule:nonzero;stroke:none;stroke-width:0.31423119"
       id="path3037-0-8"
       inkscape:connector-curvature="0"
       inkscape:export-xdpi="95.929977"
       inkscape:export-ydpi="95.929977" />
    <path
       d="m -473.37539,-124.24003 c 0.53709,0.81731 0.31795,1.90945 -0.49487,2.45103 -0.81552,0.53979 -1.91484,0.31795 -2.45283,-0.49667 -0.53888,-0.81551 -0.31794,-1.91035 0.49488,-2.45103 0.8191,-0.53799 1.91125,-0.31614 2.45282,0.49667"
       style="fill:#e95d0f;fill-opacity:1;fill-rule:nonzero;stroke:none;stroke-width:0.31423119"
       id="path3037-0-5"
       inkscape:connector-curvature="0"
       inkscape:export-xdpi="95.929977"
       inkscape:export-ydpi="95.929977" />
    <path
       d="m -465.84595,-124.85674 c 0.40763,0.62031 0.24131,1.44919 -0.37559,1.86022 -0.61893,0.40967 -1.45327,0.24131 -1.86158,-0.37695 -0.40899,-0.61894 -0.2413,-1.44986 0.37559,-1.86022 0.62166,-0.4083 1.45055,-0.23994 1.86158,0.37695"
       style="fill:#e95d0f;fill-opacity:1;fill-rule:nonzero;stroke:none;stroke-width:0.23848674"
       id="path3037-0-9"
       inkscape:connector-curvature="0"
       inkscape:export-xdpi="95.929977"
       inkscape:export-ydpi="95.929977" />
    <path
       id="path3165-1-9"
       style="fill:#e95d0f;fill-opacity:1;fill-rule:nonzero;stroke:none;stroke-width:0.31423119"
       d="m -452.79924,-124.51017 c 0.3377,0.52541 0.18321,1.22776 -0.34579,1.56277 -0.529,0.3377 -1.22956,0.18142 -1.56007,-0.34399 -0.33771,-0.52721 -0.18502,-1.22776 0.34039,-1.56457 0.52811,-0.3377 1.22776,-0.18052 1.56547,0.34579"
       inkscape:connector-curvature="0"
       inkscape:export-xdpi="95.929977"
       inkscape:export-ydpi="95.929977" />
    <path
       id="path3165-1-6"
       style="fill:#e95d0f;fill-opacity:1;fill-rule:nonzero;stroke:none;stroke-width:0.31423119"
       d="m -446.19308,-124.29707 c 0.3377,0.52541 0.18322,1.22776 -0.34578,1.56277 -0.52901,0.3377 -1.22956,0.18142 -1.56008,-0.34399 -0.3377,-0.52721 -0.18502,-1.22776 0.3404,-1.56457 0.5281,-0.3377 1.22776,-0.18052 1.56546,0.34579"
       inkscape:connector-curvature="0"
       inkscape:export-xdpi="95.929977"
       inkscape:export-ydpi="95.929977" />
    <path
       id="path3165-1-4"
       style="fill:#e95d0f;fill-opacity:1;fill-rule:nonzero;stroke:none;stroke-width:0.31423119"
       d="m -432.76765,-121.73984 c 0.3377,0.52541 0.18322,1.22776 -0.34579,1.56277 -0.529,0.3377 -1.22955,0.18142 -1.56007,-0.34399 -0.3377,-0.52721 -0.18502,-1.22776 0.3404,-1.56457 0.5281,-0.3377 1.22776,-0.18052 1.56546,0.34579"
       inkscape:connector-curvature="0"
       inkscape:export-xdpi="95.929977"
       inkscape:export-ydpi="95.929977" />
    <path
       id="path3165-1-2"
       style="fill:#e95d0f;fill-opacity:1;fill-rule:nonzero;stroke:none;stroke-width:0.31423119"
       d="m -425.52218,-120.46123 c 0.3377,0.52541 0.18322,1.22776 -0.34578,1.56277 -0.52901,0.3377 -1.22956,0.18142 -1.56008,-0.34399 -0.3377,-0.52721 -0.18501,-1.22776 0.3404,-1.56457 0.52811,-0.3377 1.22776,-0.18052 1.56546,0.34579"
       inkscape:connector-curvature="0"
       inkscape:export-xdpi="95.929977"
       inkscape:export-ydpi="95.929977" />
    <path
       d="m -533.42884,-88.840524 c 0.94215,1.310389 0.64038,3.13721 -0.67271,4.078465 -1.31399,0.940353 -3.13721,0.640371 -4.07757,-0.675405 -0.94215,-1.308595 -0.64037,-3.135415 0.67181,-4.074869 1.3077,-0.942152 3.13722,-0.641276 4.07847,0.671809"
       style="fill:#e95d0f;fill-opacity:1;fill-rule:nonzero;stroke:none;stroke-width:0.31423119"
       id="path2883-4-7"
       inkscape:connector-curvature="0"
       inkscape:export-xdpi="95.929977"
       inkscape:export-ydpi="95.929977" />
    <path
       d="m -511.46939,-114.27614 c 0.66283,1.00771 0.3889,2.36391 -0.62061,3.02853 -1.00682,0.66463 -2.36122,0.3871 -3.02584,-0.61972 -0.66373,-1.00771 -0.38979,-2.36121 0.61881,-3.02763 1.00503,-0.66373 2.35942,-0.3871 3.02764,0.61882"
       style="fill:#e95d0f;fill-opacity:1;fill-rule:nonzero;stroke:none;stroke-width:0.31423119"
       id="path2929-4-7"
       inkscape:connector-curvature="0"
       inkscape:export-xdpi="95.929977"
       inkscape:export-ydpi="95.929977" />
    <path
       d="m -458.96093,-125.27255 c 0.40763,0.62031 0.24131,1.44919 -0.37558,1.86022 -0.61894,0.40967 -1.45328,0.2413 -1.86158,-0.37695 -0.40899,-0.61894 -0.24131,-1.44987 0.37559,-1.86022 0.62166,-0.40831 1.45054,-0.23994 1.86157,0.37695"
       style="fill:#e95d0f;fill-opacity:1;fill-rule:nonzero;stroke:none;stroke-width:0.23848674"
       id="path3037-0-9-7"
       inkscape:connector-curvature="0"
       inkscape:export-xdpi="95.929977"
       inkscape:export-ydpi="95.929977" />
    <path
       id="path3165-1-6-9"
       style="fill:#e95d0f;fill-opacity:1;fill-rule:nonzero;stroke:none;stroke-width:0.31423119"
       d="m -438.45563,-123.00806 c 0.3377,0.52541 0.18322,1.22776 -0.34578,1.56277 -0.52901,0.3377 -1.22956,0.18142 -1.56008,-0.34399 -0.3377,-0.52721 -0.18501,-1.22776 0.3404,-1.56457 0.52811,-0.3377 1.22776,-0.18052 1.56546,0.34579"
       inkscape:connector-curvature="0"
       inkscape:export-xdpi="95.929977"
       inkscape:export-ydpi="95.929977" />
    <rect
       style="opacity:1;fill:#e95d0f;fill-opacity:1;stroke:none;stroke-width:2.606565;stroke-linecap:round;stroke-linejoin:miter;stroke-miterlimit:4;stroke-dasharray:2.60656503, 10.4262601;stroke-dashoffset:0;stroke-opacity:1"
       id="rect8507"
       width="3.1965315"
       height="3.1023526"
       x="-414.79559"
       y="-77.340698"
       inkscape:export-xdpi="95.929977"
       inkscape:export-ydpi="95.929977" />
  </g>
</svg>
