<?xml version="1.0" encoding="UTF-8" standalone="no"?>
<!-- Created with Inkscape (http://www.inkscape.org/) -->

<svg
   xmlns:dc="http://purl.org/dc/elements/1.1/"
   xmlns:cc="http://creativecommons.org/ns#"
   xmlns:rdf="http://www.w3.org/1999/02/22-rdf-syntax-ns#"
   xmlns:svg="http://www.w3.org/2000/svg"
   xmlns="http://www.w3.org/2000/svg"
   xmlns:xlink="http://www.w3.org/1999/xlink"
   xmlns:sodipodi="http://sodipodi.sourceforge.net/DTD/sodipodi-0.dtd"
   xmlns:inkscape="http://www.inkscape.org/namespaces/inkscape"
   width="125.49532mm"
   height="124mm"
   viewBox="0 0 125.49532 124"
   id="svg5771"
   version="1.1"
   inkscape:version="0.91+devel+osxmenu r12922"
   sodipodi:docname="resibots_avatar.svg">
  <defs
     id="defs5773">
    <clipPath
       id="clip1-86-9-3-9">
      <path
         inkscape:connector-curvature="0"
         d="m 69,37 37.55469,0 0,7 L 69,44 Z m 0,0"
         id="path4919-2-5-3-3" />
    </clipPath>
    <clipPath
       id="clip2-70-1-7-7">
      <path
         inkscape:connector-curvature="0"
         d="m 47,55 9,0 0,11.625 -9,0 z m 0,0"
         id="path4922-3-3-7-0" />
    </clipPath>
    <clipPath
       id="clip3-3-2-6-4">
      <path
         inkscape:connector-curvature="0"
         d="m 41,49 20,0 0,17.625 -20,0 z m 0,0"
         id="path4925-3-4-1-2" />
    </clipPath>
    <clipPath
       id="clip4-50-8-3-4">
      <path
         inkscape:connector-curvature="0"
         d="m 88,8 18.55469,0 0,26 L 88,34 Z m 0,0"
         id="path4928-9-9-4-2" />
    </clipPath>
    <clipPath
       id="clip5-2-2-2-1">
      <path
         inkscape:connector-curvature="0"
         d="m 77,3 29.55469,0 0,24 L 77,27 Z m 0,0"
         id="path4931-7-7-8-0" />
    </clipPath>
    <clipPath
       id="clip6-9-9-1-9">
      <path
         inkscape:connector-curvature="0"
         d="m 98,27 8.55469,0 0,16 L 98,43 Z m 0,0"
         id="path4934-8-3-2-3" />
    </clipPath>
    <clipPath
       id="clip7-91-2-6-6">
      <path
         inkscape:connector-curvature="0"
         d="m 93,22 13.55469,0 0,26 L 93,48 Z m 0,0"
         id="path4937-5-7-2-2" />
    </clipPath>
    <clipPath
       id="clip8-9-2-2-3">
      <path
         inkscape:connector-curvature="0"
         d="m 84,17 22.55469,0 0,22 L 84,39 Z m 0,0"
         id="path4940-04-3-9-1" />
    </clipPath>
    <linearGradient
       inkscape:collect="always"
       xlink:href="#linearGradient3884"
       id="linearGradient4548"
       gradientUnits="userSpaceOnUse"
       gradientTransform="matrix(1,0,0,2.5857101,0,-667.43863)"
       x1="222.07758"
       y1="327.76874"
       x2="366.26282"
       y2="327.76874" />
    <linearGradient
       inkscape:collect="always"
       id="linearGradient3884">
      <stop
         style="stop-color:#e95d0f;stop-opacity:1;"
         offset="0"
         id="stop3886" />
      <stop
         id="stop3894"
         offset="0.80568159"
         style="stop-color:#e95d0f;stop-opacity:0.09803922;" />
      <stop
         style="stop-color:#e95d0f;stop-opacity:0;"
         offset="1"
         id="stop3888" />
    </linearGradient>
    <clipPath
       clipPathUnits="userSpaceOnUse"
       id="clipPath3896">
      <path
         id="path3898"
         d="m 298.14566,391.11109 c -1.70647,1.11521 -2.1865,3.40122 -1.07715,5.10769 1.10642,1.71232 3.38951,2.18942 5.10768,1.083 1.70646,-1.12105 2.1865,-3.40122 1.07715,-5.10768 -1.10935,-1.71232 -3.40415,-2.19235 -5.10768,-1.08301 m 26.25847,-15.63331 c 1.45181,-1.4284 1.46352,-3.7671 0.0234,-5.22184 -1.42255,-1.44889 -3.7554,-1.46352 -5.21306,-0.0381 -1.45181,1.43425 -1.4606,3.77881 -0.038,5.2277 1.42839,1.44596 3.77295,1.46644 5.22769,0.0322 M 341.22,350.77645 c 1.16204,-1.68305 0.72005,-3.97785 -0.97178,-5.1311 -1.67719,-1.15326 -3.97199,-0.71713 -5.12232,0.95714 -1.15618,1.69476 -0.72005,3.98955 0.95422,5.13695 1.68597,1.15033 3.99541,0.72591 5.13988,-0.96299 m 10.51393,-34.69128 c -1.88502,-0.77859 -4.04517,0.12001 -4.81498,1.99917 -0.77567,1.89672 0.11708,4.05103 2.00209,4.82084 1.88794,0.77859 4.04224,-0.11708 4.82376,-2.00503 0.77567,-1.87915 -0.12293,-4.03638 -2.01087,-4.81498 m 0.70541,-27.23024 c -0.39222,2.00502 0.92495,3.93686 2.92997,4.31738 2.0021,0.38344 3.93394,-0.92787 4.31738,-2.9329 0.39223,-1.99916 -0.92494,-3.93394 -2.92996,-4.31445 -1.99624,-0.3893 -3.93394,0.92202 -4.31739,2.92997 m 3.01778,-34.84056 c -2.03722,0.038 -3.65587,1.72696 -3.60904,3.7671 0.0322,2.04308 1.72988,3.65295 3.7671,3.62075 2.03137,-0.0468 3.64417,-1.73281 3.6149,-3.77295 -0.0439,-2.03722 -1.74159,-3.6588 -3.77296,-3.6149 m -9.16456,-21.89133 c 0.39808,1.99917 2.33871,3.29 4.34373,2.89192 1.99624,-0.40101 3.29877,-2.35041 2.88899,-4.34958 -0.39515,-2.00502 -2.34749,-3.28999 -4.35251,-2.89192 -1.99039,0.40101 -3.29292,2.34456 -2.88021,4.34958 m -5.33892,-22.46503 c 1.88501,-0.74932 2.81289,-2.89776 2.05771,-4.79156 -0.75225,-1.89672 -2.9007,-2.81581 -4.79449,-2.06942 -1.88501,0.75225 -2.80996,2.9007 -2.06942,4.79742 0.7581,1.8938 2.90655,2.81581 4.8062,2.06356 m -16.53777,-26.46043 c 1.70353,-1.12691 2.16601,-3.42171 1.04495,-5.11354 -1.12398,-1.70647 -3.42171,-2.17186 -5.11939,-1.04788 -1.69476,1.12691 -2.16308,3.41878 -1.03617,5.11646 1.12691,1.70354 3.41,2.16309 5.11061,1.04496 m -24.78032,-26.08285 c -1.46059,1.41961 -1.48986,3.76124 -0.0615,5.21305 1.43132,1.46645 3.77003,1.48987 5.21891,0.0673 1.45767,-1.42547 1.48401,-3.7671 0.0615,-5.22477 -1.42254,-1.46352 -3.75539,-1.48401 -5.21891,-0.0556 m -4.21201,256.15401 c -1.36107,0.88982 -1.7533,2.728 -0.84884,4.092 0.89275,1.36401 2.72507,1.74452 4.08029,0.84885 1.38449,-0.88982 1.7533,-2.72508 0.8547,-4.08322 -0.88397,-1.36693 -2.71922,-1.74745 -4.08615,-0.85763 m 25.31597,-20.56538 c -1.16789,1.14155 -1.16789,3.009 -0.0234,4.17396 1.13862,1.15911 3.0207,1.17374 4.17981,0.0322 1.16204,-1.14155 1.16789,-3.01485 0.0293,-4.17981 -1.14447,-1.15911 -3.0207,-1.17375 -4.18566,-0.0264 m 17.97495,-21.14493 c -0.94837,1.32595 -0.64103,3.16706 0.67614,4.11834 1.32302,0.95422 3.18169,0.65273 4.1242,-0.66736 0.95422,-1.32302 0.65858,-3.17291 -0.67615,-4.12127 -1.32887,-0.95422 -3.15827,-0.64395 -4.12419,0.67029 m 20.57708,-30.83051 c -1.49571,-0.65858 -3.2373,0.0146 -3.90174,1.49572 -0.65858,1.49572 0.0234,3.24023 1.51328,3.89589 1.48401,0.67322 3.2256,-0.009 3.88418,-1.49279 0.67029,-1.49572 -0.006,-3.23438 -1.49572,-3.89882 m 10.49344,-35.85623 c -1.59816,-0.31612 -3.15535,0.72883 -3.47732,2.33285 -0.30734,1.59231 0.74054,3.14071 2.3387,3.46268 1.59524,0.3132 3.15242,-0.7259 3.46562,-2.32992 0.32197,-1.60109 -0.73176,-3.14949 -2.327,-3.46561 m 2.4031,-33.94196 c -1.63329,0.0146 -2.93289,1.34937 -2.92997,2.98266 0.0234,1.63036 1.364,2.94753 2.99144,2.92411 1.63621,-0.0176 2.94753,-1.35522 2.92704,-2.98265 -0.0117,-1.63329 -1.35815,-2.94168 -2.98851,-2.92412 m -3.05583,-26.94925 c 1.59524,-0.34246 2.61677,-1.89672 2.27724,-3.49781 -0.3249,-1.59524 -1.9055,-2.61677 -3.50074,-2.27724 -1.60109,0.33368 -2.61092,1.89672 -2.27138,3.49781 0.33075,1.59524 1.89086,2.61678 3.49488,2.27724 m -10.90615,-34.92836 c -1.50742,0.62638 -2.21577,2.35041 -1.59524,3.85784 0.61761,1.51913 2.34164,2.22747 3.85492,1.60694 1.50742,-0.62639 2.22162,-2.35627 1.60109,-3.85491 -0.61761,-1.51328 -2.34749,-2.22455 -3.86077,-1.60987 m -12.48382,-23.2846 c 1.34936,-0.89568 1.71817,-2.73386 0.82542,-4.08908 -0.8986,-1.364 -2.73385,-1.73573 -4.09785,-0.8342 -1.36693,0.90738 -1.72988,2.73678 -0.82543,4.09785 0.89275,1.36108 2.72508,1.73281 4.09786,0.82543 m -19.27749,-24.6047 c 1.16497,-1.13569 1.18838,-3.00607 0.0556,-4.17396 -1.14447,-1.17081 -3.02071,-1.1913 -4.18567,-0.0556 -1.17081,1.14155 -1.18838,3.00607 -0.0498,4.17689 1.13862,1.16788 3.009,1.19423 4.17981,0.0527 m -24.07782,-20.98687 c 0.93958,-1.33766 0.60004,-3.17877 -0.74054,-4.10956 -1.34059,-0.92788 -3.16999,-0.60005 -4.10664,0.74639 -0.93958,1.34058 -0.60297,3.17877 0.74639,4.10956 1.34059,0.92788 3.16999,0.59712 4.10079,-0.74639 m -26.82632,245.37958 c -2.67239,1.70939 -3.45391,5.27745 -1.74159,7.97326 1.71232,2.66653 5.28038,3.45098 7.95862,1.74451 2.67824,-1.71817 3.47147,-5.28038 1.74744,-7.96154 -1.70939,-2.68117 -5.28623,-3.47147 -7.96447,-1.75623 m 20.48635,-16.34166 c -2.27724,2.22162 -2.327,5.86871 -0.11708,8.16059 2.21577,2.27138 5.87164,2.32699 8.15473,0.12001 2.28309,-2.22163 2.3387,-5.86579 0.11708,-8.15474 -2.21577,-2.28894 -5.85993,-2.34456 -8.15473,-0.12586 m 26.79412,-14.29859 c 1.77671,-2.64019 1.07422,-6.22581 -1.56011,-8.00252 -2.64605,-1.79135 -6.22289,-1.08008 -7.9996,1.56011 -1.7855,2.63433 -1.08301,6.21118 1.56304,8.00252 2.63433,1.77086 6.21118,1.0713 7.99667,-1.56011 m 9.67972,-31.1437 c -2.92411,-1.2557 -6.31948,0.10245 -7.56347,3.03534 -1.23814,2.92704 0.11123,6.31363 3.04705,7.5664 2.92411,1.24692 6.30191,-0.11123 7.55761,-3.03534 1.244,-2.92997 -0.10537,-6.31655 -3.04119,-7.5664 m 4.47544,-14.49177 c 3.10852,0.65273 6.16728,-1.34351 6.82586,-4.4491 0.64688,-3.12023 -1.34058,-6.17606 -4.46081,-6.83171 -3.12022,-0.65273 -6.16727,1.33765 -6.82586,4.45495 -0.65272,3.11437 1.33473,6.16142 4.46081,6.82586 m 3.94565,-40.33168 c -3.18754,0.0146 -5.75456,2.61677 -5.71943,5.80139 0.009,3.18169 2.61092,5.74285 5.79846,5.72236 3.18462,-0.0263 5.74578,-2.6197 5.737,-5.80432 -0.0293,-3.18461 -2.63434,-5.73699 -5.81603,-5.71943 m -1.75329,-15.51038 c 3.10266,-0.66151 5.10183,-3.70856 4.4608,-6.82293 -0.65273,-3.1173 -3.71734,-5.11354 -6.83756,-4.46081 -3.10852,0.65273 -5.10768,3.70563 -4.46081,6.81707 0.66151,3.12023 3.71149,5.10476 6.83757,4.46667 m -14.13468,-27.76005 c 1.21472,2.94753 4.59253,4.33788 7.54298,3.10852 2.92412,-1.22058 4.32031,-4.58667 3.10852,-7.52542 -1.23814,-2.93875 -4.60423,-4.33202 -7.54006,-3.11144 -2.95045,1.2235 -4.32909,4.60423 -3.11144,7.52834 m -2.71336,-18.46962 c 2.67238,-1.71524 3.4539,-5.27452 1.75622,-7.95569 -1.72403,-2.67532 -5.29501,-3.45976 -7.97911,-1.74159 -2.6841,1.71817 -3.45976,5.28623 -1.74159,7.95862 1.71817,2.68117 5.28038,3.46269 7.96448,1.73866 m -17.02074,-23.03287 c 2.24797,-2.24211 2.26553,-5.88335 0.0263,-8.15181 -2.24211,-2.25967 -5.8892,-2.27138 -8.16058,-0.0263 -2.25968,2.23918 -2.26553,5.88628 -0.0322,8.13717 2.24211,2.26846 5.8892,2.28602 8.16644,0.041 m -28.15227,-16.42362 c 2.63434,1.77671 6.21704,1.07715 8.00253,-1.57182 1.75915,-2.64605 1.06544,-6.22289 -1.57182,-7.99375 -2.65775,-1.77086 -6.23459,-1.07129 -8.00545,1.57182 -1.77379,2.64605 -1.0713,6.22582 1.57474,7.99375 m -2.0138,194.58666 c -2.82459,1.82355 -3.61197,5.5848 -1.79135,8.39768 1.80891,2.80118 5.57016,3.60904 8.38597,1.78842 2.80996,-1.82062 3.61197,-5.57015 1.79428,-8.38889 -1.83233,-2.80703 -5.57601,-3.6149 -8.3889,-1.79721 m 23.6417,-6.40143 c 2.40895,-2.32992 2.47042,-6.17605 0.14342,-8.58501 -2.33285,-2.40895 -6.15556,-2.47627 -8.56159,-0.1522 -2.42651,2.32699 -2.49383,6.17019 -0.16684,8.57915 2.327,2.40895 6.17313,2.47627 8.58501,0.15806 m 14.35713,-21.03663 c 1.87623,-2.75728 1.15618,-6.53608 -1.6128,-8.41817 -2.77191,-1.87916 -6.53901,-1.15911 -8.42109,1.60987 -1.89087,2.77191 -1.16496,6.54486 1.60694,8.42695 2.76898,1.87916 6.53608,1.15618 8.42695,-1.61865 m 1.03324,-18.00715 c 3.07047,1.32887 6.64146,-0.0849 7.97619,-3.15535 1.33473,-3.07047 -0.0673,-6.64731 -3.1495,-7.97911 -3.06754,-1.33766 -6.65023,0.0732 -7.9674,3.14364 -1.34058,3.07339 0.0732,6.64438 3.14071,7.99082 m 12.88776,-25.45354 c 0.74054,-3.26072 -1.29668,-6.51266 -4.56033,-7.25906 -3.2695,-0.74347 -6.51852,1.2879 -7.26198,4.56033 -0.75225,3.26658 1.29082,6.51852 4.56032,7.26491 3.26658,0.7464 6.51267,-1.2996 7.26199,-4.56618 m -5.60821,-32.91456 c -3.34561,-0.0234 -6.09117,2.67824 -6.1058,6.01799 -0.0293,3.35439 2.66653,6.09117 6.02092,6.11459 3.35438,0.0234 6.08239,-2.66946 6.11166,-6.02385 0.0146,-3.34853 -2.67532,-6.08239 -6.02678,-6.10873 m -3.62953,-11.48278 c 3.28707,-0.65565 5.41503,-3.84905 4.75644,-7.13905 -0.65858,-3.27535 -3.85198,-5.40916 -7.13319,-4.75643 -3.28707,0.65858 -5.41795,3.85198 -4.7623,7.13612 0.64981,3.28706 3.85199,5.41502 7.13905,4.75936 m -15.4255,-24.17442 c 1.26156,3.09974 4.80035,4.59253 7.89716,3.32512 3.10851,-1.26155 4.60423,-4.79742 3.32511,-7.90593 -1.2557,-3.09974 -4.78863,-4.59838 -7.89715,-3.32512 -3.10266,1.25863 -4.59252,4.80035 -3.32512,7.90593 m -3.85198,-16.3358 c 2.79825,-1.83818 3.57391,-5.59943 1.7211,-8.39768 -1.83818,-2.7924 -5.61114,-3.57099 -8.40061,-1.72695 -2.78946,1.84403 -3.57098,5.61113 -1.72402,8.40353 1.84111,2.79825 5.60235,3.57391 8.40353,1.7211 m -15.48111,-17.09099 c 2.38846,-2.35334 2.40017,-6.19361 0.0468,-8.5733 -2.35627,-2.37675 -6.19654,-2.4031 -8.56745,-0.0498 -2.38846,2.36505 -2.40017,6.19655 -0.0498,8.58208 2.3592,2.38261 6.18777,2.4031 8.57038,0.041 m -27.21269,164.53768 c -3.31926,2.11625 -4.27933,6.51852 -2.16016,9.83193 2.12211,3.31633 6.52438,4.28518 9.84071,2.166 3.31048,-2.1221 4.27348,-6.52729 2.1543,-9.8407 -2.11625,-3.30756 -6.51266,-4.27641 -9.83485,-2.15723 m 24.28857,-1.53962 c 2.80118,-2.76898 2.83045,-7.27662 0.0556,-10.07195 -2.76605,-2.79825 -7.27662,-2.82459 -10.06609,-0.0556 -2.80411,2.76898 -2.81874,7.27077 -0.0527,10.07194 2.75727,2.7924 7.26784,2.81581 10.06316,0.0556 m 13.08094,-15.5982 c 2.23334,-3.24901 1.39035,-7.67762 -1.85281,-9.89925 -3.24023,-2.22162 -7.67177,-1.39327 -9.8934,1.85575 -2.22747,3.24023 -1.40205,7.67177 1.84111,9.89632 3.26072,2.21869 7.68055,1.3962 9.9051,-1.85282 m 1.37864,-15.74454 c 3.64124,1.50157 7.79763,-0.22831 9.30506,-3.86662 1.48986,-3.63539 -0.24002,-7.79764 -3.87247,-9.29628 -3.64417,-1.49865 -7.80349,0.23124 -9.29336,3.86369 -1.51913,3.63831 0.21661,7.80349 3.86077,9.29921 m 15.2089,-22.94799 c 0.79908,-3.84906 -1.66841,-7.61616 -5.52625,-8.41817 -3.85491,-0.79908 -7.62201,1.66841 -8.41524,5.51747 -0.80201,3.86662 1.66841,7.62786 5.52625,8.42695 3.84906,0.80201 7.61616,-1.66842 8.41524,-5.52625 m 2.28894,-20.93712 c 0.0234,-3.93394 -3.14364,-7.1449 -7.08343,-7.17125 -3.92224,-0.0351 -7.13613,3.13194 -7.1654,7.06002 -0.0263,3.93395 3.13194,7.14198 7.05417,7.17711 3.9515,0.0322 7.15076,-3.13486 7.19466,-7.06588 m -16.58753,-19.70776 c 0.88689,3.8315 4.71253,6.21704 8.54988,5.32722 3.82272,-0.89568 6.2024,-4.71839 5.31258,-8.54696 -0.88689,-3.83149 -4.6979,-6.21118 -8.53818,-5.32428 -3.82856,0.88689 -6.22288,4.72131 -5.32428,8.54402 m -1.41669,-27.21854 c -3.60611,1.56011 -5.28038,5.73993 -3.71148,9.34897 1.55718,3.61782 5.74285,5.27745 9.35774,3.72319 3.60611,-1.55718 5.27453,-5.74285 3.71734,-9.36067 -1.55718,-3.61489 -5.74285,-5.26867 -9.3636,-3.71149 m -11.61449,-5.57601 c 2.13674,3.29878 6.55071,4.23543 9.84071,2.09869 3.29584,-2.14845 4.24128,-6.55657 2.10161,-9.85242 -2.14259,-3.30462 -6.56242,-4.2442 -9.84363,-2.09576 -3.31049,2.14552 -4.24714,6.55072 -2.09869,9.84949 m -1.71232,-14.20199 c 2.78362,-2.79825 2.77191,-7.29711 -0.0176,-10.06902 -2.78362,-2.77776 -7.30004,-2.76605 -10.06902,0.0205 -2.7719,2.78361 -2.76605,7.29711 0.0176,10.07194 2.79533,2.77191 7.3059,2.7602 10.06902,-0.0234 M 257.1143,199.2846 c 3.25486,2.20406 7.6864,1.3318 9.87875,-1.926 2.20406,-3.26364 1.34059,-7.6864 -1.92599,-9.88461 -3.26365,-2.19821 -7.69519,-1.3318 -9.8729,1.92599 -2.20406,3.26073 -1.34351,7.68934 1.92014,9.88462 m -13.24193,18.03349 c 3.74368,2.50847 8.8221,1.5045 11.3335,-2.2509 2.5114,-3.74661 1.50742,-8.82795 -2.24212,-11.34227 -3.76124,-2.50848 -8.82502,-1.49865 -11.34813,2.25967 -2.5114,3.74954 -1.49864,8.82502 2.25675,11.3335 m 29.68896,5.50576 c -2.76605,-3.56514 -7.89715,-4.22079 -11.46229,-1.44596 -3.57098,2.75142 -4.22957,7.88837 -1.46352,11.45936 2.76313,3.57099 7.90301,4.22665 11.47107,1.45474 3.57684,-2.75727 4.21201,-7.89423 1.45474,-11.46814 m 8.91284,36.97144 c 4.29396,-1.38742 6.65901,-5.99458 5.28038,-10.28855 -1.3962,-4.29982 -5.99458,-6.65316 -10.30318,-5.2716 -4.2969,1.38742 -6.64731,6.00043 -5.25111,10.29147 1.37278,4.29397 5.98287,6.65609 10.27391,5.26868 m -4.05103,64.07875 c 2.47921,-3.77296 1.42255,-8.83381 -2.35626,-11.31008 -3.77588,-2.47921 -8.8543,-1.41962 -11.31594,2.35626 -2.4792,3.77588 -1.42547,8.84844 2.35334,11.31886 3.77881,2.47335 8.84552,1.41669 11.31886,-2.36504 m -0.35124,-15.64796 c 4.29104,1.3962 8.90698,-0.95128 10.30318,-5.24232 1.39327,-4.2969 -0.95422,-8.90699 -5.24233,-10.30611 -4.30275,-1.39913 -8.91284,0.94836 -10.31196,5.24818 -1.39034,4.28226 0.94251,8.90698 5.25111,10.30025 M 292.5666,277.82 c 0.11123,-4.51935 -3.47732,-8.25718 -7.97618,-8.35963 -4.5135,-0.1083 -8.26011,3.47732 -8.35963,7.98789 -0.10245,4.5135 3.47147,8.25718 7.99082,8.35085 4.51057,0.1083 8.25425,-3.47147 8.34499,-7.97911 m -33.04042,66.84773 c 3.5505,-2.80703 4.14761,-7.93814 1.34643,-11.48863 -2.8041,-3.53001 -7.93813,-4.13884 -11.4857,-1.33766 -3.53879,2.79532 -4.14176,7.93813 -1.34058,11.47985 2.79532,3.54172 7.94106,4.13883 11.47985,1.34644 m -32.52527,-28.2635 c -5.01109,1.61865 -7.76251,6.98685 -6.14385,11.99794 1.61279,5.00231 6.98099,7.75665 11.98037,6.14093 5.01694,-1.6128 7.76836,-6.98977 6.14971,-11.98623 -1.6128,-5.01402 -6.97514,-7.76251 -11.98623,-6.15264 m 27.47905,1.64793 c 3.91931,-3.53001 4.22665,-9.55679 0.70542,-13.45561 -3.52709,-3.90759 -9.55093,-4.22664 -13.46146,-0.70541 -3.90174,3.53293 -4.21494,9.55385 -0.68785,13.45853 3.52123,3.91345 9.54507,4.22371 13.44389,0.70249 m -0.14343,-17.8286 c 4.75937,2.2304 10.4349,0.19611 12.66823,-4.57497 2.24211,-4.75936 0.20197,-10.43782 -4.56618,-12.66822 -4.75937,-2.24212 -10.4349,-0.19611 -12.66237,4.5574 -2.24797,4.76522 -0.19026,10.44075 4.56032,12.68579 m 5.9097,-41.73959 c -5.26867,-0.0556 -9.57728,4.16225 -9.62118,9.428 -0.0556,5.25989 4.16225,9.56849 9.41921,9.62118 5.26867,0.0498 9.58313,-4.16225 9.62704,-9.428 0.0527,-5.26574 -4.16811,-9.5802 -9.42507,-9.62118 m -4.6657,-4.493 c 4.78863,-2.19236 6.88147,-7.85032 4.68326,-12.62725 -2.19528,-4.78864 -7.84154,-6.89025 -12.62432,-4.68912 -4.78278,2.18943 -6.88147,7.84447 -4.69497,12.62139 2.20113,4.78864 7.85324,6.89318 12.63603,4.69498 m -14.02052,-19.34774 c 3.40122,-4.01589 2.89777,-10.02803 -1.11521,-13.4234 -4.01882,-3.40122 -10.02803,-2.90362 -13.42633,1.11813 -3.40122,4.01297 -2.90947,10.02218 1.12106,13.4234 4.00712,3.40415 10.02218,2.9007 13.42048,-1.11813"
         inkscape:connector-curvature="0" />
    </clipPath>
  </defs>
  <sodipodi:namedview
     id="base"
     pagecolor="#ffffff"
     bordercolor="#666666"
     borderopacity="1.0"
     inkscape:pageopacity="0.0"
     inkscape:pageshadow="2"
     inkscape:zoom="0.35"
     inkscape:cx="-12.843475"
     inkscape:cy="-145.55313"
     inkscape:document-units="mm"
     inkscape:current-layer="layer1"
     showgrid="false"
     fit-margin-top="0"
     fit-margin-left="0"
     fit-margin-right="0"
     fit-margin-bottom="0"
     inkscape:window-width="1920"
     inkscape:window-height="1080"
     inkscape:window-x="44"
     inkscape:window-y="22"
     inkscape:window-maximized="0" />
  <metadata
     id="metadata5776">
    <rdf:RDF>
      <cc:Work
         rdf:about="">
        <dc:format>image/svg+xml</dc:format>
        <dc:type
           rdf:resource="http://purl.org/dc/dcmitype/StillImage" />
        <dc:title></dc:title>
      </cc:Work>
    </rdf:RDF>
  </metadata>
  <g
     inkscape:label="Layer 1"
     inkscape:groupmode="layer"
     id="layer1"
     transform="translate(17.390521,13.677601)">
    <g
       id="g6896"
       transform="matrix(0.4189749,0,0,0.4189749,-243.20713,168.69983)"
       inkscape:export-xdpi="72.097961"
       inkscape:export-ydpi="72.097961">
      <rect
         transform="matrix(0.73236644,0,0,0.73236644,513.41945,-487.80108)"
         clip-path="url(#clipPath3896)"
         y="132.87737"
         x="216.93813"
         height="288.03101"
         width="154.784"
         id="rect3104"
         style="fill:url(#linearGradient4548);fill-opacity:1;fill-rule:nonzero" />
      <g
         transform="matrix(0.74999999,0,0,0.74999999,509.81705,-492.66997)"
         id="g4682">
        <path
           d="m 279.67858,148.65125 c -1.14043,1.63491 -3.37841,2.03791 -5.01903,0.90605 -1.62919,-1.13757 -2.04364,-3.38127 -0.91749,-5.01332 1.15186,-1.64347 3.39556,-2.04648 5.02475,-0.91463 1.64061,1.13472 2.05506,3.38128 0.91177,5.0219"
           style="fill:#e95d0f;fill-opacity:1;fill-rule:nonzero;stroke:none"
           id="path3089"
           inkscape:connector-curvature="0" />
        <path
           d="m 220.72778,224.47414 c -1.37767,4.95043 -6.52247,7.84581 -11.46719,6.45385 -4.9533,-1.37766 -7.83438,-6.51388 -6.451,-11.46718 1.36623,-4.94472 6.51103,-7.83152 11.46146,-6.451 4.94187,1.37766 7.83725,6.51674 6.45673,11.46433"
           style="fill:#e95d0f;fill-opacity:1;fill-rule:nonzero;stroke:none"
           id="path2869"
           inkscape:connector-curvature="0" />
        <path
           d="m 199.13678,329.07073 c 0.46874,-5.11908 4.99045,-8.89193 10.1038,-8.4289 5.12765,0.46018 8.89193,4.98188 8.4289,10.10382 -0.45731,5.11049 -4.97902,8.8862 -10.0981,8.41746 -5.12192,-0.4516 -8.89192,-4.98188 -8.4346,-10.09238"
           style="fill:#e95d0f;fill-opacity:1;fill-rule:nonzero;stroke:none"
           id="path2871"
           inkscape:connector-curvature="0" />
        <path
           d="m 179.0692,322.64259 c 2.39234,-4.54743 8.02875,-6.28237 12.57332,-3.88718 4.53886,2.4009 6.28237,8.02303 3.88146,12.57331 -2.39233,4.54172 -8.02873,6.27665 -12.57331,3.88146 -4.53885,-2.39804 -6.27951,-8.02874 -3.88147,-12.56759"
           style="fill:#e95d0f;fill-opacity:1;fill-rule:nonzero;stroke:none"
           id="path2873"
           inkscape:connector-curvature="0" />
        <path
           d="m 162.46009,308.24573 c 4.0158,-3.19835 9.86371,-2.54096 13.06778,1.48056 3.20406,4.02437 2.54382,9.87229 -1.4777,13.07635 -4.0158,3.20122 -9.87515,2.53239 -13.07922,-1.48912 -3.19835,-4.01295 -2.52666,-9.86944 1.48914,-13.06779"
           style="fill:#e95d0f;fill-opacity:1;fill-rule:nonzero;stroke:none"
           id="path2875"
           inkscape:connector-curvature="0" />
        <path
           d="m 153.05368,288.52972 c 4.95901,-1.33479 10.0638,1.60919 11.4043,6.56819 1.3205,4.97045 -1.61775,10.06666 -6.5882,11.40431 -4.95901,1.33193 -10.05808,-1.61776 -11.40144,-6.5882 -1.32336,-4.95044 1.62633,-10.05522 6.58534,-11.3843"
           style="fill:#e95d0f;fill-opacity:1;fill-rule:nonzero;stroke:none"
           id="path2877"
           inkscape:connector-curvature="0" />
        <path
           d="m 152.1419,267.58754 c 5.09622,0.66596 8.68328,5.33915 8.01161,10.43822 -0.67455,5.08763 -5.34488,8.66898 -10.44109,7.99444 -5.09621,-0.66596 -8.68613,-5.35059 -8.01159,-10.43822 0.67454,-5.09049 5.3563,-8.6747 10.44107,-7.99444"
           style="fill:#e95d0f;fill-opacity:1;fill-rule:nonzero;stroke:none"
           id="path2879"
           inkscape:connector-curvature="0" />
        <path
           d="m 159.76765,247.19128 c 4.40737,2.64099 5.84219,8.34886 3.19834,12.76766 -2.64386,4.40166 -8.35458,5.83363 -12.76196,3.18407 -4.40452,-2.63528 -5.83363,-8.35458 -3.2012,-12.7591 2.64385,-4.40166 8.3603,-5.82791 12.76482,-3.19263"
           style="fill:#e95d0f;fill-opacity:1;fill-rule:nonzero;stroke:none"
           id="path2881"
           inkscape:connector-curvature="0" />
        <path
           d="m 174.86763,231.51679 c 2.99827,4.17014 2.03791,9.98376 -2.14082,12.97918 -4.18158,2.99256 -9.98376,2.03791 -12.97632,-2.14938 -2.99827,-4.16443 -2.03791,-9.97805 2.13795,-12.96775 4.16157,-2.99828 9.98377,-2.04077 12.97919,2.13795"
           style="fill:#e95d0f;fill-opacity:1;fill-rule:nonzero;stroke:none"
           id="path2883"
           inkscape:connector-curvature="0" />
        <path
           d="m 197.39327,222.7049 c 0.86031,5.07334 -2.5524,9.87801 -7.62002,10.73833 -5.07335,0.84603 -9.86373,-2.56383 -10.71833,-7.63431 -0.85747,-5.06476 2.55524,-9.86658 7.62287,-10.71832 5.0562,-0.86033 9.86372,2.55524 10.71548,7.6143"
           style="fill:#e95d0f;fill-opacity:1;fill-rule:nonzero;stroke:none"
           id="path2885"
           inkscape:connector-curvature="0" />
        <path
           d="m 213.25639,353.64571 c 0,4.41023 -3.57564,7.98301 -7.98873,7.98301 -4.40452,0 -7.97444,-3.57278 -7.97444,-7.98301 0,-4.40166 3.56992,-7.98016 7.97444,-7.98016 4.41309,0 7.98873,3.5785 7.98873,7.98016"
           style="fill:#e95d0f;fill-opacity:1;fill-rule:nonzero;stroke:none"
           id="path2887"
           inkscape:connector-curvature="0" />
        <path
           d="m 237.35405,347.06037 c 1.39767,4.18158 -0.86032,8.709 -5.03904,10.09809 -4.18158,1.3891 -8.70329,-0.86603 -10.0981,-5.04761 -1.39767,-4.18158 0.86032,-8.70043 5.04476,-10.0981 4.18729,-1.39481 8.70328,0.86033 10.09238,5.04762"
           style="fill:#e95d0f;fill-opacity:1;fill-rule:nonzero;stroke:none"
           id="path2889"
           inkscape:connector-curvature="0" />
        <path
           d="m 196.81018,198.90735 c 0.13434,-4.40738 3.81858,-7.86297 8.22883,-7.72577 4.4188,0.14291 7.86296,3.8243 7.72576,8.23453 -0.14005,4.40738 -3.83573,7.86297 -8.22881,7.7172 -4.40738,-0.12862 -7.86868,-3.82144 -7.72578,-8.22596"
           style="fill:#e95d0f;fill-opacity:1;fill-rule:nonzero;stroke:none"
           id="path2891"
           inkscape:connector-curvature="0" />
        <path
           d="m 220.42194,199.57903 c 1.40053,-4.17872 5.93653,-6.42814 10.11525,-5.02475 4.18443,1.4091 6.42528,5.93652 5.01904,10.11238 -1.40053,4.18158 -5.92795,6.42814 -10.10382,5.02476 -4.18443,-1.40624 -6.431,-5.93081 -5.03047,-10.11239"
           style="fill:#e95d0f;fill-opacity:1;fill-rule:nonzero;stroke:none"
           id="path2893"
           inkscape:connector-curvature="0" />
        <path
           d="m 173.26701,205.54128 c -1.30334,-4.21016 1.05183,-8.68042 5.25914,-9.98091 4.21587,-1.30049 8.68042,1.05468 9.98948,5.26484 1.30621,4.21302 -1.05754,8.68899 -5.27056,9.98663 -4.2073,1.30621 -8.68328,-1.05469 -9.97806,-5.27056"
           style="fill:#e95d0f;fill-opacity:1;fill-rule:nonzero;stroke:none"
           id="path2895"
           inkscape:connector-curvature="0" />
        <path
           d="m 151.71889,220.27255 c -2.661,-3.51847 -1.96359,-8.52607 1.56345,-11.18136 3.51561,-2.65529 8.5175,-1.95788 11.17564,1.55487 2.65529,3.52419 1.95788,8.53179 -1.56344,11.18422 -3.51562,2.661 -8.52321,1.96646 -11.17565,-1.55773"
           style="fill:#e95d0f;fill-opacity:1;fill-rule:nonzero;stroke:none"
           id="path2897"
           inkscape:connector-curvature="0" />
        <path
           d="m 129.1218,260.90501 c -4.16157,-1.45769 -6.35955,-6.00797 -4.90471,-10.1724 1.46055,-4.16157 6.00798,-6.34525 10.17527,-4.899 4.15871,1.4577 6.35668,6.01085 4.89327,10.17528 -1.44912,4.15585 -5.99941,6.34524 -10.16383,4.89612"
           style="fill:#e95d0f;fill-opacity:1;fill-rule:nonzero;stroke:none"
           id="path2899"
           inkscape:connector-curvature="0" />
        <path
           d="m 136.84471,238.46513 c -3.63851,-2.48952 -4.556,-7.45996 -2.06078,-11.09848 2.49809,-3.6328 7.46854,-4.556 11.09275,-2.05506 3.64424,2.48951 4.56459,7.46282 2.06365,11.09847 -2.48952,3.6328 -7.45997,4.55315 -11.09562,2.05507"
           style="fill:#e95d0f;fill-opacity:1;fill-rule:nonzero;stroke:none"
           id="path2901"
           inkscape:connector-curvature="0" />
        <path
           d="m 127.767,284.87692 c -4.40452,-0.16007 -7.84867,-3.8586 -7.69147,-8.26598 0.16863,-4.40738 3.87003,-7.85153 8.26883,-7.68861 4.40738,0.15434 7.84296,3.85574 7.69433,8.26311 -0.1572,4.40452 -3.8586,7.84868 -8.27169,7.69148"
           style="fill:#e95d0f;fill-opacity:1;fill-rule:nonzero;stroke:none"
           id="path2903"
           inkscape:connector-curvature="0" />
        <path
           d="m 134.08367,308.59443 c -4.23588,1.24047 -8.67184,-1.17472 -9.90945,-5.41061 -1.24333,-4.22445 1.1833,-8.66612 5.40775,-9.90945 4.21587,-1.24332 8.66898,1.18044 9.90088,5.41347 1.24333,4.23017 -1.17187,8.66041 -5.39918,9.90659"
           style="fill:#e95d0f;fill-opacity:1;fill-rule:nonzero;stroke:none"
           id="path2905"
           inkscape:connector-curvature="0" />
        <path
           d="m 147.89745,329.15362 c -3.5642,2.59811 -8.55752,1.82926 -11.16707,-1.72637 -2.59812,-3.55562 -1.82926,-8.55466 1.72351,-11.1585 3.55277,-2.60955 8.54894,-1.84069 11.16135,1.71493 2.59812,3.55849 1.83498,8.55466 -1.71779,11.16994"
           style="fill:#e95d0f;fill-opacity:1;fill-rule:nonzero;stroke:none"
           id="path2907"
           inkscape:connector-curvature="0" />
        <path
           d="m 186.63492,352.29377 c -1.52629,4.13584 -6.09944,6.26808 -10.24673,4.75037 -4.13012,-1.51201 -6.26808,-6.09659 -4.7475,-10.23815 1.51772,-4.13871 6.10517,-6.26809 10.24101,-4.75322 4.13584,1.51486 6.26236,6.09944 4.75322,10.241"
           style="fill:#e95d0f;fill-opacity:1;fill-rule:nonzero;stroke:none"
           id="path2909"
           inkscape:connector-curvature="0" />
        <path
           d="m 166.47017,344.09353 c -2.54954,3.60136 -7.53142,4.45311 -11.13278,1.90644 -3.59277,-2.54953 -4.44738,-7.53427 -1.90356,-11.12992 2.55238,-3.59849 7.53141,-4.44739 11.12991,-1.89785 3.59563,2.54382 4.45025,7.52855 1.90643,11.12133"
           style="fill:#e95d0f;fill-opacity:1;fill-rule:nonzero;stroke:none"
           id="path2911"
           inkscape:connector-curvature="0" />
        <path
           d="m 212.22743,178.52824 c 0,3.8443 -3.11261,6.9569 -6.95977,6.9569 -3.83287,0 -6.94262,-3.1126 -6.94262,-6.9569 0,-3.8386 3.10975,-6.95406 6.94262,-6.95406 3.84716,0 6.95977,3.11546 6.95977,6.95406"
           style="fill:#e95d0f;fill-opacity:1;fill-rule:nonzero;stroke:none"
           id="path2913"
           inkscape:connector-curvature="0" />
        <path
           d="m 231.19172,181.83519 c -0.75171,3.76142 -4.41309,6.2052 -8.1745,5.45349 -3.76143,-0.74885 -6.20806,-4.41881 -5.45635,-8.17737 0.75171,-3.76999 4.41023,-6.21092 8.18022,-5.4592 3.76143,0.75171 6.20235,4.4131 5.45063,8.18308"
           style="fill:#e95d0f;fill-opacity:1;fill-rule:nonzero;stroke:none"
           id="path2915"
           inkscape:connector-curvature="0" />
        <path
           d="m 248.26102,188.33479 c -1.44055,3.5642 -5.4935,5.28199 -9.05199,3.84145 -3.5642,-1.43482 -5.28199,-5.49064 -3.84716,-9.05198 1.43768,-3.56135 5.48206,-5.27628 9.05198,-3.84717 3.56135,1.44626 5.27914,5.49636 3.84717,9.0577"
           style="fill:#e95d0f;fill-opacity:1;fill-rule:nonzero;stroke:none"
           id="path2917"
           inkscape:connector-curvature="0" />
        <path
           d="m 107.36216,269.65403 c 3.84717,-0.0343 6.9712,3.05544 7.00836,6.9026 0.0286,3.8386 -3.06687,6.9712 -6.89975,7.00265 -3.85288,0.0286 -6.96834,-3.06116 -7.00835,-6.89403 -0.0257,-3.85002 3.05829,-6.98264 6.89974,-7.01122"
           style="fill:#e95d0f;fill-opacity:1;fill-rule:nonzero;stroke:none"
           id="path2919"
           inkscape:connector-curvature="0" />
        <path
           d="m 110.52335,250.6583 c 3.77,0.72884 6.2395,4.37021 5.51922,8.14021 -0.72312,3.77285 -4.37021,6.24235 -8.13449,5.51636 -3.78142,-0.72313 -6.23949,-4.36735 -5.52208,-8.13449 0.72027,-3.77571 4.36164,-6.24521 8.13735,-5.52208"
           style="fill:#e95d0f;fill-opacity:1;fill-rule:nonzero;stroke:none"
           id="path2921"
           inkscape:connector-curvature="0" />
        <path
           d="m 116.90576,233.55185 c 3.5642,1.41195 5.31344,5.44776 3.89576,9.02054 -1.40625,3.57277 -5.45063,5.32201 -9.02055,3.90719 -3.56991,-1.40911 -5.31915,-5.45063 -3.90147,-9.01769 1.40053,-3.57277 5.44491,-5.32487 9.02626,-3.91004"
           style="fill:#e95d0f;fill-opacity:1;fill-rule:nonzero;stroke:none"
           id="path2923"
           inkscape:connector-curvature="0" />
        <path
           d="m 127.64695,216.2053 c 3.19264,2.12366 4.0644,6.43671 1.95503,9.63506 -2.12366,3.20407 -6.43957,4.07583 -9.64078,1.95217 -3.19835,-2.1208 -4.07582,-6.42814 -1.95502,-9.62935 2.11794,-3.20978 6.43099,-4.07868 9.64077,-1.95788"
           style="fill:#e95d0f;fill-opacity:1;fill-rule:nonzero;stroke:none"
           id="path2925"
           inkscape:connector-curvature="0" />
        <path
           d="m 140.38318,202.65162 c 2.74104,2.68387 2.78391,7.08839 0.0972,9.82942 -2.69815,2.74103 -7.09124,2.78105 -9.83799,0.0943 -2.74103,-2.68958 -2.7839,-7.0941 -0.0972,-9.83514 2.68673,-2.73818 7.09125,-2.78677 9.83799,-0.0886"
           style="fill:#e95d0f;fill-opacity:1;fill-rule:nonzero;stroke:none"
           id="path2927"
           inkscape:connector-curvature="0" />
        <path
           d="m 156.20915,191.2416 c 2.10938,3.20693 1.23762,7.52284 -1.97502,9.63793 -3.20407,2.11507 -7.51427,1.23188 -9.62935,-1.97218 -2.11222,-3.20692 -1.24046,-7.51427 1.96931,-9.63506 3.19835,-2.11222 7.50855,-1.2319 9.63506,1.96931"
           style="fill:#e95d0f;fill-opacity:1;fill-rule:nonzero;stroke:none"
           id="path2929"
           inkscape:connector-curvature="0" />
        <path
           d="m 172.3238,183.88454 c 1.5463,3.51561 -0.0543,7.62002 -3.56991,9.16631 -3.5099,1.54345 -7.61431,-0.0457 -9.15488,-3.56134 -1.54915,-3.51561 0.0486,-7.62001 3.55276,-9.16346 3.5099,-1.54915 7.6143,0.0457 9.17203,3.55849"
           style="fill:#e95d0f;fill-opacity:1;fill-rule:nonzero;stroke:none"
           id="path2931"
           inkscape:connector-curvature="0" />
        <path
           d="m 191.30525,179.52861 c 0.89462,3.73283 -1.40624,7.48854 -5.13908,8.38317 -3.74427,0.89748 -7.48283,-1.40339 -8.38316,-5.13623 -0.89748,-3.73284 1.40053,-7.48282 5.1305,-8.3803 3.74713,-0.89748 7.48569,1.40053 8.39174,5.13336"
           style="fill:#e95d0f;fill-opacity:1;fill-rule:nonzero;stroke:none"
           id="path2933"
           inkscape:connector-curvature="0" />
        <path
           d="m 198.48796,373.78474 c -0.0286,-3.84717 3.06115,-6.97692 6.91117,-6.99979 3.83574,-0.0314 6.96263,3.06402 7.00265,6.89974 0.0143,3.84145 -3.07544,6.97978 -6.91118,7.00265 -3.83573,0.0286 -6.97692,-3.06687 -7.00264,-6.9026"
           style="fill:#e95d0f;fill-opacity:1;fill-rule:nonzero;stroke:none"
           id="path2935"
           inkscape:connector-curvature="0" />
        <path
           d="m 179.49508,370.61783 c 0.72599,-3.77 4.37594,-6.23664 8.14879,-5.51351 3.76427,0.72313 6.2395,4.37021 5.51351,8.14021 -0.72313,3.76999 -4.37022,6.2395 -8.14593,5.51922 -3.77285,-0.72599 -6.23664,-4.37594 -5.51637,-8.14592"
           style="fill:#e95d0f;fill-opacity:1;fill-rule:nonzero;stroke:none"
           id="path2937"
           inkscape:connector-curvature="0" />
        <path
           d="m 162.38863,364.23542 c 1.41767,-3.56707 5.45348,-5.31915 9.02341,-3.91576 3.56991,1.42339 5.32486,5.4592 3.9129,9.03769 -1.41482,3.56706 -5.4592,5.31343 -9.0234,3.89576 -3.56992,-1.41197 -5.33059,-5.45063 -3.91291,-9.01769"
           style="fill:#e95d0f;fill-opacity:1;fill-rule:nonzero;stroke:none"
           id="path2939"
           inkscape:connector-curvature="0" />
        <path
           d="m 145.0478,353.48565 c 2.12938,-3.20407 6.44243,-4.07868 9.6465,-1.95216 3.19835,2.11793 4.07011,6.43671 1.94359,9.63506 -2.11222,3.2012 -6.43386,4.0701 -9.63506,1.95216 -3.20406,-2.12366 -4.07011,-6.44242 -1.95503,-9.63506"
           style="fill:#e95d0f;fill-opacity:1;fill-rule:nonzero;stroke:none"
           id="path2941"
           inkscape:connector-curvature="0" />
        <path
           d="m 131.50556,340.73513 c 2.67529,-2.73532 7.07981,-2.78105 9.81512,-0.0915 2.75533,2.68959 2.78391,7.09125 0.1029,9.83228 -2.69245,2.73532 -7.09125,2.78676 -9.83228,0.0943 -2.74103,-2.69815 -2.78391,-7.0941 -0.0857,-9.83513"
           style="fill:#e95d0f;fill-opacity:1;fill-rule:nonzero;stroke:none"
           id="path2943"
           inkscape:connector-curvature="0" />
        <path
           d="m 120.10411,324.90629 c 3.20407,-2.11793 7.51998,-1.22902 9.63507,1.97218 2.11508,3.20121 1.23188,7.51713 -1.97218,9.63506 -3.20978,2.11222 -7.52284,1.2319 -9.63506,-1.97789 -2.10937,-3.20406 -1.22618,-7.50854 1.97217,-9.62935"
           style="fill:#e95d0f;fill-opacity:1;fill-rule:nonzero;stroke:none"
           id="path2945"
           inkscape:connector-curvature="0" />
        <path
           d="m 112.75276,308.78879 c 3.52133,-1.5463 7.62289,0.0543 9.15489,3.56421 1.55773,3.52132 -0.0372,7.62001 -3.5642,9.1663 -3.50418,1.5463 -7.60859,-0.0543 -9.14345,-3.56991 -1.55488,-3.51561 0.0371,-7.6143 3.55276,-9.1606"
           style="fill:#e95d0f;fill-opacity:1;fill-rule:nonzero;stroke:none"
           id="path2947"
           inkscape:connector-curvature="0" />
        <path
           d="m 108.40827,289.80163 c 3.73284,-0.89748 7.48282,1.4091 8.37744,5.13908 0.89748,3.73855 -1.40624,7.4914 -5.13907,8.3803 -3.73284,0.90606 -7.48855,-1.40053 -8.37745,-5.13622 -0.89462,-3.73855 1.40052,-7.48568 5.13908,-8.38316"
           style="fill:#e95d0f;fill-opacity:1;fill-rule:nonzero;stroke:none"
           id="path2949"
           inkscape:connector-curvature="0" />
        <path
           d="m 236.31365,368.86002 c -1.48627,-3.53276 0.16864,-7.6143 3.71284,-9.11487 3.53562,-1.48627 7.60572,0.17149 9.10057,3.70998 1.49199,3.53276 -0.16863,7.61715 -3.69568,9.11486 -3.53562,1.48628 -7.6143,-0.1715 -9.11773,-3.70997"
           style="fill:#e95d0f;fill-opacity:1;fill-rule:nonzero;stroke:none"
           id="path2951"
           inkscape:connector-curvature="0" />
        <path
           d="m 217.2779,372.93298 c -0.83745,-3.74713 1.51486,-7.46567 5.25913,-8.30027 3.74427,-0.84604 7.46567,1.512 8.30028,5.26485 0.84889,3.7414 -1.50915,7.45709 -5.25914,8.30027 -3.74426,0.83746 -7.44851,-1.51486 -8.30027,-5.26485"
           style="fill:#e95d0f;fill-opacity:1;fill-rule:nonzero;stroke:none"
           id="path2953"
           inkscape:connector-curvature="0" />
        <path
           d="m 198.32504,162.05059 c 0,3.26695 -2.64385,5.91937 -5.92509,5.91937 -3.28123,0 -5.9251,-2.65242 -5.9251,-5.91937 0,-3.27266 2.64387,-5.92509 5.9251,-5.92509 3.28124,0 5.92509,2.65243 5.92509,5.92509"
           style="fill:#e95d0f;fill-opacity:1;fill-rule:nonzero;stroke:none"
           id="path2955"
           inkscape:connector-curvature="0" />
        <path
           d="m 224.81503,163.7055 c -0.75171,3.1812 -3.94434,5.15337 -7.12268,4.39309 -3.18692,-0.75171 -5.16195,-3.93578 -4.41024,-7.12555 0.76315,-3.18691 3.95864,-5.15337 7.13983,-4.39881 3.18407,0.75458 5.15052,3.95007 4.39309,7.13127"
           style="fill:#e95d0f;fill-opacity:1;fill-rule:nonzero;stroke:none"
           id="path2957"
           inkscape:connector-curvature="0" />
        <path
           d="m 245.38279,169.45339 c -1.32336,2.98397 -4.82754,4.32448 -7.80866,2.98969 -2.99255,-1.33193 -4.32735,-4.84468 -3.00399,-7.82581 1.33479,-2.98398 4.84468,-4.32449 7.83153,-2.9897 2.98112,1.33479 4.32735,4.8304 2.98112,7.82582"
           style="fill:#e95d0f;fill-opacity:1;fill-rule:nonzero;stroke:none"
           id="path2959"
           inkscape:connector-curvature="0" />
        <path
           d="m 263.64397,178.38818 c -1.83498,2.70674 -5.51351,3.40129 -8.22311,1.56059 -2.70388,-1.84356 -3.40128,-5.5278 -1.55201,-8.23168 1.83497,-2.69815 5.53065,-3.39842 8.22882,-1.55773 2.70673,1.84355 3.39556,5.53066 1.5463,8.22882"
           style="fill:#e95d0f;fill-opacity:1;fill-rule:nonzero;stroke:none"
           id="path2961"
           inkscape:connector-curvature="0" />
        <path
           d="m 253.24576,379.46973 c -1.23475,-3.03543 0.22008,-6.49673 3.24408,-7.72291 3.02399,-1.24332 6.49101,0.22008 7.72291,3.25552 1.23475,3.02685 -0.22008,6.48244 -3.2498,7.72577 -3.02971,1.22332 -6.47959,-0.23724 -7.71719,-3.25838"
           style="fill:#e95d0f;fill-opacity:1;fill-rule:nonzero;stroke:none"
           id="path2963"
           inkscape:connector-curvature="0" />
        <path
           d="m 232.58653,386.88682 c -0.63166,-3.21264 1.45484,-6.33382 4.66462,-6.96263 3.2155,-0.63452 6.3281,1.4577 6.95405,4.67033 0.63167,3.20693 -1.45483,6.31381 -4.66462,6.9512 -3.21549,0.63167 -6.32238,-1.4577 -6.95405,-4.6589"
           style="fill:#e95d0f;fill-opacity:1;fill-rule:nonzero;stroke:none"
           id="path2965"
           inkscape:connector-curvature="0" />
        <path
           d="m 211.34995,390.17949 c -0.0114,-3.27552 2.62671,-5.93938 5.8908,-5.95939 3.28123,-0.02 5.93938,2.62099 5.95653,5.88793 0.0257,3.27553 -2.62099,5.93652 -5.89651,5.96226 -3.26409,0.0171 -5.93081,-2.621 -5.95082,-5.8908"
           style="fill:#e95d0f;fill-opacity:1;fill-rule:nonzero;stroke:none"
           id="path2967"
           inkscape:connector-curvature="0" />
        <path
           d="m 185.94322,388.87042 c 0.71742,-3.19834 3.87862,-5.21911 7.06839,-4.50741 3.19263,0.69741 5.20482,3.86718 4.49598,7.06267 -0.69741,3.19263 -3.86431,5.20482 -7.05694,4.50169 -3.19549,-0.70598 -5.21055,-3.86717 -4.50743,-7.05695"
           style="fill:#e95d0f;fill-opacity:1;fill-rule:nonzero;stroke:none"
           id="path2969"
           inkscape:connector-curvature="0" />
        <path
           d="m 167.31621,384.16865 c 1.24046,-3.03543 4.68462,-4.49884 7.72005,-3.26694 3.03257,1.23189 4.49026,4.6932 3.26409,7.71433 -1.23189,3.03543 -4.69034,4.49884 -7.72006,3.26695 -3.02686,-1.23761 -4.49026,-4.69034 -3.26408,-7.71434"
           style="fill:#e95d0f;fill-opacity:1;fill-rule:nonzero;stroke:none"
           id="path2971"
           inkscape:connector-curvature="0" />
        <path
           d="m 142.92128,372.37563 c 1.90644,-2.66386 5.61927,-3.26695 8.26884,-1.35766 2.66386,1.90644 3.26409,5.61069 1.35194,8.26598 -1.91501,2.65815 -5.61355,3.25837 -8.26884,1.3548 -2.65242,-1.91215 -3.25836,-5.61355 -1.35194,-8.26312"
           style="fill:#e95d0f;fill-opacity:1;fill-rule:nonzero;stroke:none"
           id="path2973"
           inkscape:connector-curvature="0" />
        <path
           d="m 127.25824,360.31108 c 2.34374,-2.278 6.08801,-2.24656 8.38888,0.10004 2.278,2.33802 2.22941,6.08801 -0.1029,8.37173 -2.33802,2.28943 -6.09945,2.24656 -8.38316,-0.0915 -2.28372,-2.3466 -2.24656,-6.08801 0.0972,-8.3803"
           style="fill:#e95d0f;fill-opacity:1;fill-rule:nonzero;stroke:none"
           id="path2975"
           inkscape:connector-curvature="0" />
        <path
           d="m 112.44122,343.79914 c 2.74104,-1.78639 6.41385,-1.02324 8.19737,1.71207 1.80355,2.72961 1.04612,6.41099 -1.70063,8.1888 -2.74104,1.8064 -6.40814,1.03468 -8.2031,-1.69778 -1.7921,-2.74103 -1.02895,-6.40527 1.70636,-8.20309"
           style="fill:#e95d0f;fill-opacity:1;fill-rule:nonzero;stroke:none"
           id="path2977"
           inkscape:connector-curvature="0" />
        <path
           d="m 101.90296,326.41544 c 3.01828,-1.27762 6.50531,0.1229 7.76864,3.13833 1.29192,3.0097 -0.11719,6.48816 -3.12689,7.76578 -3.01257,1.27762 -6.4853,-0.13148 -7.771502,-3.13261 -1.280483,-3.01257 0.131479,-6.48816 3.129752,-7.7715"
           style="fill:#e95d0f;fill-opacity:1;fill-rule:nonzero;stroke:none"
           id="path2979"
           inkscape:connector-curvature="0" />
        <path
           d="m 94.854588,308.23144 c 3.184058,-0.74313 6.382402,1.23189 7.122682,4.41595 0.75171,3.18692 -1.22617,6.37669 -4.418806,7.11697 -3.184058,0.75457 -6.370974,-1.22618 -7.11697,-4.40737 -0.743137,-3.18692 1.226177,-6.37099 4.413094,-7.12555"
           style="fill:#e95d0f;fill-opacity:1;fill-rule:nonzero;stroke:none"
           id="path2981"
           inkscape:connector-curvature="0" />
        <path
           d="m 90.501517,283.78508 c 3.281238,-0.0429 5.973682,2.57525 6.005123,5.85078 0.04859,3.26409 -2.5724,5.95081 -5.84792,5.99368 -3.275522,0.0429 -5.956533,-2.57811 -6.005123,-5.84506 -0.02858,-3.27552 2.583832,-5.95367 5.84792,-5.9994"
           style="fill:#e95d0f;fill-opacity:1;fill-rule:nonzero;stroke:none"
           id="path2983"
           inkscape:connector-curvature="0" />
        <path
           d="m 91.410431,259.91321 c 3.209782,0.64311 5.296283,3.75857 4.653184,6.96263 -0.637383,3.20979 -3.769994,5.29057 -6.974059,4.65605 -3.19835,-0.63739 -5.281992,-3.75857 -4.644609,-6.96263 0.628809,-3.20407 3.755702,-5.29057 6.965484,-4.65605"
           style="fill:#e95d0f;fill-opacity:1;fill-rule:nonzero;stroke:none"
           id="path2985"
           inkscape:connector-curvature="0" />
        <path
           d="m 96.892499,237.75915 c 3.015423,1.26333 4.435961,4.74464 3.172621,7.76006 -1.26333,3.01828 -4.730352,4.43597 -7.754349,3.16691 -3.015423,-1.26333 -4.435959,-4.73321 -3.172626,-7.75435 1.263334,-3.01543 4.730356,-4.43024 7.754354,-3.17262"
           style="fill:#e95d0f;fill-opacity:1;fill-rule:nonzero;stroke:none"
           id="path2987"
           inkscape:connector-curvature="0" />
        <path
           d="m 106.81053,216.87699 c 2.7153,1.85212 3.40127,5.53923 1.56058,8.23738 -1.85212,2.69531 -5.53637,3.39843 -8.24025,1.5463 -2.692441,-1.84355 -3.389847,-5.52779 -1.549153,-8.23453 1.849273,-2.70102 5.539233,-3.38699 8.228823,-1.54915"
           style="fill:#e95d0f;fill-opacity:1;fill-rule:nonzero;stroke:none"
           id="path2989"
           inkscape:connector-curvature="0" />
        <path
           d="m 121.19881,197.9327 c 2.26657,2.36946 2.18654,6.12231 -0.18578,8.37744 -2.35804,2.25513 -6.11374,2.18082 -8.36888,-0.18579 -2.26371,-2.36946 -2.1751,-6.11945 0.18293,-8.37458 2.3666,-2.25799 6.11088,-2.17511 8.37173,0.18293"
           style="fill:#e95d0f;fill-opacity:1;fill-rule:nonzero;stroke:none"
           id="path2991"
           inkscape:connector-curvature="0" />
        <path
           d="m 136.91045,184.02174 c 1.78353,2.74103 1.01467,6.41384 -1.72065,8.20023 -2.72674,1.78925 -6.40527,1.02324 -8.20309,-1.71207 -1.78353,-2.74104 -1.00324,-6.41671 1.71779,-8.20881 2.74103,-1.78639 6.40813,-1.01467 8.20595,1.72065"
           style="fill:#e95d0f;fill-opacity:1;fill-rule:nonzero;stroke:none"
           id="path2993"
           inkscape:connector-curvature="0" />
        <path
           d="m 154.79148,173.26339 c 1.26333,3.024 -0.16292,6.49674 -3.18692,7.7515 -3.0097,1.26619 -6.4853,-0.15435 -7.74006,-3.17835 -1.26905,-3.02114 0.1572,-6.4853 3.17262,-7.75435 3.01829,-1.26047 6.49103,0.16291 7.75436,3.1812"
           style="fill:#e95d0f;fill-opacity:1;fill-rule:nonzero;stroke:none"
           id="path2995"
           inkscape:connector-curvature="0" />
        <path
           d="m 175.95375,165.50332 c 0.64881,3.20978 -1.42912,6.33954 -4.65033,6.97978 -3.18691,0.64596 -6.33095,-1.42626 -6.96549,-4.6389 -0.64023,-3.20692 1.43484,-6.32809 4.64461,-6.97691 3.20407,-0.64596 6.32239,1.43196 6.97121,4.63603"
           style="fill:#e95d0f;fill-opacity:1;fill-rule:nonzero;stroke:none"
           id="path2997"
           inkscape:connector-curvature="0" />
        <path
           d="m 183.90817,144.95843 c 0.60594,3.0583 -1.36051,6.02513 -4.41309,6.63107 -3.04686,0.61166 -6.01084,-1.35766 -6.63107,-4.3988 -0.60594,-3.05258 1.37195,-6.01941 4.4188,-6.63679 3.04687,-0.60594 6.00513,1.36052 6.62536,4.40452"
           style="fill:#e95d0f;fill-opacity:1;fill-rule:nonzero;stroke:none"
           id="path2999"
           inkscape:connector-curvature="0" />
        <path
           d="m 211.04413,143.41213 c -0.0343,3.1126 -2.56669,5.61927 -5.66785,5.59069 -3.11261,-0.0172 -5.62499,-2.56097 -5.59641,-5.65928 0.0172,-3.12118 2.56097,-5.61069 5.66785,-5.59355 3.10118,0.0229 5.60783,2.55526 5.59641,5.66214"
           style="fill:#e95d0f;fill-opacity:1;fill-rule:nonzero;stroke:none"
           id="path3001"
           inkscape:connector-curvature="0" />
        <path
           d="m 241.83002,148.48262 c -0.746,3.01542 -3.80429,4.85897 -6.814,4.11298 -3.01828,-0.74314 -4.85897,-3.79001 -4.11298,-6.80828 0.74599,-3.024 3.79286,-4.86184 6.81114,-4.11871 3.01543,0.746 4.8504,3.79572 4.11584,6.81401"
           style="fill:#e95d0f;fill-opacity:1;fill-rule:nonzero;stroke:none"
           id="path3003"
           inkscape:connector-curvature="0" />
        <path
           d="m 262.85509,156.52279 c -1.25476,2.8525 -4.56744,4.15585 -7.41136,2.91539 -2.85251,-1.24905 -4.153,-4.56744 -2.90968,-7.41423 1.25191,-2.8525 4.55601,-4.15299 7.40566,-2.90681 2.85537,1.24904 4.15299,4.55601 2.91538,7.40565"
           style="fill:#e95d0f;fill-opacity:1;fill-rule:nonzero;stroke:none"
           id="path3005"
           inkscape:connector-curvature="0" />
        <path
           d="m 249.60724,401.28653 c -1.15758,-2.8868 0.24867,-6.17089 3.12118,-7.32276 2.89537,-1.15757 6.1709,0.24581 7.32561,3.13261 1.14901,2.88966 -0.2458,6.16233 -3.12974,7.32277 -2.8868,1.14614 -6.15089,-0.25439 -7.31705,-3.13262"
           style="fill:#e95d0f;fill-opacity:1;fill-rule:nonzero;stroke:none"
           id="path3007"
           inkscape:connector-curvature="0" />
        <path
           d="m 225.4324,407.41742 c -0.58879,-3.06116 1.39482,-6.01655 4.44168,-6.61393 3.04972,-0.5945 6.01084,1.40053 6.60821,4.43883 0.59451,3.06115 -1.39482,6.01369 -4.44454,6.6082 -3.04686,0.59451 -6.00226,-1.3891 -6.60535,-4.4331"
           style="fill:#e95d0f;fill-opacity:1;fill-rule:nonzero;stroke:none"
           id="path3009"
           inkscape:connector-curvature="0" />
        <path
           d="m 197.09886,408.75793 c 0.0657,-3.11547 2.63528,-5.58497 5.73645,-5.51351 3.1126,0.0657 5.57639,2.63813 5.49922,5.74216 -0.06,3.10975 -2.62671,5.57354 -5.72787,5.51065 -3.10974,-0.0743 -5.57926,-2.63814 -5.5078,-5.7393"
           style="fill:#e95d0f;fill-opacity:1;fill-rule:nonzero;stroke:none"
           id="path3011"
           inkscape:connector-curvature="0" />
        <path
           d="m 171.74072,404.76213 c 0.66883,-3.044 3.66139,-4.96472 6.70253,-4.30733 3.02972,0.66024 4.96474,3.65566 4.29877,6.69109 -0.6631,3.044 -3.65566,4.97045 -6.69109,4.30733 -3.02972,-0.66596 -4.95901,-3.65852 -4.31021,-6.69109"
           style="fill:#e95d0f;fill-opacity:1;fill-rule:nonzero;stroke:none"
           id="path3013"
           inkscape:connector-curvature="0" />
        <path
           d="m 146.74273,395.53293 c 1.26905,-2.84678 4.58173,-4.13298 7.42851,-2.88394 2.83822,1.24905 4.12442,4.57601 2.87537,7.41995 -1.26333,2.84392 -4.57601,4.13584 -7.4228,2.8868 -2.83821,-1.26619 -4.13584,-4.58173 -2.88108,-7.42281"
           style="fill:#e95d0f;fill-opacity:1;fill-rule:nonzero;stroke:none"
           id="path3015"
           inkscape:connector-curvature="0" />
        <path
           d="m 121.40174,379.37828 c 1.86356,-2.49237 5.38203,-3.00686 7.88012,-1.14616 2.48951,1.86642 2.98684,5.38775 1.12328,7.88012 -1.85499,2.48951 -5.37631,3.00399 -7.87154,1.14329 -2.4838,-1.86642 -2.99542,-5.38774 -1.13186,-7.87725"
           style="fill:#e95d0f;fill-opacity:1;fill-rule:nonzero;stroke:none"
           id="path3017"
           inkscape:connector-curvature="0" />
        <path
           d="m 106.17886,364.93283 c 2.24656,-2.1694 5.80505,-2.11509 7.96872,0.10289 2.16368,2.23513 2.11509,5.79933 -0.11433,7.963 -2.23513,2.16654 -5.79361,2.11795 -7.96301,-0.12004 -2.15795,-2.22084 -2.11508,-5.78504 0.10862,-7.94585"
           style="fill:#e95d0f;fill-opacity:1;fill-rule:nonzero;stroke:none"
           id="path3019"
           inkscape:connector-curvature="0" />
        <path
           d="m 91.104602,344.52512 c 2.612414,-1.70063 6.099443,-0.97465 7.800085,1.62062 1.700643,2.60384 0.974653,6.08801 -1.62347,7.79151 -2.606698,1.7035 -6.093727,0.97466 -7.794369,-1.63204 -1.70064,-2.58955 -0.968936,-6.07944 1.617754,-7.78009"
           style="fill:#e95d0f;fill-opacity:1;fill-rule:nonzero;stroke:none"
           id="path3021"
           inkscape:connector-curvature="0" />
        <path
           d="m 81.438099,324.92059 c 2.849646,-1.25476 6.162324,0.0314 7.4228,2.87537 1.246184,2.84107 -0.0343,6.16804 -2.883945,7.41422 -2.855363,1.25476 -6.168041,-0.0229 -7.4228,-2.88108 -1.246184,-2.84107 0.04001,-6.16232 2.883945,-7.40851"
           style="fill:#e95d0f;fill-opacity:1;fill-rule:nonzero;stroke:none"
           id="path3023"
           inkscape:connector-curvature="0" />
        <path
           d="m 74.226808,299.51958 c 3.046863,-0.66025 6.050853,1.25476 6.71396,4.2902 0.660249,3.03542 -1.257617,6.0337 -4.293048,6.69966 -3.046863,0.66882 -6.03942,-1.25475 -6.713961,-4.29876 -0.648816,-3.02971 1.263334,-6.02799 4.293049,-6.6911"
           style="fill:#e95d0f;fill-opacity:1;fill-rule:nonzero;stroke:none"
           id="path3025"
           inkscape:connector-curvature="0" />
        <path
           d="m 72.223195,271.94919 c 3.104027,-0.009 5.644986,2.47235 5.673568,5.58496 0.02572,3.10403 -2.469503,5.64498 -5.587822,5.66785 -3.106886,0.0229 -5.644986,-2.47236 -5.667851,-5.57925 -0.01429,-3.10974 2.475219,-5.6507 5.582105,-5.67356"
           style="fill:#e95d0f;fill-opacity:1;fill-rule:nonzero;stroke:none"
           id="path3027"
           inkscape:connector-curvature="0" />
        <path
           d="m 75.835986,245.07619 c 3.052579,0.61166 5.030469,3.56992 4.424525,6.61679 -0.6088,3.04686 -3.575633,5.02474 -6.622497,4.41308 -3.055438,-0.60594 -5.030469,-3.56419 -4.41881,-6.6225 0.61166,-3.03542 3.575635,-5.01331 6.616782,-4.40737"
           style="fill:#e95d0f;fill-opacity:1;fill-rule:nonzero;stroke:none"
           id="path3029"
           inkscape:connector-curvature="0" />
        <path
           d="m 84.204856,220.85563 c 2.878229,1.18901 4.253033,4.47311 3.06973,7.33705 -1.183304,2.87537 -4.470257,4.25303 -7.339911,3.06687 -2.883945,-1.18331 -4.258749,-4.4674 -3.081163,-7.34849 1.200453,-2.86679 4.475974,-4.23588 7.351344,-3.05543"
           style="fill:#e95d0f;fill-opacity:1;fill-rule:nonzero;stroke:none"
           id="path3031"
           inkscape:connector-curvature="0" />
        <path
           d="m 97.241202,198.43575 c 2.583831,1.73207 3.304098,5.21053 1.586313,7.80865 -1.714933,2.58383 -5.216254,3.29553 -7.802943,1.57202 -2.595265,-1.71779 -3.304104,-5.20196 -1.580596,-7.80294 1.714931,-2.58669 5.210536,-3.2841 7.797226,-1.57773"
           style="fill:#e95d0f;fill-opacity:1;fill-rule:nonzero;stroke:none"
           id="path3033"
           inkscape:connector-curvature="0" />
        <path
           d="m 116.98007,176.62751 c 2.1551,2.25801 2.07222,5.80505 -0.16863,7.95158 -2.2437,2.15224 -5.80791,2.06935 -7.95443,-0.17721 -2.14938,-2.24656 -2.07792,-5.79933 0.18293,-7.96014 2.24656,-2.13796 5.79933,-2.06365 7.94013,0.18577"
           style="fill:#e95d0f;fill-opacity:1;fill-rule:nonzero;stroke:none"
           id="path3035"
           inkscape:connector-curvature="0" />
        <path
           d="m 135.94151,162.64795 c 1.70922,2.60099 1.01182,6.07659 -1.57487,7.80009 -2.59527,1.7178 -6.09373,1.01182 -7.80581,-1.58059 -1.71493,-2.59527 -1.01181,-6.07944 1.57488,-7.80009 2.6067,-1.71208 6.0823,-1.00609 7.8058,1.58059"
           style="fill:#e95d0f;fill-opacity:1;fill-rule:nonzero;stroke:none"
           id="path3037"
           inkscape:connector-curvature="0" />
        <path
           d="m 158.92733,151.52662 c 1.19473,2.87537 -0.16292,6.15946 -3.03544,7.35992 -2.86679,1.1833 -6.16232,-0.18006 -7.35134,-3.04115 -1.18902,-2.88394 0.1572,-6.1709 3.04686,-7.36277 2.8668,-1.18331 6.15661,0.1772 7.33992,3.044"
           style="fill:#e95d0f;fill-opacity:1;fill-rule:nonzero;stroke:none"
           id="path3039"
           inkscape:connector-curvature="0" />
        <path
           d="m 193.69187,128.82949 c 0,1.99218 -1.61204,3.60993 -3.60707,3.60993 -1.99505,0 -3.60995,-1.61775 -3.60995,-3.60993 0,-1.99219 1.6149,-3.60422 3.60995,-3.60422 1.99503,0 3.60707,1.61203 3.60707,3.60422"
           style="fill:#e95d0f;fill-opacity:1;fill-rule:nonzero;stroke:none"
           id="path3041"
           inkscape:connector-curvature="0" />
        <path
           d="m 207.38846,112.86633 c 0,1.59488 -1.29763,2.88108 -2.88395,2.88108 -1.59775,0 -2.88966,-1.2862 -2.88966,-2.88108 0,-1.59489 1.29191,-2.88109 2.88966,-2.88109 1.58632,0 2.88395,1.2862 2.88395,2.88109"
           style="fill:#e95d0f;fill-opacity:1;fill-rule:nonzero;stroke:none"
           id="path3043"
           inkscape:connector-curvature="0" />
        <path
           d="m 245.92299,118.05399 c -0.37728,1.5463 -1.92358,2.49524 -3.48417,2.12366 -1.5463,-0.38013 -2.50094,-1.94073 -2.11222,-3.48988 0.36871,-1.54344 1.93787,-2.48951 3.48703,-2.12366 1.53487,0.38014 2.48951,1.94359 2.10936,3.48988"
           style="fill:#e95d0f;fill-opacity:1;fill-rule:nonzero;stroke:none"
           id="path3045"
           inkscape:connector-curvature="0" />
        <path
           d="m 275.55703,128.86664 c -0.66311,1.44912 -2.38662,2.08937 -3.83002,1.41197 -1.45483,-0.66883 -2.07792,-2.37805 -1.40624,-3.83288 0.66596,-1.44054 2.36947,-2.07793 3.82144,-1.4091 1.4434,0.66883 2.0865,2.38376 1.41482,3.83001"
           style="fill:#e95d0f;fill-opacity:1;fill-rule:nonzero;stroke:none"
           id="path3047"
           inkscape:connector-curvature="0" />
        <path
           d="m 262.13482,429.10274 c -0.58308,-1.48342 0.16292,-3.15834 1.63491,-3.73284 1.48912,-0.5745 3.16118,0.15435 3.73283,1.64062 0.58308,1.48056 -0.1572,3.15834 -1.6349,3.73284 -1.47484,0.58022 -3.16119,-0.15435 -3.73284,-1.64062"
           style="fill:#e95d0f;fill-opacity:1;fill-rule:nonzero;stroke:none"
           id="path3049"
           inkscape:connector-curvature="0" />
        <path
           d="m 232.31501,437.12576 c -0.2944,-1.57202 0.74599,-3.07544 2.298,-3.36698 1.57488,-0.28582 3.08402,0.746 3.36413,2.31231 0.2944,1.57202 -0.7317,3.07544 -2.30658,3.36412 -1.56345,0.29154 -3.06687,-0.75171 -3.35555,-2.30945"
           style="fill:#e95d0f;fill-opacity:1;fill-rule:nonzero;stroke:none"
           id="path3051"
           inkscape:connector-curvature="0" />
        <path
           d="m 198.39364,439.28944 c 0.0457,-1.59774 1.36909,-2.85822 2.9554,-2.81535 1.6006,0.0486 2.85536,1.3748 2.80677,2.96112 -0.0286,1.59203 -1.35194,2.85536 -2.94968,2.80963 -1.58918,-0.04 -2.84965,-1.36909 -2.81249,-2.9554"
           style="fill:#e95d0f;fill-opacity:1;fill-rule:nonzero;stroke:none"
           id="path3053"
           inkscape:connector-curvature="0" />
        <path
           d="m 164.27791,434.25897 c 0.38301,-1.54915 1.94645,-2.5038 3.48418,-2.12651 1.54629,0.38014 2.49522,1.94073 2.12651,3.48131 -0.37729,1.54344 -1.93501,2.5038 -3.47845,2.12937 -1.54916,-0.37443 -2.50667,-1.94645 -2.13224,-3.48417"
           style="fill:#e95d0f;fill-opacity:1;fill-rule:nonzero;stroke:none"
           id="path3055"
           inkscape:connector-curvature="0" />
        <path
           d="m 134.10939,423.21767 c 0.67454,-1.44626 2.38662,-2.06936 3.82144,-1.39767 1.44912,0.67168 2.08079,2.38089 1.4091,3.82715 -0.66881,1.45198 -2.37518,2.08079 -3.83001,1.40339 -1.4434,-0.66883 -2.06935,-2.38376 -1.40053,-3.83287"
           style="fill:#e95d0f;fill-opacity:1;fill-rule:nonzero;stroke:none"
           id="path3057"
           inkscape:connector-curvature="0" />
        <path
           d="m 105.00127,405.19944 c 0.95465,-1.27477 2.75818,-1.532 4.03867,-0.5745 1.26047,0.96893 1.51486,2.76962 0.56306,4.04152 -0.94321,1.27763 -2.76389,1.53773 -4.03294,0.57165 -1.2662,-0.96037 -1.53201,-2.76677 -0.56879,-4.03867"
           style="fill:#e95d0f;fill-opacity:1;fill-rule:nonzero;stroke:none"
           id="path3059"
           inkscape:connector-curvature="0" />
        <path
           d="m 83.78184,385.51201 c 1.166154,-1.08612 2.992557,-1.01752 4.075823,0.15435 1.083266,1.17473 1.020385,2.99541 -0.148627,4.07011 -1.169013,1.08898 -2.995416,1.03181 -4.075824,-0.14577 -1.088982,-1.16615 -1.017526,-2.98971 0.148628,-4.07869"
           style="fill:#e95d0f;fill-opacity:1;fill-rule:nonzero;stroke:none"
           id="path3061"
           inkscape:connector-curvature="0" />
        <path
           d="m 66.766851,363.01495 c 1.334789,-0.86889 3.129752,-0.48017 3.98436,0.85748 0.866041,1.33478 0.488755,3.11546 -0.846033,3.97863 -1.346223,0.8689 -3.121177,0.49163 -3.987218,-0.84317 -0.863183,-1.3405 -0.491614,-3.12689 0.848891,-3.99294"
           style="fill:#e95d0f;fill-opacity:1;fill-rule:nonzero;stroke:none"
           id="path3063"
           inkscape:connector-curvature="0" />
        <path
           d="m 54.979548,340.56364 c 1.460551,-0.65168 3.166909,-0.006 3.810009,1.44911 0.648816,1.46341 0,3.17263 -1.454835,3.81001 -1.457692,0.65453 -3.166909,0.006 -3.821441,-1.45198 -0.637383,-1.44911 0.01143,-3.15833 1.466267,-3.80714"
           style="fill:#e95d0f;fill-opacity:1;fill-rule:nonzero;stroke:none"
           id="path3065"
           inkscape:connector-curvature="0" />
        <path
           d="m 45.57886,311.36691 c 1.546297,-0.363 3.106886,0.5945 3.475596,2.13794 0.35442,1.56345 -0.597368,3.11261 -2.146524,3.4756 -1.55773,0.37157 -3.112602,-0.58879 -3.46988,-2.14938 -0.365852,-1.54344 0.591652,-3.0926 2.140808,-3.46416"
           style="fill:#e95d0f;fill-opacity:1;fill-rule:nonzero;stroke:none"
           id="path3067"
           inkscape:connector-curvature="0" />
        <path
           d="m 41.731695,275.37047 c 1.600603,-0.0257 2.898236,1.24905 2.915385,2.84965 0.0057,1.59489 -1.269051,2.89824 -2.855363,2.90681 -1.597746,0.02 -2.901094,-1.24905 -2.915385,-2.84965 -0.02287,-1.59774 1.26905,-2.89823 2.855363,-2.90681"
           style="fill:#e95d0f;fill-opacity:1;fill-rule:nonzero;stroke:none"
           id="path3069"
           inkscape:connector-curvature="0" />
        <path
           d="m 44.732826,244.96758 c 1.563447,0.27439 2.612414,1.77495 2.326592,3.34126 -0.282963,1.56917 -1.780671,2.61527 -3.338402,2.3323 -1.580596,-0.27724 -2.61813,-1.7778 -2.332308,-3.34983 0.277248,-1.5663 1.774955,-2.60955 3.344118,-2.32373"
           style="fill:#e95d0f;fill-opacity:1;fill-rule:nonzero;stroke:none"
           id="path3071"
           inkscape:connector-curvature="0" />
        <path
           d="m 54.696584,212.381 c 1.474843,0.59451 2.177964,2.27515 1.586313,3.74999 -0.605943,1.4777 -2.289435,2.18939 -3.761419,1.58345 -1.4777,-0.60022 -2.186539,-2.28086 -1.586313,-3.7557 0.59451,-1.46913 2.283719,-2.18939 3.761419,-1.57774"
           style="fill:#e95d0f;fill-opacity:1;fill-rule:nonzero;stroke:none"
           id="path3073"
           inkscape:connector-curvature="0" />
        <path
           d="m 70.891264,183.00707 c 1.331931,0.88891 1.680634,2.68387 0.774577,3.99865 -0.888906,1.32907 -2.681011,1.68349 -3.987218,0.77743 -1.326214,-0.88604 -1.68635,-2.66958 -0.791727,-3.99579 0.894624,-1.31764 2.686728,-1.66635 4.004368,-0.78029"
           style="fill:#e95d0f;fill-opacity:1;fill-rule:nonzero;stroke:none"
           id="path3075"
           inkscape:connector-curvature="0" />
        <path
           d="m 92.785236,157.52889 c 1.117563,1.14614 1.100414,2.96111 -0.04573,4.07296 -1.154722,1.1147 -2.981124,1.08612 -4.075823,-0.0543 -1.123281,-1.14328 -1.094698,-2.96111 0.04859,-4.07581 1.14043,-1.11185 2.961117,-1.08327 4.072965,0.0572"
           style="fill:#e95d0f;fill-opacity:1;fill-rule:nonzero;stroke:none"
           id="path3077"
           inkscape:connector-curvature="0" />
        <path
           d="m 117.96045,137.99008 c 0.87461,1.3348 0.49161,3.12118 -0.83746,3.99008 -1.34623,0.86604 -3.13261,0.48876 -3.98437,-0.84318 -0.88318,-1.33478 -0.50018,-3.12403 0.83461,-3.99293 1.33479,-0.87461 3.12117,-0.4859 3.98722,0.84603"
           style="fill:#e95d0f;fill-opacity:1;fill-rule:nonzero;stroke:none"
           id="path3079"
           inkscape:connector-curvature="0" />
        <path
           d="m 147.57162,123.28454 c 0.58879,1.48627 -0.14291,3.15262 -1.62634,3.73855 -1.48627,0.58022 -3.15547,-0.14862 -3.72712,-1.63204 -0.5945,-1.48628 0.14291,-3.15262 1.62061,-3.74141 1.48056,-0.58022 3.15263,0.15434 3.73285,1.6349"
           style="fill:#e95d0f;fill-opacity:1;fill-rule:nonzero;stroke:none"
           id="path3081"
           inkscape:connector-curvature="0" />
        <path
           d="m 174.87334,115.65595 c 0.32298,1.56345 -0.69169,3.08116 -2.24942,3.39843 -1.56631,0.31154 -3.08974,-0.69455 -3.39556,-2.25228 -0.3287,-1.56345 0.68597,-3.08403 2.25513,-3.40129 1.55773,-0.31726 3.06973,0.6917 3.38985,2.25514"
           style="fill:#e95d0f;fill-opacity:1;fill-rule:nonzero;stroke:none"
           id="path3083"
           inkscape:connector-curvature="0" />
        <path
           d="m 226.89296,130.02137 c -0.44303,1.94358 -2.37804,3.15834 -4.32163,2.70959 -1.93502,-0.44588 -3.14976,-2.37804 -2.70388,-4.31877 0.44017,-1.93788 2.37519,-3.1469 4.31592,-2.70673 1.94073,0.44302 3.15547,2.37803 2.70959,4.31591"
           style="fill:#e95d0f;fill-opacity:1;fill-rule:nonzero;stroke:none"
           id="path3085"
           inkscape:connector-curvature="0" />
        <path
           d="m 256.60417,137.69569 c -0.84032,1.80354 -2.98113,2.5924 -4.78467,1.75781 -1.80925,-0.83747 -2.60098,-2.98112 -1.76638,-4.78467 0.84032,-1.81497 2.98684,-2.59812 4.79038,-1.76066 1.81497,0.83746 2.58384,2.98113 1.76067,4.78752"
           style="fill:#e95d0f;fill-opacity:1;fill-rule:nonzero;stroke:none"
           id="path3087"
           inkscape:connector-curvature="0" />
        <path
           id="path3135"
           style="fill:#e95d0f;fill-opacity:1;fill-rule:nonzero;stroke:none"
           d="m 271.46125,408.08342 c -0.76029,-1.83498 0.11433,-3.94435 1.97789,-4.69892 1.82355,-0.75742 3.93291,0.12577 4.69034,1.96646 0.74885,1.83784 -0.12576,3.94434 -1.96074,4.70749 -1.84355,0.75171 -3.95292,-0.13148 -4.70749,-1.97503"
           inkscape:connector-curvature="0" />
        <path
           id="path3137"
           style="fill:#e95d0f;fill-opacity:1;fill-rule:nonzero;stroke:none"
           d="m 244.76833,418.43018 c -0.40015,-1.95788 0.87175,-3.85574 2.82678,-4.24732 1.95216,-0.383 3.85288,0.88891 4.23588,2.84393 0.39729,1.94931 -0.87462,3.85574 -2.82392,4.23303 -1.96074,0.38872 -3.86432,-0.88319 -4.23874,-2.82964"
           inkscape:connector-curvature="0" />
        <path
           id="path3139"
           style="fill:#e95d0f;fill-opacity:1;fill-rule:nonzero;stroke:none"
           d="m 214.1625,423.58927 c 0.02,-1.99218 1.65491,-3.58135 3.64995,-3.55563 1.99503,0.0314 3.58706,1.67206 3.54705,3.66138 -0.02,1.99218 -1.66063,3.58135 -3.64995,3.54991 -1.99504,-0.0314 -3.58135,-1.66634 -3.54705,-3.65566"
           inkscape:connector-curvature="0" />
        <path
           id="path3141"
           style="fill:#e95d0f;fill-opacity:1;fill-rule:nonzero;stroke:none"
           d="m 181.90462,422.0544 c 0.46303,-1.93501 2.39804,-3.13547 4.33592,-2.67529 1.9293,0.46017 3.13547,2.40662 2.66672,4.34164 -0.45732,1.93787 -2.39233,3.13546 -4.3445,2.66672 -1.9293,-0.45732 -3.11546,-2.39805 -2.65814,-4.33307"
           inkscape:connector-curvature="0" />
        <path
           id="path3143"
           style="fill:#e95d0f;fill-opacity:1;fill-rule:nonzero;stroke:none"
           d="m 156.02914,415.51765 c 0.8003,-1.82069 2.93825,-2.64957 4.76751,-1.85498 1.80926,0.81173 2.63814,2.93539 1.83784,4.75893 -0.80316,1.82069 -2.92682,2.65243 -4.75322,1.84641 -1.82069,-0.8003 -2.64385,-2.93253 -1.85213,-4.75036"
           inkscape:connector-curvature="0" />
        <path
           id="path3145"
           style="fill:#e95d0f;fill-opacity:1;fill-rule:nonzero;stroke:none"
           d="m 126.8953,401.52666 c 1.18044,-1.6006 3.43844,-1.94931 5.03904,-0.76886 1.60918,1.17759 1.94645,3.43558 0.75743,5.03333 -1.16616,1.60917 -3.42129,1.95788 -5.02475,0.78029 -1.60632,-1.17473 -1.94931,-3.43844 -0.77172,-5.04476"
           inkscape:connector-curvature="0" />
        <path
           id="path3147"
           style="fill:#e95d0f;fill-opacity:1;fill-rule:nonzero;stroke:none"
           d="m 104.42396,384.33446 c 1.47199,-1.34336 3.74999,-1.25476 5.10193,0.20865 1.34622,1.45484 1.25476,3.74713 -0.21151,5.09335 -1.46055,1.34908 -3.73855,1.25476 -5.09049,-0.20007 -1.35766,-1.46341 -1.26048,-3.74713 0.20007,-5.10193"
           inkscape:connector-curvature="0" />
        <path
           id="path3149"
           style="fill:#e95d0f;fill-opacity:1;fill-rule:nonzero;stroke:none"
           d="m 87.243198,365.32729 c 1.67206,-1.07469 3.890039,-0.59451 4.984738,1.08041 1.074691,1.67206 0.588793,3.91005 -1.100416,4.97616 -1.663484,1.07755 -3.890038,0.60309 -4.970446,-1.07469 -1.083265,-1.68063 -0.59451,-3.90719 1.086124,-4.98188"
           inkscape:connector-curvature="0" />
        <path
           id="path3151"
           style="fill:#e95d0f;fill-opacity:1;fill-rule:nonzero;stroke:none"
           d="m 73.901023,344.23076 c 1.840694,-0.78029 3.950061,0.0715 4.736072,1.9093 0.783153,1.8264 -0.07146,3.9472 -1.906433,4.71606 -1.83212,0.77458 -3.941487,-0.0686 -4.733214,-1.89214 -0.77172,-1.83498 0.07717,-3.95578 1.903575,-4.73322"
           inkscape:connector-curvature="0" />
        <path
           id="path3153"
           style="fill:#e95d0f;fill-opacity:1;fill-rule:nonzero;stroke:none"
           d="m 63.694316,319.21847 c 1.949307,-0.44016 3.867173,0.78601 4.310197,2.73246 0.440166,1.94073 -0.794585,3.86718 -2.741033,4.29877 -1.940732,0.43445 -3.858599,-0.78887 -4.301623,-2.73818 -0.428733,-1.93501 0.797444,-3.86431 2.732459,-4.29305"
           inkscape:connector-curvature="0" />
        <path
           id="path3155"
           style="fill:#e95d0f;fill-opacity:1;fill-rule:nonzero;stroke:none"
           d="m 57.720635,287.53795 c 1.995038,-0.006 3.607074,1.60918 3.607074,3.60708 0,1.9836 -1.612036,3.60421 -3.607074,3.60136 -1.977889,0.003 -3.598501,-1.60918 -3.607075,-3.5985 0,-1.99218 1.623469,-3.60994 3.607075,-3.60994"
           inkscape:connector-curvature="0" />
        <path
           id="path3157"
           style="fill:#e95d0f;fill-opacity:1;fill-rule:nonzero;stroke:none"
           d="m 58.212249,259.58169 c 1.955023,0.36586 3.235506,2.25514 2.863937,4.21874 -0.374427,1.95216 -2.272286,3.23836 -4.215876,2.85822 -1.952165,-0.37157 -3.238364,-2.258 -2.866795,-4.21302 0.374426,-1.95788 2.260852,-3.24122 4.218734,-2.86394"
           inkscape:connector-curvature="0" />
        <path
           id="path3159"
           style="fill:#e95d0f;fill-opacity:1;fill-rule:nonzero;stroke:none"
           d="m 64.446028,230.66793 c 1.846411,0.75457 2.729601,2.85822 1.966456,4.69892 -0.751712,1.84355 -2.861079,2.72674 -4.707489,1.96645 -1.837836,-0.75171 -2.71531,-2.85822 -1.963598,-4.69605 0.757428,-1.8407 2.866795,-2.72389 4.704631,-1.96932"
           inkscape:connector-curvature="0" />
        <path
           id="path3161"
           style="fill:#e95d0f;fill-opacity:1;fill-rule:nonzero;stroke:none"
           d="m 76.276205,203.66632 c 1.646335,1.10327 2.097934,3.34698 0.997519,4.99903 -1.106132,1.65491 -3.349835,2.09793 -5.001887,0.99466 -1.657768,-1.11185 -2.109367,-3.34984 -0.997519,-5.00189 1.106132,-1.64919 3.346977,-2.09793 5.001887,-0.9918"
           inkscape:connector-curvature="0" />
        <path
           id="path3163"
           style="fill:#e95d0f;fill-opacity:1;fill-rule:nonzero;stroke:none"
           d="m 94.668856,177.90517 c 1.386237,1.42626 1.334789,3.70997 -0.09718,5.10193 -1.437685,1.37766 -3.709971,1.33479 -5.096208,-0.10861 -1.377663,-1.42626 -1.340506,-3.70998 0.09432,-5.08764 1.426252,-1.37766 3.715687,-1.33765 5.099066,0.0943"
           inkscape:connector-curvature="0" />
        <path
           id="path3165"
           style="fill:#e95d0f;fill-opacity:1;fill-rule:nonzero;stroke:none"
           d="m 116.17983,158.09484 c 1.07469,1.67206 0.58307,3.90719 -1.10042,4.97331 -1.68349,1.07469 -3.9129,0.57736 -4.96473,-1.0947 -1.07469,-1.67778 -0.58879,-3.90719 1.08327,-4.97902 1.68063,-1.07469 3.90719,-0.5745 4.98188,1.10041"
           inkscape:connector-curvature="0" />
        <path
           id="path3167"
           style="fill:#e95d0f;fill-opacity:1;fill-rule:nonzero;stroke:none"
           d="m 139.66869,143.63796 c 0.75171,1.84356 -0.15435,3.93863 -2.00076,4.68463 -1.83498,0.74599 -3.94434,-0.16292 -4.68176,-2.00933 -0.74028,-1.8407 0.15434,-3.94149 2.00647,-4.68463 1.83783,-0.73456 3.94148,0.16292 4.67605,2.00933"
           inkscape:connector-curvature="0" />
        <path
           id="path3169"
           style="fill:#e95d0f;fill-opacity:1;fill-rule:nonzero;stroke:none"
           d="m 166.79606,133.4284 c 0.37157,1.95788 -0.92035,3.83859 -2.87537,4.2073 -1.95788,0.36299 -3.83859,-0.92606 -4.19873,-2.88966 -0.37442,-1.94645 0.90606,-3.83288 2.8668,-4.19873 1.95788,-0.36299 3.85288,0.92892 4.2073,2.88109"
           inkscape:connector-curvature="0" />
      </g>
    </g>
    <g
       id="g5758-17-6-5-8"
       transform="matrix(0.70481259,0,0,0.70300686,-413.76268,-396.57358)"
       style="stroke-width:1.2370317"
       inkscape:export-xdpi="72.097961"
       inkscape:export-ydpi="72.097961">
      <g
         id="surface63260-3-9-3-4"
         transform="translate(620.26597,600.27746)"
         style="stroke-width:1.2370317">
        <path
           id="path4943-0-8-5-2"
           transform="rotate(90)"
           d="m 6.351562,-65.542969 4.335938,0 c 1.847656,0 3.335938,1.488281 3.335938,3.335938 l 0,1 c 0,1.847656 -1.488282,3.335937 -3.335938,3.335937 l -4.335938,0 c -1.847656,0 -3.332031,-1.488281 -3.332031,-3.335937 l 0,-1 c 0,-1.847657 1.484375,-3.335938 3.332031,-3.335938 z m 0,0"
           style="fill:#000000;fill-opacity:1;fill-rule:nonzero;stroke:#ffffff;stroke-width:1.25035453;stroke-linecap:butt;stroke-linejoin:miter;stroke-miterlimit:4;stroke-opacity:1"
           inkscape:connector-curvature="0" />
        <path
           id="path4945-8-3-0-3"
           transform="scale(1,0.96136)"
           d="m 87.546875,42.099376 c 0,6.062375 -11.402344,10.97485 -25.472656,10.97485 -14.066407,0 -25.472657,-4.912475 -25.472657,-10.97485 0,-6.062375 11.40625,-10.974849 25.472657,-10.974849 14.070312,0 25.472656,4.912474 25.472656,10.974849 z m 0,0"
           style="opacity:1;fill:#cccccc;fill-opacity:1;fill-rule:nonzero;stroke:#ffffff;stroke-width:0.938604;stroke-linecap:round;stroke-linejoin:round;stroke-miterlimit:4;stroke-opacity:0.35882401"
           inkscape:connector-curvature="0" />
        <g
           id="g4947-2-8-5-2"
           clip-path="url(#clip1-86-9-3-9)"
           style="clip-rule:nonzero;stroke-width:1.2370317">
          <path
             id="path4949-8-6-9-3"
             d="m 71.5,37.671875 32.91406,-0.617187 c 1.13282,-0.02344 2.0625,0.875 2.08594,2.007812 l 0.0234,1.277344 c 0.0195,1.132812 -0.875,2.0625 -2.01172,2.085937 l -32.910158,0.617188 c -1.132812,0.01953 -2.0625,-0.875 -2.085937,-2.011719 l -0.02344,-1.273438 c -0.02344,-1.136718 0.875,-2.066406 2.007812,-2.085937 z m 0,0"
             style="opacity:1;fill:#cccccc;fill-opacity:1;fill-rule:nonzero;stroke:none;stroke-width:1.2370317"
             inkscape:connector-curvature="0" />
        </g>
        <path
           id="path4951-9-6-0-2"
           d="M 51.386719,61.96875 60.660156,30.386719 C 60.980469,29.296875 62.113281,28.679688 63.203125,29 l 1.222656,0.359375 c 1.089844,0.320313 1.707031,1.453125 1.386719,2.542969 L 56.539062,63.484375 C 56.222656,64.574219 55.085938,65.191406 54,64.871094 L 52.773438,64.511719 C 51.683594,64.195312 51.066406,63.058594 51.386719,61.96875 Z m 0,0"
           style="opacity:1;fill:#cccccc;fill-opacity:1;fill-rule:nonzero;stroke:none;stroke-width:1.2370317"
           inkscape:connector-curvature="0" />
        <g
           id="g4953-0-2-6-5"
           clip-path="url(#clip2-70-1-7-7)"
           style="clip-rule:nonzero;stroke-width:1.2370317">
          <path
             id="path4955-3-3-7-6"
             d="m 55.191406,58.453125 0,4.335937 c 0,1.847657 -1.488281,3.332032 -3.335937,3.332032 l -1.382813,0 c -1.847656,0 -3.335937,-1.484375 -3.335937,-3.332032 l 0,-4.335937 c 0,-1.847656 1.488281,-3.335937 3.335937,-3.335937 l 1.382813,0 c 1.847656,0 3.335937,1.488281 3.335937,3.335937 z m 0,0"
             style="fill:#233547;fill-opacity:1;fill-rule:nonzero;stroke:none;stroke-width:1.2370317"
             inkscape:connector-curvature="0" />
        </g>
        <g
           id="g4957-539-5-7-0"
           clip-path="url(#clip3-3-2-6-4)"
           style="clip-rule:nonzero;stroke-width:1.2370317">
          <path
             id="path4959-43-6-6-1"
             transform="rotate(90)"
             d="m 58.453125,-55.191406 4.335937,0 c 1.847657,0 3.332032,1.488281 3.332032,3.335937 l 0,1.382813 c 0,1.847656 -1.484375,3.335937 -3.332032,3.335937 l -4.335937,0 c -1.847656,0 -3.335937,-1.488281 -3.335937,-3.335937 l 0,-1.382813 c 0,-1.847656 1.488281,-3.335937 3.335937,-3.335937 z m 0,0"
             style="fill:#000000;fill-opacity:1;stroke:#ffffff;stroke-width:1.25035453;stroke-linecap:butt;stroke-linejoin:miter;stroke-miterlimit:4;stroke-opacity:1"
             inkscape:connector-curvature="0" />
        </g>
        <path
           id="path4961-5-3-8-8"
           d="M 68.605469,35.59375 99.378906,23.910156 c 1.058594,-0.40625 2.238284,0.125 2.640624,1.1875 l 0.45313,1.191406 c 0.40234,1.0625 -0.12891,2.238282 -1.1875,2.640626 l -30.773441,11.6875 c -1.0625,0.402343 -2.238281,-0.128907 -2.640625,-1.1875 l -0.453125,-1.195313 c -0.40625,-1.058594 0.125,-2.238281 1.1875,-2.640625 z m 0,0"
           style="opacity:1;fill:#cccccc;fill-opacity:1;fill-rule:nonzero;stroke:none;stroke-width:1.2370317"
           inkscape:connector-curvature="0" />
        <path
           id="path4963-7-6-3-5"
           d="m 102.83203,18.425781 0,5.601563 c 0,1.902344 -1.52734,3.433594 -3.429686,3.433594 l -0.902344,0 c -1.902344,0 -3.429688,-1.53125 -3.429688,-3.433594 l 0,-5.601563 c 0,-1.898437 1.527344,-3.429687 3.429688,-3.429687 l 0.902344,0 c 1.902346,0 3.429686,1.53125 3.429686,3.429687 z m 0,0"
           style="fill:#233547;fill-opacity:1;fill-rule:nonzero;stroke:none;stroke-width:1.2370317"
           inkscape:connector-curvature="0" />
        <g
           id="g4965-7-4-8-3"
           clip-path="url(#clip4-50-8-3-4)"
           style="clip-rule:nonzero;stroke-width:1.2370317">
          <path
             id="path4967-1-5-1-8"
             transform="rotate(90)"
             d="m 18.425781,-102.83203 5.601563,0 c 1.902344,0 3.433594,1.52734 3.433594,3.429686 l 0,0.902344 c 0,1.902344 -1.53125,3.429688 -3.433594,3.429688 l -5.601563,0 c -1.898437,0 -3.429687,-1.527344 -3.429687,-3.429688 l 0,-0.902344 c 0,-1.902346 1.53125,-3.429686 3.429687,-3.429686 z m 0,0"
             style="fill:#000000;fill-opacity:1;stroke:#ffffff;stroke-width:1.40060449;stroke-linecap:butt;stroke-linejoin:miter;stroke-miterlimit:4;stroke-opacity:1"
             inkscape:connector-curvature="0" />
        </g>
        <path
           id="path4969-4-7-3-7"
           transform="matrix(-1,-0.202187,0.202187,-1,0,0)"
           d="m -59.099316,3.894426 2.559024,0.00213 c 1.811882,-0.00306 3.270917,1.45585 3.270221,3.268491 l -0.0028,0.449787 c 0.0031,1.811881 -1.456609,3.267163 -3.264738,3.269462 l -2.562777,-0.0014 c -1.812641,-6.95e-4 -3.267164,-1.456609 -3.270222,-3.268491 l 0.0028,-0.449787 c 6.95e-4,-1.81264 1.455851,-3.270916 3.268492,-3.270221 z m 0,0"
           style="fill:#000000;fill-opacity:1;fill-rule:nonzero;stroke:#ffffff;stroke-width:1.14360988;stroke-linecap:butt;stroke-linejoin:miter;stroke-miterlimit:4;stroke-opacity:1"
           inkscape:connector-curvature="0" />
        <path
           id="path4971-6-0-0-3"
           transform="matrix(-0.96967,1,-1,-0.96967,0,0)"
           d="m -25.299912,-33.213528 5.507354,-4.73e-4 c 1.324769,5.68e-4 2.391159,1.068085 2.392543,2.394867 l 8.44e-4,0.717931 c -5.67e-4,1.324769 -1.068145,2.395124 -2.394866,2.392543 l -5.505402,0.0025 c -1.326722,-0.0026 -2.395124,-1.068145 -2.394495,-2.39688 l 0.0011,-0.715918 c -0.0014,-1.326782 1.068145,-2.395124 2.392914,-2.394556 z m 0,0"
           style="fill:#000000;fill-opacity:1;fill-rule:nonzero;stroke:#ffffff;stroke-width:0.83762127;stroke-linecap:butt;stroke-linejoin:miter;stroke-miterlimit:4;stroke-opacity:1"
           inkscape:connector-curvature="0" />
        <path
           id="path4973-6-9-4-3"
           d="M 17.953125,51.457031 49.09375,40.78125 c 1.074219,-0.367188 2.234375,0.203125 2.601562,1.273438 l 0.414063,1.207031 c 0.367187,1.074219 -0.199219,2.234375 -1.273437,2.601562 L 19.695312,56.539062 C 18.625,56.90625 17.464844,56.339844 17.09375,55.265625 l -0.414062,-1.207031 c -0.367188,-1.074219 0.203124,-2.234375 1.273437,-2.601563 z m 0,0"
           style="opacity:1;fill:#cccccc;fill-opacity:1;fill-rule:nonzero;stroke:none;stroke-width:1.2370317"
           inkscape:connector-curvature="0" />
        <path
           id="path4975-2-7-9-4"
           transform="matrix(0.272032,-1,1,0.272032,0,0)"
           d="m -36.109719,57.221437 13.202661,-0.0017 c 2.293283,0.0012 4.139079,1.846694 4.137925,4.139977 0.0015,2.288656 -1.844046,4.134452 -4.13634,4.136935 l -13.207288,-9.44e-4 c -2.293282,-0.0012 -4.135441,-1.847684 -4.136935,-4.13634 0.0012,-2.293283 1.846694,-4.139079 4.139977,-4.137925 z m 0,0"
           style="fill:#000000;fill-opacity:1;fill-rule:nonzero;stroke:#ffffff;stroke-width:1.20651042;stroke-linecap:butt;stroke-linejoin:miter;stroke-miterlimit:4;stroke-opacity:1"
           inkscape:connector-curvature="0" />
        <path
           id="path4977-99-9-2-8"
           transform="matrix(-1,0.192964,-0.277719,-0.979851,0,0)"
           d="m -23.943893,-24.943202 8.366843,0.0012 c 1.828852,-0.0026 3.298555,1.470825 3.299255,3.296815 l -0.0021,0.992238 c 7.01e-4,1.82599 -1.470686,3.298293 -3.298488,3.297132 l -8.363139,-5.13e-4 c -1.828852,0.0026 -3.302259,-1.471555 -3.302959,-3.297545 l 0.0021,-0.992239 c -7.01e-4,-1.825989 1.470686,-3.298292 3.298488,-3.297131 z m 0,0"
           style="fill:#000000;fill-opacity:1;fill-rule:nonzero;stroke:#ffffff;stroke-width:1.14771795;stroke-linecap:butt;stroke-linejoin:miter;stroke-miterlimit:4;stroke-opacity:1"
           inkscape:connector-curvature="0" />
        <path
           id="path4979-1-4-9-2"
           d="m 4.875,34.734375 38.324219,-0.597656 c 1.132812,-0.01953 2.066406,0.882812 2.089843,2.015625 l 0.02734,1.277344 c 0.02344,1.132812 -0.871094,2.0625 -2.007812,2.078124 L 4.988281,40.105469 C 3.851562,40.121094 2.917969,39.222656 2.898438,38.089844 L 2.871094,36.8125 C 2.847656,35.679688 3.742188,34.75 4.875,34.734375 Z m 0,0"
           style="opacity:1;fill:#cccccc;fill-opacity:1;fill-rule:nonzero;stroke:none;stroke-width:1.2370317"
           inkscape:connector-curvature="0" />
        <path
           id="path4981-7-1-7-3"
           transform="rotate(90)"
           d="m 31.714844,-7.972656 6.378906,0 c 1.847656,0 3.335938,1.488281 3.335938,3.335937 l 0,0.617188 c 0,1.847656 -1.488282,3.332031 -3.335938,3.332031 l -6.378906,0 c -1.847656,0 -3.332032,-1.484375 -3.332032,-3.332031 l 0,-0.617188 c 0,-1.847656 1.484376,-3.335937 3.332032,-3.335937 z m 0,0"
           style="fill:#000000;fill-opacity:1;fill-rule:nonzero;stroke:#ffffff;stroke-width:1.25035453;stroke-linecap:butt;stroke-linejoin:miter;stroke-miterlimit:4;stroke-opacity:1"
           inkscape:connector-curvature="0" />
        <path
           id="path4983-3-5-5-4"
           transform="matrix(1,-0.741373,0.741373,1,0,0)"
           d="M -9.920728,17.496603 0.1491,17.497257 c 2.263111,-0.0019 4.082879,1.194906 4.085449,2.67728 L 4.231641,21.1216 c 7.02e-4,1.484895 -1.818361,2.679259 -4.083993,2.679268 l -10.067307,0.0012 c -2.263763,-0.0025 -4.0854,-1.196774 -4.083581,-2.679801 l -0.0015,-0.946411 c -7.02e-4,-1.484895 1.822751,-2.679911 4.083993,-2.679268 z m 0,0"
           style="fill:#000000;fill-opacity:1;fill-rule:nonzero;stroke:#ffffff;stroke-width:1.00442779;stroke-linecap:butt;stroke-linejoin:miter;stroke-miterlimit:4;stroke-opacity:1"
           inkscape:connector-curvature="0" />
        <path
           id="path4985-2-4-0-5"
           transform="rotate(90)"
           d="m 48.5,-19.882812 5.484375,0 c 1.847656,0 3.332031,1.488281 3.332031,3.335937 l 0,1 c 0,1.847656 -1.484375,3.335937 -3.332031,3.335937 l -5.484375,0 c -1.847656,0 -3.335938,-1.488281 -3.335938,-3.335937 l 0,-1 c 0,-1.847656 1.488282,-3.335937 3.335938,-3.335937 z m 0,0"
           style="fill:#000000;fill-opacity:1;fill-rule:nonzero;stroke:#ffffff;stroke-width:1.25035453;stroke-linecap:butt;stroke-linejoin:miter;stroke-miterlimit:4;stroke-opacity:1"
           inkscape:connector-curvature="0" />
        <path
           id="path4987-1-8-5-4"
           transform="matrix(1,0.00721611,-0.00939568,0.768023,0,0)"
           d="m 74.873208,30.159034 c -0.0031,7.156187 -9.35088,12.960804 -20.886022,12.962376 -11.535141,0.0016 -20.886576,-5.805366 -20.887455,-12.966602 -8.3e-4,-7.15615 9.350881,-12.960804 20.886022,-12.962376 11.53519,0.0035 20.886577,5.805366 20.887455,12.966602 z m 0,0"
           style="fill:#e95d0f;fill-opacity:1;fill-rule:nonzero;stroke:#ffffff;stroke-width:1.00792968;stroke-linecap:butt;stroke-linejoin:miter;stroke-miterlimit:4;stroke-opacity:1"
           inkscape:connector-curvature="0" />
        <path
           id="path4989-2-9-9-2"
           transform="matrix(-0.373445,1,-1,-0.373445,0,0)"
           d="m 10.093317,-65.292736 0.312659,4.26e-4 c 1.731191,0.0019 3.122981,1.396239 3.124476,3.126149 l -0.0026,0.93455 c 0.0028,1.733338 -1.39153,3.125128 -3.12144,3.126624 l -0.31266,-4.27e-4 c -1.73119,-0.0019 -3.12298,-1.396238 -3.124475,-3.126149 l 0.00128,-0.937977 c -0.00149,-1.729911 1.39281,-3.121701 3.122721,-3.123196 z m 0,0"
           style="fill:#000000;fill-opacity:1;fill-rule:nonzero;stroke:#ffffff;stroke-width:1.0930202;stroke-linecap:butt;stroke-linejoin:miter;stroke-miterlimit:4;stroke-opacity:1"
           inkscape:connector-curvature="0" />
        <path
           id="path4991-1-5-1-4"
           d="m 88.683594,9.605469 10.035156,3.945312 c 2.09766,0.824219 3.23828,2.871094 2.5625,4.589844 l -0.41016,1.042969 c -0.67578,1.71875 -2.906246,2.441406 -4.999996,1.617187 L 85.832031,16.855469 c -2.09375,-0.824219 -3.238281,-2.871094 -2.5625,-4.589844 L 83.679688,11.21875 C 84.359375,9.5 86.589844,8.78125 88.683594,9.605469 Z m 0,0"
           style="fill:#233547;fill-opacity:1;fill-rule:nonzero;stroke:none;stroke-width:1.2370317"
           inkscape:connector-curvature="0" />
        <g
           id="g4993-10-3-0-3"
           clip-path="url(#clip5-2-2-2-1)"
           style="clip-rule:nonzero;stroke-width:1.2370317">
          <path
             id="path4995-8-0-8-9"
             transform="matrix(1,0.393155,-0.393155,1,0,0)"
             d="m 80.08173,-21.879064 10.035136,-5.1e-5 c 2.097491,-4.21e-4 3.782415,1.384018 3.782375,3.102784 l -9.3e-5,1.043005 c -4e-5,1.718766 -1.68582,3.104195 -3.779928,3.103285 l -10.038519,0.0014 c -2.094108,-9.1e-4 -3.782415,-1.384019 -3.782375,-3.102784 l -0.0012,-1.046389 c 0.0034,-1.720096 1.690534,-3.102142 3.784641,-3.101232 z m 0,0"
             style="fill:#000000;fill-opacity:1;stroke:#ffffff;stroke-width:1.08584547;stroke-linecap:butt;stroke-linejoin:miter;stroke-miterlimit:4;stroke-opacity:1"
             inkscape:connector-curvature="0" />
        </g>
        <path
           id="path4997-86-0-4-1"
           transform="matrix(1,-0.228329,0.228329,1,0,0)"
           d="m 69.729176,26.249318 6.367038,6.54e-4 c 2.363163,5.17e-4 4.262704,1.449862 4.265453,3.251271 l -9.3e-5,1.437479 c -9.64e-4,1.800561 -1.902913,3.253009 -4.266076,3.252493 l -6.367038,-6.54e-4 c -2.363164,-5.17e-4 -4.262705,-1.449862 -4.261741,-3.250423 l 9.3e-5,-1.437479 c -0.0019,-1.805121 1.8992,-3.253857 4.262364,-3.253341 z m 0,0"
           style="fill:#000000;fill-opacity:1;fill-rule:nonzero;stroke:#ffffff;stroke-width:1.21898341;stroke-linecap:butt;stroke-linejoin:miter;stroke-miterlimit:4;stroke-opacity:1"
           inkscape:connector-curvature="0" />
        <path
           id="path4999-75-8-9-7"
           transform="matrix(1,0.00721611,-0.00939568,0.768023,0,0)"
           d="m 74.387461,24.192504 c 8.31e-4,7.15615 -9.35088,12.960804 -20.886022,12.962376 -11.535141,0.0016 -20.886577,-5.805366 -20.887407,-12.961516 0.003,-7.161273 9.350833,-12.96589 20.885974,-12.967462 11.535189,0.0035 20.886577,5.805366 20.887455,12.966602 z m 0,0"
           style="fill:#e95d0f;fill-opacity:1;fill-rule:nonzero;stroke:#ffffff;stroke-width:1.00792968;stroke-linecap:butt;stroke-linejoin:miter;stroke-miterlimit:4;stroke-opacity:1"
           inkscape:connector-curvature="0" />
        <g
           id="g5001-4-1-9-9"
           clip-path="url(#clip6-9-9-1-9)"
           style="clip-rule:nonzero;stroke-width:1.2370317">
          <path
             id="path5003-7-8-4-1"
             d="m 106.08203,31.039062 0,7.957032 c 0,1.847656 -1.48437,3.335937 -3.33203,3.335937 l -0.61719,0 c -1.84765,0 -3.335935,-1.488281 -3.335935,-3.335937 l 0,-7.957032 c 0,-1.847656 1.488285,-3.335937 3.335935,-3.335937 l 0.61719,0 c 1.84766,0 3.33203,1.488281 3.33203,3.335937 z m 0,0"
             style="fill:#233547;fill-opacity:1;fill-rule:nonzero;stroke:none;stroke-width:1.2370317"
             inkscape:connector-curvature="0" />
        </g>
        <g
           id="g5005-43-5-0-9"
           clip-path="url(#clip7-91-2-6-6)"
           style="clip-rule:nonzero;stroke-width:1.2370317">
          <path
             id="path5007-7-5-0-5"
             transform="rotate(90)"
             d="m 31.039062,-106.08203 7.957032,0 c 1.847656,0 3.335937,1.48437 3.335937,3.33203 l 0,0.61719 c 0,1.84765 -1.488281,3.335935 -3.335937,3.335935 l -7.957032,0 c -1.847656,0 -3.335937,-1.488285 -3.335937,-3.335935 l 0,-0.61719 c 0,-1.84766 1.488281,-3.33203 3.335937,-3.33203 z m 0,0"
             style="fill:#000000;fill-opacity:1;stroke:#ffffff;stroke-width:1.16675091;stroke-linecap:butt;stroke-linejoin:miter;stroke-miterlimit:4;stroke-opacity:1"
             inkscape:connector-curvature="0" />
        </g>
        <path
           id="path5009-9-7-2-3"
           d="m 94.425781,23.050781 8.437499,3.175781 c 1.67578,0.632813 2.57422,2.34375 2.01563,3.832032 l -0.47657,1.261718 c -0.5625,1.492188 -2.36328,2.183594 -4.04296,1.550782 L 91.921875,29.695312 C 90.246094,29.0625 89.347656,27.355469 89.90625,25.863281 l 0.476562,-1.261719 c 0.5625,-1.492187 2.363282,-2.183593 4.042969,-1.550781 z m 0,0"
           style="fill:#233547;fill-opacity:1;fill-rule:nonzero;stroke:none;stroke-width:1.2370317"
           inkscape:connector-curvature="0" />
        <g
           id="g5011-19-4-7-2"
           clip-path="url(#clip8-9-2-2-3)"
           style="clip-rule:nonzero;stroke-width:1.2370317">
          <path
             id="path5013-8-5-4-1"
             transform="matrix(1,0.376556,-0.376556,1,0,0)"
             d="m 90.301449,-10.952771 8.437035,-0.0012 c 1.676376,0.0016 3.027486,1.20373 3.029096,2.691409 l -10e-4,1.262198 c -5.3e-4,1.492388 -1.34966,2.691817 -3.029452,2.69154 l -8.437035,0.00124 c -1.67637,-0.00157 -3.026202,-1.200309 -3.029091,-2.691409 l 0.0013,-1.262198 c 5.33e-4,-1.492388 1.349662,-2.691817 3.029453,-2.69154 z m 0,0"
             style="fill:#000000;fill-opacity:1;stroke:#ffffff;stroke-width:1.09190309;stroke-linecap:butt;stroke-linejoin:miter;stroke-miterlimit:4;stroke-opacity:1"
             inkscape:connector-curvature="0" />
        </g>
        <path
           id="path5015-2-7-6-2"
           transform="matrix(-1,0.0687468,-0.142308,-0.992207,0,0)"
           d="m -83.875394,-34.775451 10.13263,0.0013 c 1.851792,-0.0016 3.346317,1.491673 3.348044,3.346087 l -0.0012,1.161311 c 0.0017,1.854414 -1.492256,3.349295 -3.347916,3.350641 l -10.13263,-0.0013 c -1.85566,0.0013 -3.350185,-1.491942 -3.348044,-3.346088 l -0.0021,-1.165477 c 0.0021,-1.854146 1.49557,-3.345128 3.35123,-3.346474 z m 0,0"
           style="fill:#000000;fill-opacity:1;fill-rule:nonzero;stroke:#ffffff;stroke-width:1.16400349;stroke-linecap:butt;stroke-linejoin:miter;stroke-miterlimit:4;stroke-opacity:1"
           inkscape:connector-curvature="0" />
        <path
           id="path5017-38-2-1-8"
           transform="scale(0.805594,1)"
           d="m 75.812653,22.546875 c 0,2.371094 -1.920167,4.289063 -4.286433,4.289063 -2.366266,0 -4.286433,-1.917969 -4.286433,-4.289063 0,-2.367187 1.920167,-4.289063 4.286433,-4.289063 2.366266,0 4.286433,1.921876 4.286433,4.289063 z m 0,0"
           style="fill:#000000;fill-opacity:1;fill-rule:nonzero;stroke:#ffffff;stroke-width:1.17882812;stroke-linecap:round;stroke-linejoin:round;stroke-miterlimit:4;stroke-opacity:1"
           inkscape:connector-curvature="0" />
        <path
           transform="scale(0.805594,1)"
           id="path5019-3-4-9-4"
           d="m 86.228105,18.875 c 0,2.367188 -1.920167,4.285156 -4.291283,4.285156 -2.366266,0 -4.286433,-1.917968 -4.286433,-4.285156 0,-2.371094 1.920167,-4.289062 4.286433,-4.289062 2.371116,0 4.291283,1.917968 4.291283,4.289062 z m 0,0"
           style="fill:#000000;fill-opacity:1;fill-rule:nonzero;stroke:#ffffff;stroke-width:1.17882812;stroke-linecap:round;stroke-linejoin:round;stroke-miterlimit:4;stroke-opacity:1"
           inkscape:connector-curvature="0" />
        <path
           id="path5021-8-3-3-2"
           transform="matrix(0.801241,-1,1,0.801241,0,0)"
           d="m -18.315091,28.76074 10.42909,-7.46e-4 c 2.012406,8.58e-4 3.632444,1.159849 3.633536,2.604287 l -0.00132,0.778397 c -8.13e-4,1.442059 -1.621,2.6035 -3.633407,2.602642 l -10.42909,7.45e-4 c -2.012407,-8.58e-4 -3.632444,-1.159849 -3.63163,-2.601907 l -5.91e-4,-0.780777 c 8.14e-4,-1.442059 1.618622,-2.601594 3.633408,-2.602641 z m 0,0"
           style="fill:#000000;fill-opacity:1;fill-rule:nonzero;stroke:#ffffff;stroke-width:0.9757731;stroke-linecap:butt;stroke-linejoin:miter;stroke-miterlimit:4;stroke-opacity:1"
           inkscape:connector-curvature="0" />
        <path
           id="path5023-6-3-6-7"
           transform="matrix(-1,0.704483,-0.704483,-1,0,0)"
           d="m -7.906475,-36.773102 1.038341,0.001 c 1.51239,-9.54e-4 2.726815,1.213963 2.727768,2.726353 l -6.19e-4,0.815971 c -0.00166,1.510551 -1.216574,2.724975 -2.726353,2.727767 l -1.038341,-0.001 c -1.51239,9.53e-4 -2.729425,-1.215803 -2.727768,-2.726354 l 6.19e-4,-0.81597 c -9.53e-4,-1.51239 1.213963,-2.726815 2.726353,-2.727768 z m 0,0"
           style="fill:#000000;fill-opacity:1;fill-rule:nonzero;stroke:#ffffff;stroke-width:1.02217293;stroke-linecap:butt;stroke-linejoin:miter;stroke-miterlimit:4;stroke-opacity:1"
           inkscape:connector-curvature="0" />
      </g>
    </g>
    <text
       transform="scale(0.99989932,1.0001007)"
       sodipodi:linespacing="125%"
       id="text6589-3"
       y="84.718376"
       x="76.959167"
       style="font-style:normal;font-weight:normal;font-size:6.255826px;line-height:125%;font-family:sans-serif;letter-spacing:0px;word-spacing:0px;fill:#e95d0f;fill-opacity:1;stroke:none;stroke-width:0.11961871px;stroke-linecap:butt;stroke-linejoin:miter;stroke-opacity:1"
       xml:space="preserve"
       inkscape:export-xdpi="72.097961"
       inkscape:export-ydpi="72.097961"><tspan
         style="font-style:normal;font-variant:normal;font-weight:500;font-stretch:normal;font-size:16.65887451px;font-family:'Bauhaus Std';-inkscape-font-specification:'Bauhaus Std Medium';fill:#e95d0f;fill-opacity:1;stroke-width:0.11961871px"
         y="84.718376"
         x="76.959167"
         id="tspan6591-9"
         sodipodi:role="line">bots</tspan></text>
    <text
       transform="scale(0.99989932,1.0001007)"
       sodipodi:linespacing="125%"
       id="text6585-0"
       y="84.718376"
       x="50.89748"
       style="font-style:normal;font-weight:normal;font-size:16.7075882px;line-height:125%;font-family:sans-serif;letter-spacing:0px;word-spacing:0px;fill:#000000;fill-opacity:1;stroke:none;stroke-width:0.11961871px;stroke-linecap:butt;stroke-linejoin:miter;stroke-opacity:1"
       xml:space="preserve"
       inkscape:export-xdpi="72.097961"
       inkscape:export-ydpi="72.097961"><tspan
         style="font-style:normal;font-variant:normal;font-weight:500;font-stretch:normal;font-size:16.65887451px;font-family:'Bauhaus Std';-inkscape-font-specification:'Bauhaus Std Medium';fill:#000000;fill-opacity:1;stroke-width:0.11961871px"
         y="84.718376"
         x="50.89748"
         id="tspan6587-2"
         sodipodi:role="line">resi</tspan></text>
  </g>
</svg>
