<?xml version="1.0" encoding="UTF-8" standalone="no"?>
<!-- Created with Inkscape (http://www.inkscape.org/) -->

<svg
   xmlns:dc="http://purl.org/dc/elements/1.1/"
   xmlns:cc="http://creativecommons.org/ns#"
   xmlns:rdf="http://www.w3.org/1999/02/22-rdf-syntax-ns#"
   xmlns:svg="http://www.w3.org/2000/svg"
   xmlns="http://www.w3.org/2000/svg"
   xmlns:sodipodi="http://sodipodi.sourceforge.net/DTD/sodipodi-0.dtd"
   xmlns:inkscape="http://www.inkscape.org/namespaces/inkscape"
   width="150.85782mm"
   height="52.194748mm"
   viewBox="0 0 150.85782 52.194748"
   id="svg6900"
   version="1.1"
   inkscape:version="0.91+devel+osxmenu r12922"
   sodipodi:docname="resibots_logo.svg">
  <defs
     id="defs6902">
    <clipPath
       id="clip1-86-9-3">
      <path
         inkscape:connector-curvature="0"
         d="m 69,37 37.55469,0 0,7 L 69,44 Z m 0,0"
         id="path4919-2-5-3" />
    </clipPath>
    <clipPath
       id="clip2-70-1-7">
      <path
         inkscape:connector-curvature="0"
         d="m 47,55 9,0 0,11.625 -9,0 z m 0,0"
         id="path4922-3-3-7" />
    </clipPath>
    <clipPath
       id="clip3-3-2-6">
      <path
         inkscape:connector-curvature="0"
         d="m 41,49 20,0 0,17.625 -20,0 z m 0,0"
         id="path4925-3-4-1" />
    </clipPath>
    <clipPath
       id="clip4-50-8-3">
      <path
         inkscape:connector-curvature="0"
         d="m 88,8 18.55469,0 0,26 L 88,34 Z m 0,0"
         id="path4928-9-9-4" />
    </clipPath>
    <clipPath
       id="clip5-2-2-2">
      <path
         inkscape:connector-curvature="0"
         d="m 77,3 29.55469,0 0,24 L 77,27 Z m 0,0"
         id="path4931-7-7-8" />
    </clipPath>
    <clipPath
       id="clip6-9-9-1">
      <path
         inkscape:connector-curvature="0"
         d="m 98,27 8.55469,0 0,16 L 98,43 Z m 0,0"
         id="path4934-8-3-2" />
    </clipPath>
    <clipPath
       id="clip7-91-2-6">
      <path
         inkscape:connector-curvature="0"
         d="m 93,22 13.55469,0 0,26 L 93,48 Z m 0,0"
         id="path4937-5-7-2" />
    </clipPath>
    <clipPath
       id="clip8-9-2-2">
      <path
         inkscape:connector-curvature="0"
         d="m 84,17 22.55469,0 0,22 L 84,39 Z m 0,0"
         id="path4940-04-3-9" />
    </clipPath>
  </defs>
  <sodipodi:namedview
     id="base"
     pagecolor="#ffffff"
     bordercolor="#666666"
     borderopacity="1.0"
     inkscape:pageopacity="0.0"
     inkscape:pageshadow="2"
     inkscape:zoom="0.35"
     inkscape:cx="1957.9428"
     inkscape:cy="-841.36428"
     inkscape:document-units="mm"
     inkscape:current-layer="layer1"
     showgrid="false"
     fit-margin-top="0.1"
     fit-margin-left="0.1"
     fit-margin-right="0.1"
     fit-margin-bottom="0.1"
     inkscape:window-width="1920"
     inkscape:window-height="1080"
     inkscape:window-x="0"
     inkscape:window-y="22"
     inkscape:window-maximized="0" />
  <metadata
     id="metadata6905">
    <rdf:RDF>
      <cc:Work
         rdf:about="">
        <dc:format>image/svg+xml</dc:format>
        <dc:type
           rdf:resource="http://purl.org/dc/dcmitype/StillImage" />
        <dc:title></dc:title>
      </cc:Work>
    </rdf:RDF>
  </metadata>
  <g
     inkscape:label="Layer 1"
     inkscape:groupmode="layer"
     id="layer1"
     transform="translate(538.82772,125.97237)">
    <text
       transform="scale(0.99989932,1.0001007)"
       sodipodi:linespacing="125%"
       id="text6585"
       y="-74.664818"
       x="-523.48456"
       style="font-style:normal;font-weight:normal;font-size:36.95533371px;line-height:125%;font-family:sans-serif;letter-spacing:0px;word-spacing:0px;fill:#000000;fill-opacity:1;stroke:none;stroke-width:0.26458338px;stroke-linecap:butt;stroke-linejoin:miter;stroke-opacity:1"
       xml:space="preserve"
       inkscape:export-xdpi="95.929977"
       inkscape:export-ydpi="95.929977"><tspan
         style="font-style:normal;font-variant:normal;font-weight:500;font-stretch:normal;font-size:36.84758377px;font-family:'Bauhaus Std';-inkscape-font-specification:'Bauhaus Std Medium';fill:#000000;fill-opacity:1;stroke-width:0.26458338px"
         y="-74.664818"
         x="-523.48456"
         id="tspan6587"
         sodipodi:role="line">resi</tspan></text>
    <text
       transform="scale(0.99989932,1.0001007)"
       sodipodi:linespacing="125%"
       id="text6589"
       y="-74.238663"
       x="-467.44095"
       style="font-style:normal;font-weight:normal;font-size:13.83719349px;line-height:125%;font-family:sans-serif;letter-spacing:0px;word-spacing:0px;fill:#e95d0f;fill-opacity:1;stroke:none;stroke-width:0.26458338px;stroke-linecap:butt;stroke-linejoin:miter;stroke-opacity:1"
       xml:space="preserve"
       inkscape:export-xdpi="95.929977"
       inkscape:export-ydpi="95.929977"><tspan
         style="font-style:normal;font-variant:normal;font-weight:500;font-stretch:normal;font-size:36.84758377px;font-family:'Bauhaus Std';-inkscape-font-specification:'Bauhaus Std Medium';fill:#e95d0f;fill-opacity:1;stroke-width:0.26458338px"
         y="-74.238663"
         x="-467.44095"
         id="tspan6591"
         sodipodi:role="line">bots</tspan></text>
    <g
       id="g5758-17-6-5"
       transform="matrix(0.50424781,0,0,0.50295596,-754.56763,-425.7086)"
       style="stroke-width:1.2370317"
       inkscape:export-xdpi="95.929977"
       inkscape:export-ydpi="95.929977">
      <g
         id="surface63260-3-9-3"
         transform="translate(620.26597,600.27746)"
         style="stroke-width:1.2370317">
        <path
           id="path4943-0-8-5"
           transform="rotate(90)"
           d="m 6.351562,-65.542969 4.335938,0 c 1.847656,0 3.335938,1.488281 3.335938,3.335938 l 0,1 c 0,1.847656 -1.488282,3.335937 -3.335938,3.335937 l -4.335938,0 c -1.847656,0 -3.332031,-1.488281 -3.332031,-3.335937 l 0,-1 c 0,-1.847657 1.484375,-3.335938 3.332031,-3.335938 z m 0,0"
           style="fill:#000000;fill-opacity:1;fill-rule:nonzero;stroke:#ffffff;stroke-width:1.25035453;stroke-linecap:butt;stroke-linejoin:miter;stroke-miterlimit:4;stroke-opacity:1"
           inkscape:connector-curvature="0" />
        <path
           id="path4945-8-3-0"
           transform="scale(1,0.96136)"
           d="m 87.546875,42.099376 c 0,6.062375 -11.402344,10.97485 -25.472656,10.97485 -14.066407,0 -25.472657,-4.912475 -25.472657,-10.97485 0,-6.062375 11.40625,-10.974849 25.472657,-10.974849 14.070312,0 25.472656,4.912474 25.472656,10.974849 z m 0,0"
           style="opacity:1;fill:#cccccc;fill-opacity:1;fill-rule:nonzero;stroke:#ffffff;stroke-width:0.938604;stroke-linecap:round;stroke-linejoin:round;stroke-miterlimit:4;stroke-opacity:0.35882401"
           inkscape:connector-curvature="0" />
        <g
           id="g4947-2-8-5"
           clip-path="url(#clip1-86-9-3)"
           style="clip-rule:nonzero;stroke-width:1.2370317">
          <path
             id="path4949-8-6-9"
             d="m 71.5,37.671875 32.91406,-0.617187 c 1.13282,-0.02344 2.0625,0.875 2.08594,2.007812 l 0.0234,1.277344 c 0.0195,1.132812 -0.875,2.0625 -2.01172,2.085937 l -32.910158,0.617188 c -1.132812,0.01953 -2.0625,-0.875 -2.085937,-2.011719 l -0.02344,-1.273438 c -0.02344,-1.136718 0.875,-2.066406 2.007812,-2.085937 z m 0,0"
             style="opacity:1;fill:#cccccc;fill-opacity:1;fill-rule:nonzero;stroke:none;stroke-width:1.2370317"
             inkscape:connector-curvature="0" />
        </g>
        <path
           id="path4951-9-6-0"
           d="M 51.386719,61.96875 60.660156,30.386719 C 60.980469,29.296875 62.113281,28.679688 63.203125,29 l 1.222656,0.359375 c 1.089844,0.320313 1.707031,1.453125 1.386719,2.542969 L 56.539062,63.484375 C 56.222656,64.574219 55.085938,65.191406 54,64.871094 L 52.773438,64.511719 C 51.683594,64.195312 51.066406,63.058594 51.386719,61.96875 Z m 0,0"
           style="opacity:1;fill:#cccccc;fill-opacity:1;fill-rule:nonzero;stroke:none;stroke-width:1.2370317"
           inkscape:connector-curvature="0" />
        <g
           id="g4953-0-2-6"
           clip-path="url(#clip2-70-1-7)"
           style="clip-rule:nonzero;stroke-width:1.2370317">
          <path
             id="path4955-3-3-7"
             d="m 55.191406,58.453125 0,4.335937 c 0,1.847657 -1.488281,3.332032 -3.335937,3.332032 l -1.382813,0 c -1.847656,0 -3.335937,-1.484375 -3.335937,-3.332032 l 0,-4.335937 c 0,-1.847656 1.488281,-3.335937 3.335937,-3.335937 l 1.382813,0 c 1.847656,0 3.335937,1.488281 3.335937,3.335937 z m 0,0"
             style="fill:#233547;fill-opacity:1;fill-rule:nonzero;stroke:none;stroke-width:1.2370317"
             inkscape:connector-curvature="0" />
        </g>
        <g
           id="g4957-539-5-7"
           clip-path="url(#clip3-3-2-6)"
           style="clip-rule:nonzero;stroke-width:1.2370317">
          <path
             id="path4959-43-6-6"
             transform="rotate(90)"
             d="m 58.453125,-55.191406 4.335937,0 c 1.847657,0 3.332032,1.488281 3.332032,3.335937 l 0,1.382813 c 0,1.847656 -1.484375,3.335937 -3.332032,3.335937 l -4.335937,0 c -1.847656,0 -3.335937,-1.488281 -3.335937,-3.335937 l 0,-1.382813 c 0,-1.847656 1.488281,-3.335937 3.335937,-3.335937 z m 0,0"
             style="fill:#000000;fill-opacity:1;stroke:#ffffff;stroke-width:1.25035453;stroke-linecap:butt;stroke-linejoin:miter;stroke-miterlimit:4;stroke-opacity:1"
             inkscape:connector-curvature="0" />
        </g>
        <path
           id="path4961-5-3-8"
           d="M 68.605469,35.59375 99.378906,23.910156 c 1.058594,-0.40625 2.238284,0.125 2.640624,1.1875 l 0.45313,1.191406 c 0.40234,1.0625 -0.12891,2.238282 -1.1875,2.640626 l -30.773441,11.6875 c -1.0625,0.402343 -2.238281,-0.128907 -2.640625,-1.1875 l -0.453125,-1.195313 c -0.40625,-1.058594 0.125,-2.238281 1.1875,-2.640625 z m 0,0"
           style="opacity:1;fill:#cccccc;fill-opacity:1;fill-rule:nonzero;stroke:none;stroke-width:1.2370317"
           inkscape:connector-curvature="0" />
        <path
           id="path4963-7-6-3"
           d="m 102.83203,18.425781 0,5.601563 c 0,1.902344 -1.52734,3.433594 -3.429686,3.433594 l -0.902344,0 c -1.902344,0 -3.429688,-1.53125 -3.429688,-3.433594 l 0,-5.601563 c 0,-1.898437 1.527344,-3.429687 3.429688,-3.429687 l 0.902344,0 c 1.902346,0 3.429686,1.53125 3.429686,3.429687 z m 0,0"
           style="fill:#233547;fill-opacity:1;fill-rule:nonzero;stroke:none;stroke-width:1.2370317"
           inkscape:connector-curvature="0" />
        <g
           id="g4965-7-4-8"
           clip-path="url(#clip4-50-8-3)"
           style="clip-rule:nonzero;stroke-width:1.2370317">
          <path
             id="path4967-1-5-1"
             transform="rotate(90)"
             d="m 18.425781,-102.83203 5.601563,0 c 1.902344,0 3.433594,1.52734 3.433594,3.429686 l 0,0.902344 c 0,1.902344 -1.53125,3.429688 -3.433594,3.429688 l -5.601563,0 c -1.898437,0 -3.429687,-1.527344 -3.429687,-3.429688 l 0,-0.902344 c 0,-1.902346 1.53125,-3.429686 3.429687,-3.429686 z m 0,0"
             style="fill:#000000;fill-opacity:1;stroke:#ffffff;stroke-width:1.40060449;stroke-linecap:butt;stroke-linejoin:miter;stroke-miterlimit:4;stroke-opacity:1"
             inkscape:connector-curvature="0" />
        </g>
        <path
           id="path4969-4-7-3"
           transform="matrix(-1,-0.202187,0.202187,-1,0,0)"
           d="m -59.099316,3.894426 2.559024,0.00213 c 1.811882,-0.00306 3.270917,1.45585 3.270221,3.268491 l -0.0028,0.449787 c 0.0031,1.811881 -1.456609,3.267163 -3.264738,3.269462 l -2.562777,-0.0014 c -1.812641,-6.95e-4 -3.267164,-1.456609 -3.270222,-3.268491 l 0.0028,-0.449787 c 6.95e-4,-1.81264 1.455851,-3.270916 3.268492,-3.270221 z m 0,0"
           style="fill:#000000;fill-opacity:1;fill-rule:nonzero;stroke:#ffffff;stroke-width:1.14360988;stroke-linecap:butt;stroke-linejoin:miter;stroke-miterlimit:4;stroke-opacity:1"
           inkscape:connector-curvature="0" />
        <path
           id="path4971-6-0-0"
           transform="matrix(-0.96967,1,-1,-0.96967,0,0)"
           d="m -25.299912,-33.213528 5.507354,-4.73e-4 c 1.324769,5.68e-4 2.391159,1.068085 2.392543,2.394867 l 8.44e-4,0.717931 c -5.67e-4,1.324769 -1.068145,2.395124 -2.394866,2.392543 l -5.505402,0.0025 c -1.326722,-0.0026 -2.395124,-1.068145 -2.394495,-2.39688 l 0.0011,-0.715918 c -0.0014,-1.326782 1.068145,-2.395124 2.392914,-2.394556 z m 0,0"
           style="fill:#000000;fill-opacity:1;fill-rule:nonzero;stroke:#ffffff;stroke-width:0.83762127;stroke-linecap:butt;stroke-linejoin:miter;stroke-miterlimit:4;stroke-opacity:1"
           inkscape:connector-curvature="0" />
        <path
           id="path4973-6-9-4"
           d="M 17.953125,51.457031 49.09375,40.78125 c 1.074219,-0.367188 2.234375,0.203125 2.601562,1.273438 l 0.414063,1.207031 c 0.367187,1.074219 -0.199219,2.234375 -1.273437,2.601562 L 19.695312,56.539062 C 18.625,56.90625 17.464844,56.339844 17.09375,55.265625 l -0.414062,-1.207031 c -0.367188,-1.074219 0.203124,-2.234375 1.273437,-2.601563 z m 0,0"
           style="opacity:1;fill:#cccccc;fill-opacity:1;fill-rule:nonzero;stroke:none;stroke-width:1.2370317"
           inkscape:connector-curvature="0" />
        <path
           id="path4975-2-7-9"
           transform="matrix(0.272032,-1,1,0.272032,0,0)"
           d="m -36.109719,57.221437 13.202661,-0.0017 c 2.293283,0.0012 4.139079,1.846694 4.137925,4.139977 0.0015,2.288656 -1.844046,4.134452 -4.13634,4.136935 l -13.207288,-9.44e-4 c -2.293282,-0.0012 -4.135441,-1.847684 -4.136935,-4.13634 0.0012,-2.293283 1.846694,-4.139079 4.139977,-4.137925 z m 0,0"
           style="fill:#000000;fill-opacity:1;fill-rule:nonzero;stroke:#ffffff;stroke-width:1.20651042;stroke-linecap:butt;stroke-linejoin:miter;stroke-miterlimit:4;stroke-opacity:1"
           inkscape:connector-curvature="0" />
        <path
           id="path4977-99-9-2"
           transform="matrix(-1,0.192964,-0.277719,-0.979851,0,0)"
           d="m -23.943893,-24.943202 8.366843,0.0012 c 1.828852,-0.0026 3.298555,1.470825 3.299255,3.296815 l -0.0021,0.992238 c 7.01e-4,1.82599 -1.470686,3.298293 -3.298488,3.297132 l -8.363139,-5.13e-4 c -1.828852,0.0026 -3.302259,-1.471555 -3.302959,-3.297545 l 0.0021,-0.992239 c -7.01e-4,-1.825989 1.470686,-3.298292 3.298488,-3.297131 z m 0,0"
           style="fill:#000000;fill-opacity:1;fill-rule:nonzero;stroke:#ffffff;stroke-width:1.14771795;stroke-linecap:butt;stroke-linejoin:miter;stroke-miterlimit:4;stroke-opacity:1"
           inkscape:connector-curvature="0" />
        <path
           id="path4979-1-4-9"
           d="m 4.875,34.734375 38.324219,-0.597656 c 1.132812,-0.01953 2.066406,0.882812 2.089843,2.015625 l 0.02734,1.277344 c 0.02344,1.132812 -0.871094,2.0625 -2.007812,2.078124 L 4.988281,40.105469 C 3.851562,40.121094 2.917969,39.222656 2.898438,38.089844 L 2.871094,36.8125 C 2.847656,35.679688 3.742188,34.75 4.875,34.734375 Z m 0,0"
           style="opacity:1;fill:#cccccc;fill-opacity:1;fill-rule:nonzero;stroke:none;stroke-width:1.2370317"
           inkscape:connector-curvature="0" />
        <path
           id="path4981-7-1-7"
           transform="rotate(90)"
           d="m 31.714844,-7.972656 6.378906,0 c 1.847656,0 3.335938,1.488281 3.335938,3.335937 l 0,0.617188 c 0,1.847656 -1.488282,3.332031 -3.335938,3.332031 l -6.378906,0 c -1.847656,0 -3.332032,-1.484375 -3.332032,-3.332031 l 0,-0.617188 c 0,-1.847656 1.484376,-3.335937 3.332032,-3.335937 z m 0,0"
           style="fill:#000000;fill-opacity:1;fill-rule:nonzero;stroke:#ffffff;stroke-width:1.25035453;stroke-linecap:butt;stroke-linejoin:miter;stroke-miterlimit:4;stroke-opacity:1"
           inkscape:connector-curvature="0" />
        <path
           id="path4983-3-5-5"
           transform="matrix(1,-0.741373,0.741373,1,0,0)"
           d="M -9.920728,17.496603 0.1491,17.497257 c 2.263111,-0.0019 4.082879,1.194906 4.085449,2.67728 L 4.231641,21.1216 c 7.02e-4,1.484895 -1.818361,2.679259 -4.083993,2.679268 l -10.067307,0.0012 c -2.263763,-0.0025 -4.0854,-1.196774 -4.083581,-2.679801 l -0.0015,-0.946411 c -7.02e-4,-1.484895 1.822751,-2.679911 4.083993,-2.679268 z m 0,0"
           style="fill:#000000;fill-opacity:1;fill-rule:nonzero;stroke:#ffffff;stroke-width:1.00442779;stroke-linecap:butt;stroke-linejoin:miter;stroke-miterlimit:4;stroke-opacity:1"
           inkscape:connector-curvature="0" />
        <path
           id="path4985-2-4-0"
           transform="rotate(90)"
           d="m 48.5,-19.882812 5.484375,0 c 1.847656,0 3.332031,1.488281 3.332031,3.335937 l 0,1 c 0,1.847656 -1.484375,3.335937 -3.332031,3.335937 l -5.484375,0 c -1.847656,0 -3.335938,-1.488281 -3.335938,-3.335937 l 0,-1 c 0,-1.847656 1.488282,-3.335937 3.335938,-3.335937 z m 0,0"
           style="fill:#000000;fill-opacity:1;fill-rule:nonzero;stroke:#ffffff;stroke-width:1.25035453;stroke-linecap:butt;stroke-linejoin:miter;stroke-miterlimit:4;stroke-opacity:1"
           inkscape:connector-curvature="0" />
        <path
           id="path4987-1-8-5"
           transform="matrix(1,0.00721611,-0.00939568,0.768023,0,0)"
           d="m 74.873208,30.159034 c -0.0031,7.156187 -9.35088,12.960804 -20.886022,12.962376 -11.535141,0.0016 -20.886576,-5.805366 -20.887455,-12.966602 -8.3e-4,-7.15615 9.350881,-12.960804 20.886022,-12.962376 11.53519,0.0035 20.886577,5.805366 20.887455,12.966602 z m 0,0"
           style="fill:#e95d0f;fill-opacity:1;fill-rule:nonzero;stroke:#ffffff;stroke-width:1.00792968;stroke-linecap:butt;stroke-linejoin:miter;stroke-miterlimit:4;stroke-opacity:1"
           inkscape:connector-curvature="0" />
        <path
           id="path4989-2-9-9"
           transform="matrix(-0.373445,1,-1,-0.373445,0,0)"
           d="m 10.093317,-65.292736 0.312659,4.26e-4 c 1.731191,0.0019 3.122981,1.396239 3.124476,3.126149 l -0.0026,0.93455 c 0.0028,1.733338 -1.39153,3.125128 -3.12144,3.126624 l -0.31266,-4.27e-4 c -1.73119,-0.0019 -3.12298,-1.396238 -3.124475,-3.126149 l 0.00128,-0.937977 c -0.00149,-1.729911 1.39281,-3.121701 3.122721,-3.123196 z m 0,0"
           style="fill:#000000;fill-opacity:1;fill-rule:nonzero;stroke:#ffffff;stroke-width:1.0930202;stroke-linecap:butt;stroke-linejoin:miter;stroke-miterlimit:4;stroke-opacity:1"
           inkscape:connector-curvature="0" />
        <path
           id="path4991-1-5-1"
           d="m 88.683594,9.605469 10.035156,3.945312 c 2.09766,0.824219 3.23828,2.871094 2.5625,4.589844 l -0.41016,1.042969 c -0.67578,1.71875 -2.906246,2.441406 -4.999996,1.617187 L 85.832031,16.855469 c -2.09375,-0.824219 -3.238281,-2.871094 -2.5625,-4.589844 L 83.679688,11.21875 C 84.359375,9.5 86.589844,8.78125 88.683594,9.605469 Z m 0,0"
           style="fill:#233547;fill-opacity:1;fill-rule:nonzero;stroke:none;stroke-width:1.2370317"
           inkscape:connector-curvature="0" />
        <g
           id="g4993-10-3-0"
           clip-path="url(#clip5-2-2-2)"
           style="clip-rule:nonzero;stroke-width:1.2370317">
          <path
             id="path4995-8-0-8"
             transform="matrix(1,0.393155,-0.393155,1,0,0)"
             d="m 80.08173,-21.879064 10.035136,-5.1e-5 c 2.097491,-4.21e-4 3.782415,1.384018 3.782375,3.102784 l -9.3e-5,1.043005 c -4e-5,1.718766 -1.68582,3.104195 -3.779928,3.103285 l -10.038519,0.0014 c -2.094108,-9.1e-4 -3.782415,-1.384019 -3.782375,-3.102784 l -0.0012,-1.046389 c 0.0034,-1.720096 1.690534,-3.102142 3.784641,-3.101232 z m 0,0"
             style="fill:#000000;fill-opacity:1;stroke:#ffffff;stroke-width:1.08584547;stroke-linecap:butt;stroke-linejoin:miter;stroke-miterlimit:4;stroke-opacity:1"
             inkscape:connector-curvature="0" />
        </g>
        <path
           id="path4997-86-0-4"
           transform="matrix(1,-0.228329,0.228329,1,0,0)"
           d="m 69.729176,26.249318 6.367038,6.54e-4 c 2.363163,5.17e-4 4.262704,1.449862 4.265453,3.251271 l -9.3e-5,1.437479 c -9.64e-4,1.800561 -1.902913,3.253009 -4.266076,3.252493 l -6.367038,-6.54e-4 c -2.363164,-5.17e-4 -4.262705,-1.449862 -4.261741,-3.250423 l 9.3e-5,-1.437479 c -0.0019,-1.805121 1.8992,-3.253857 4.262364,-3.253341 z m 0,0"
           style="fill:#000000;fill-opacity:1;fill-rule:nonzero;stroke:#ffffff;stroke-width:1.21898341;stroke-linecap:butt;stroke-linejoin:miter;stroke-miterlimit:4;stroke-opacity:1"
           inkscape:connector-curvature="0" />
        <path
           id="path4999-75-8-9"
           transform="matrix(1,0.00721611,-0.00939568,0.768023,0,0)"
           d="m 74.387461,24.192504 c 8.31e-4,7.15615 -9.35088,12.960804 -20.886022,12.962376 -11.535141,0.0016 -20.886577,-5.805366 -20.887407,-12.961516 0.003,-7.161273 9.350833,-12.96589 20.885974,-12.967462 11.535189,0.0035 20.886577,5.805366 20.887455,12.966602 z m 0,0"
           style="fill:#e95d0f;fill-opacity:1;fill-rule:nonzero;stroke:#ffffff;stroke-width:1.00792968;stroke-linecap:butt;stroke-linejoin:miter;stroke-miterlimit:4;stroke-opacity:1"
           inkscape:connector-curvature="0" />
        <g
           id="g5001-4-1-9"
           clip-path="url(#clip6-9-9-1)"
           style="clip-rule:nonzero;stroke-width:1.2370317">
          <path
             id="path5003-7-8-4"
             d="m 106.08203,31.039062 0,7.957032 c 0,1.847656 -1.48437,3.335937 -3.33203,3.335937 l -0.61719,0 c -1.84765,0 -3.335935,-1.488281 -3.335935,-3.335937 l 0,-7.957032 c 0,-1.847656 1.488285,-3.335937 3.335935,-3.335937 l 0.61719,0 c 1.84766,0 3.33203,1.488281 3.33203,3.335937 z m 0,0"
             style="fill:#233547;fill-opacity:1;fill-rule:nonzero;stroke:none;stroke-width:1.2370317"
             inkscape:connector-curvature="0" />
        </g>
        <g
           id="g5005-43-5-0"
           clip-path="url(#clip7-91-2-6)"
           style="clip-rule:nonzero;stroke-width:1.2370317">
          <path
             id="path5007-7-5-0"
             transform="rotate(90)"
             d="m 31.039062,-106.08203 7.957032,0 c 1.847656,0 3.335937,1.48437 3.335937,3.33203 l 0,0.61719 c 0,1.84765 -1.488281,3.335935 -3.335937,3.335935 l -7.957032,0 c -1.847656,0 -3.335937,-1.488285 -3.335937,-3.335935 l 0,-0.61719 c 0,-1.84766 1.488281,-3.33203 3.335937,-3.33203 z m 0,0"
             style="fill:#000000;fill-opacity:1;stroke:#ffffff;stroke-width:1.16675091;stroke-linecap:butt;stroke-linejoin:miter;stroke-miterlimit:4;stroke-opacity:1"
             inkscape:connector-curvature="0" />
        </g>
        <path
           id="path5009-9-7-2"
           d="m 94.425781,23.050781 8.437499,3.175781 c 1.67578,0.632813 2.57422,2.34375 2.01563,3.832032 l -0.47657,1.261718 c -0.5625,1.492188 -2.36328,2.183594 -4.04296,1.550782 L 91.921875,29.695312 C 90.246094,29.0625 89.347656,27.355469 89.90625,25.863281 l 0.476562,-1.261719 c 0.5625,-1.492187 2.363282,-2.183593 4.042969,-1.550781 z m 0,0"
           style="fill:#233547;fill-opacity:1;fill-rule:nonzero;stroke:none;stroke-width:1.2370317"
           inkscape:connector-curvature="0" />
        <g
           id="g5011-19-4-7"
           clip-path="url(#clip8-9-2-2)"
           style="clip-rule:nonzero;stroke-width:1.2370317">
          <path
             id="path5013-8-5-4"
             transform="matrix(1,0.376556,-0.376556,1,0,0)"
             d="m 90.301449,-10.952771 8.437035,-0.0012 c 1.676376,0.0016 3.027486,1.20373 3.029096,2.691409 l -10e-4,1.262198 c -5.3e-4,1.492388 -1.34966,2.691817 -3.029452,2.69154 l -8.437035,0.00124 c -1.67637,-0.00157 -3.026202,-1.200309 -3.029091,-2.691409 l 0.0013,-1.262198 c 5.33e-4,-1.492388 1.349662,-2.691817 3.029453,-2.69154 z m 0,0"
             style="fill:#000000;fill-opacity:1;stroke:#ffffff;stroke-width:1.09190309;stroke-linecap:butt;stroke-linejoin:miter;stroke-miterlimit:4;stroke-opacity:1"
             inkscape:connector-curvature="0" />
        </g>
        <path
           id="path5015-2-7-6"
           transform="matrix(-1,0.0687468,-0.142308,-0.992207,0,0)"
           d="m -83.875394,-34.775451 10.13263,0.0013 c 1.851792,-0.0016 3.346317,1.491673 3.348044,3.346087 l -0.0012,1.161311 c 0.0017,1.854414 -1.492256,3.349295 -3.347916,3.350641 l -10.13263,-0.0013 c -1.85566,0.0013 -3.350185,-1.491942 -3.348044,-3.346088 l -0.0021,-1.165477 c 0.0021,-1.854146 1.49557,-3.345128 3.35123,-3.346474 z m 0,0"
           style="fill:#000000;fill-opacity:1;fill-rule:nonzero;stroke:#ffffff;stroke-width:1.16400349;stroke-linecap:butt;stroke-linejoin:miter;stroke-miterlimit:4;stroke-opacity:1"
           inkscape:connector-curvature="0" />
        <path
           id="path5017-38-2-1"
           transform="scale(0.805594,1)"
           d="m 75.812653,22.546875 c 0,2.371094 -1.920167,4.289063 -4.286433,4.289063 -2.366266,0 -4.286433,-1.917969 -4.286433,-4.289063 0,-2.367187 1.920167,-4.289063 4.286433,-4.289063 2.366266,0 4.286433,1.921876 4.286433,4.289063 z m 0,0"
           style="fill:#000000;fill-opacity:1;fill-rule:nonzero;stroke:#ffffff;stroke-width:1.17882812;stroke-linecap:round;stroke-linejoin:round;stroke-miterlimit:4;stroke-opacity:1"
           inkscape:connector-curvature="0" />
        <path
           transform="scale(0.805594,1)"
           id="path5019-3-4-9"
           d="m 86.228105,18.875 c 0,2.367188 -1.920167,4.285156 -4.291283,4.285156 -2.366266,0 -4.286433,-1.917968 -4.286433,-4.285156 0,-2.371094 1.920167,-4.289062 4.286433,-4.289062 2.371116,0 4.291283,1.917968 4.291283,4.289062 z m 0,0"
           style="fill:#000000;fill-opacity:1;fill-rule:nonzero;stroke:#ffffff;stroke-width:1.17882812;stroke-linecap:round;stroke-linejoin:round;stroke-miterlimit:4;stroke-opacity:1"
           inkscape:connector-curvature="0" />
        <path
           id="path5021-8-3-3"
           transform="matrix(0.801241,-1,1,0.801241,0,0)"
           d="m -18.315091,28.76074 10.42909,-7.46e-4 c 2.012406,8.58e-4 3.632444,1.159849 3.633536,2.604287 l -0.00132,0.778397 c -8.13e-4,1.442059 -1.621,2.6035 -3.633407,2.602642 l -10.42909,7.45e-4 c -2.012407,-8.58e-4 -3.632444,-1.159849 -3.63163,-2.601907 l -5.91e-4,-0.780777 c 8.14e-4,-1.442059 1.618622,-2.601594 3.633408,-2.602641 z m 0,0"
           style="fill:#000000;fill-opacity:1;fill-rule:nonzero;stroke:#ffffff;stroke-width:0.9757731;stroke-linecap:butt;stroke-linejoin:miter;stroke-miterlimit:4;stroke-opacity:1"
           inkscape:connector-curvature="0" />
        <path
           id="path5023-6-3-6"
           transform="matrix(-1,0.704483,-0.704483,-1,0,0)"
           d="m -7.906475,-36.773102 1.038341,0.001 c 1.51239,-9.54e-4 2.726815,1.213963 2.727768,2.726353 l -6.19e-4,0.815971 c -0.00166,1.510551 -1.216574,2.724975 -2.726353,2.727767 l -1.038341,-0.001 c -1.51239,9.53e-4 -2.729425,-1.215803 -2.727768,-2.726354 l 6.19e-4,-0.81597 c -9.53e-4,-1.51239 1.213963,-2.726815 2.726353,-2.727768 z m 0,0"
           style="fill:#000000;fill-opacity:1;fill-rule:nonzero;stroke:#ffffff;stroke-width:1.02217293;stroke-linecap:butt;stroke-linejoin:miter;stroke-miterlimit:4;stroke-opacity:1"
           inkscape:connector-curvature="0" />
      </g>
    </g>
    <path
       d="m -526.19693,-84.854237 c 1.38494,0.829881 1.8358,2.62347 1.00502,4.011996 -0.83078,1.383138 -2.62527,1.833107 -4.01021,1.000535 -1.38403,-0.82809 -1.8331,-2.62527 -1.00591,-4.009308 0.83078,-1.383141 2.62707,-1.831308 4.0111,-1.003223"
       style="fill:#e95d0f;fill-opacity:1;fill-rule:nonzero;stroke:none;stroke-width:0.31423119"
       id="path2881-6"
       inkscape:connector-curvature="0"
       inkscape:export-xdpi="95.929977"
       inkscape:export-ydpi="95.929977" />
    <path
       d="m -532.56926,-97.687852 c 0.94215,1.310389 0.64038,3.13721 -0.67271,4.078465 -1.31398,0.940353 -3.13721,0.640371 -4.07756,-0.675405 -0.94215,-1.308595 -0.64038,-3.135415 0.67181,-4.074869 1.30769,-0.942152 3.13721,-0.641276 4.07846,0.671809"
       style="fill:#e95d0f;fill-opacity:1;fill-rule:nonzero;stroke:none;stroke-width:0.31423119"
       id="path2883-4"
       inkscape:connector-curvature="0"
       inkscape:export-xdpi="95.929977"
       inkscape:export-ydpi="95.929977" />
    <path
       d="m -525.53689,-105.35953 c 0.94215,1.31039 0.64038,3.13721 -0.67271,4.07847 -1.31398,0.94035 -3.13721,0.64037 -4.07756,-0.6754 -0.94215,-1.3086 -0.64038,-3.13542 0.67181,-4.07488 1.30769,-0.94215 3.13721,-0.64127 4.07846,0.67181"
       style="fill:#e95d0f;fill-opacity:1;fill-rule:nonzero;stroke:none;stroke-width:0.31423119"
       id="path2883-8"
       inkscape:connector-curvature="0"
       inkscape:export-xdpi="95.929977"
       inkscape:export-ydpi="95.929977" />
    <path
       d="m -518.82158,-110.95355 c 0.66283,1.00772 0.3889,2.36391 -0.62061,3.02854 -1.00682,0.66462 -2.36122,0.38709 -3.02585,-0.61973 -0.66372,-1.00771 -0.38979,-2.36121 0.61882,-3.02763 1.00502,-0.66373 2.35942,-0.3871 3.02764,0.61882"
       style="fill:#e95d0f;fill-opacity:1;fill-rule:nonzero;stroke:none;stroke-width:0.31423119"
       id="path2929-4"
       inkscape:connector-curvature="0"
       inkscape:export-xdpi="95.929977"
       inkscape:export-ydpi="95.929977" />
    <path
       d="m -502.2576,-117.78796 c 0.66284,1.00772 0.3889,2.36391 -0.62061,3.02854 -1.00682,0.66462 -2.36121,0.38709 -3.02584,-0.61973 -0.66372,-1.00771 -0.38979,-2.36121 0.61882,-3.02763 1.00502,-0.66373 2.35942,-0.3871 3.02763,0.61882"
       style="fill:#e95d0f;fill-opacity:1;fill-rule:nonzero;stroke:none;stroke-width:0.31423119"
       id="path2929-2"
       inkscape:connector-curvature="0"
       inkscape:export-xdpi="95.929977"
       inkscape:export-ydpi="95.929977" />
    <path
       d="m -491.99213,-120.63142 c 0.66283,1.00772 0.3889,2.36391 -0.62061,3.02854 -1.00682,0.66462 -2.36123,0.3871 -3.02585,-0.61972 -0.66372,-1.00771 -0.38979,-2.36122 0.61882,-3.02764 1.00502,-0.66372 2.35942,-0.38709 3.02764,0.61882"
       style="fill:#e95d0f;fill-opacity:1;fill-rule:nonzero;stroke:none;stroke-width:0.31423119"
       id="path2929-3"
       inkscape:connector-curvature="0"
       inkscape:export-xdpi="95.929977"
       inkscape:export-ydpi="95.929977" />
    <path
       d="m -482.53877,-122.74831 c 0.53708,0.81731 0.31794,1.90945 -0.49488,2.45103 -0.81552,0.53978 -1.91484,0.31794 -2.45283,-0.49667 -0.53888,-0.81552 -0.31794,-1.91035 0.49488,-2.45103 0.8191,-0.53799 1.91125,-0.31615 2.45283,0.49667"
       style="fill:#e95d0f;fill-opacity:1;fill-rule:nonzero;stroke:none;stroke-width:0.31423119"
       id="path3037-0-8"
       inkscape:connector-curvature="0"
       inkscape:export-xdpi="95.929977"
       inkscape:export-ydpi="95.929977" />
    <path
       d="m -473.37539,-124.24003 c 0.53709,0.81731 0.31795,1.90945 -0.49487,2.45103 -0.81552,0.53979 -1.91484,0.31795 -2.45283,-0.49667 -0.53888,-0.81551 -0.31794,-1.91035 0.49488,-2.45103 0.8191,-0.53799 1.91125,-0.31614 2.45282,0.49667"
       style="fill:#e95d0f;fill-opacity:1;fill-rule:nonzero;stroke:none;stroke-width:0.31423119"
       id="path3037-0-5"
       inkscape:connector-curvature="0"
       inkscape:export-xdpi="95.929977"
       inkscape:export-ydpi="95.929977" />
    <path
       d="m -465.84595,-124.85674 c 0.40763,0.62031 0.24131,1.44919 -0.37559,1.86022 -0.61893,0.40967 -1.45327,0.24131 -1.86158,-0.37695 -0.40899,-0.61894 -0.2413,-1.44986 0.37559,-1.86022 0.62166,-0.4083 1.45055,-0.23994 1.86158,0.37695"
       style="fill:#e95d0f;fill-opacity:1;fill-rule:nonzero;stroke:none;stroke-width:0.23848674"
       id="path3037-0-9"
       inkscape:connector-curvature="0"
       inkscape:export-xdpi="95.929977"
       inkscape:export-ydpi="95.929977" />
    <path
       id="path3165-1-9"
       style="fill:#e95d0f;fill-opacity:1;fill-rule:nonzero;stroke:none;stroke-width:0.31423119"
       d="m -452.79924,-124.51017 c 0.3377,0.52541 0.18321,1.22776 -0.34579,1.56277 -0.529,0.3377 -1.22956,0.18142 -1.56007,-0.34399 -0.33771,-0.52721 -0.18502,-1.22776 0.34039,-1.56457 0.52811,-0.3377 1.22776,-0.18052 1.56547,0.34579"
       inkscape:connector-curvature="0"
       inkscape:export-xdpi="95.929977"
       inkscape:export-ydpi="95.929977" />
    <path
       id="path3165-1-6"
       style="fill:#e95d0f;fill-opacity:1;fill-rule:nonzero;stroke:none;stroke-width:0.31423119"
       d="m -446.19308,-124.29707 c 0.3377,0.52541 0.18322,1.22776 -0.34578,1.56277 -0.52901,0.3377 -1.22956,0.18142 -1.56008,-0.34399 -0.3377,-0.52721 -0.18502,-1.22776 0.3404,-1.56457 0.5281,-0.3377 1.22776,-0.18052 1.56546,0.34579"
       inkscape:connector-curvature="0"
       inkscape:export-xdpi="95.929977"
       inkscape:export-ydpi="95.929977" />
    <path
       id="path3165-1-4"
       style="fill:#e95d0f;fill-opacity:1;fill-rule:nonzero;stroke:none;stroke-width:0.31423119"
       d="m -432.76765,-121.73984 c 0.3377,0.52541 0.18322,1.22776 -0.34579,1.56277 -0.529,0.3377 -1.22955,0.18142 -1.56007,-0.34399 -0.3377,-0.52721 -0.18502,-1.22776 0.3404,-1.56457 0.5281,-0.3377 1.22776,-0.18052 1.56546,0.34579"
       inkscape:connector-curvature="0"
       inkscape:export-xdpi="95.929977"
       inkscape:export-ydpi="95.929977" />
    <path
       id="path3165-1-2"
       style="fill:#e95d0f;fill-opacity:1;fill-rule:nonzero;stroke:none;stroke-width:0.31423119"
       d="m -425.52218,-120.46123 c 0.3377,0.52541 0.18322,1.22776 -0.34578,1.56277 -0.52901,0.3377 -1.22956,0.18142 -1.56008,-0.34399 -0.3377,-0.52721 -0.18501,-1.22776 0.3404,-1.56457 0.52811,-0.3377 1.22776,-0.18052 1.56546,0.34579"
       inkscape:connector-curvature="0"
       inkscape:export-xdpi="95.929977"
       inkscape:export-ydpi="95.929977" />
    <path
       d="m -533.42884,-88.840524 c 0.94215,1.310389 0.64038,3.13721 -0.67271,4.078465 -1.31399,0.940353 -3.13721,0.640371 -4.07757,-0.675405 -0.94215,-1.308595 -0.64037,-3.135415 0.67181,-4.074869 1.3077,-0.942152 3.13722,-0.641276 4.07847,0.671809"
       style="fill:#e95d0f;fill-opacity:1;fill-rule:nonzero;stroke:none;stroke-width:0.31423119"
       id="path2883-4-7"
       inkscape:connector-curvature="0"
       inkscape:export-xdpi="95.929977"
       inkscape:export-ydpi="95.929977" />
    <path
       d="m -511.46939,-114.27614 c 0.66283,1.00771 0.3889,2.36391 -0.62061,3.02853 -1.00682,0.66463 -2.36122,0.3871 -3.02584,-0.61972 -0.66373,-1.00771 -0.38979,-2.36121 0.61881,-3.02763 1.00503,-0.66373 2.35942,-0.3871 3.02764,0.61882"
       style="fill:#e95d0f;fill-opacity:1;fill-rule:nonzero;stroke:none;stroke-width:0.31423119"
       id="path2929-4-7"
       inkscape:connector-curvature="0"
       inkscape:export-xdpi="95.929977"
       inkscape:export-ydpi="95.929977" />
    <path
       d="m -458.96093,-125.27255 c 0.40763,0.62031 0.24131,1.44919 -0.37558,1.86022 -0.61894,0.40967 -1.45328,0.2413 -1.86158,-0.37695 -0.40899,-0.61894 -0.24131,-1.44987 0.37559,-1.86022 0.62166,-0.40831 1.45054,-0.23994 1.86157,0.37695"
       style="fill:#e95d0f;fill-opacity:1;fill-rule:nonzero;stroke:none;stroke-width:0.23848674"
       id="path3037-0-9-7"
       inkscape:connector-curvature="0"
       inkscape:export-xdpi="95.929977"
       inkscape:export-ydpi="95.929977" />
    <path
       id="path3165-1-6-9"
       style="fill:#e95d0f;fill-opacity:1;fill-rule:nonzero;stroke:none;stroke-width:0.31423119"
       d="m -438.45563,-123.00806 c 0.3377,0.52541 0.18322,1.22776 -0.34578,1.56277 -0.52901,0.3377 -1.22956,0.18142 -1.56008,-0.34399 -0.3377,-0.52721 -0.18501,-1.22776 0.3404,-1.56457 0.52811,-0.3377 1.22776,-0.18052 1.56546,0.34579"
       inkscape:connector-curvature="0"
       inkscape:export-xdpi="95.929977"
       inkscape:export-ydpi="95.929977" />
    <rect
       style="opacity:1;fill:#e95d0f;fill-opacity:1;stroke:none;stroke-width:2.606565;stroke-linecap:round;stroke-linejoin:miter;stroke-miterlimit:4;stroke-dasharray:2.60656503, 10.4262601;stroke-dashoffset:0;stroke-opacity:1"
       id="rect8507"
       width="3.1965315"
       height="3.1023526"
       x="-414.79559"
       y="-77.340698"
       inkscape:export-xdpi="95.929977"
       inkscape:export-ydpi="95.929977" />
  </g>
</svg>
